<?xml version="1.0" standalone="no"?>
<!DOCTYPE svg PUBLIC "-//W3C//DTD SVG 1.1//EN" "http://www.w3.org/Graphics/SVG/1.1/DTD/svg11.dtd" >
<svg xmlns="http://www.w3.org/2000/svg">
<metadata>
Created by FontPrep 20130207 at Tue Apr 28 14:50:09 2015
 By baxy
Copyright (c) 2014 by Ryoichi Tsunekawa. All rights reserved.
</metadata>
<defs>
<font id="faa0605734111f51d6bdab532167c6dd" horiz-adv-x='1024' >
  <font-face 
    font-family="Kiro-ExtraLight"
    font-weight="250"
    font-stretch="normal"
    units-per-em="2048"
    panose-1="2 15 4 6 2 2 3 4 2 4"
    ascent="1649"
    descent="-399"
    x-height="1006"
    cap-height="1360"
    bbox="-310.333 -352 2103 1866"
    underline-thickness="55"
    underline-position="-111"
    unicode-range="U+0020-FB04"
  />
<missing-glyph horiz-adv-x="1228" 
d="M934 84l-320 508l-319 -508h639zM670 680l325 -518v1036zM559 680l-326 518v-1036zM934 1276h-639l319 -508zM1087 0h-946v1360h946v-1360z" />
    <glyph glyph-name="ff" unicode="ff" horiz-adv-x="1222" 
d="M287 1006h491v124q0 78 15 123q-84 109 -254 109q-119 0 -186 -74t-66 -205v-77zM1079 1382q-217 0 -217 -262v-114h336q25 0 25 -25v-27q0 -25 -25 -24h-336v-905q0 -25 -24 -25h-35q-25 0 -25 25v905h-491v-905q0 -25 -25 -25h-35q-25 0 -24 25v905h-140q-25 0 -24 24
v27q0 25 24 25h140v86q0 162 88 254t256 92t278 -105q70 125 250 125q113 0 197 -49q23 -12 8 -33l-14 -24q-12 -20 -31 -9q-59 39 -156 39z" />
    <glyph glyph-name="fi" unicode="fi" horiz-adv-x="1015" 
d="M799 1006h35q25 0 24 -25v-956q0 -25 -24 -25h-35q-25 0 -25 25v956q0 25 25 25zM528 1382q-242 0 -241 -262v-114h295q25 0 24 -25v-27q0 -25 -24 -24h-295v-905q0 -25 -25 -25h-35q-25 0 -24 25v905h-140q-25 0 -24 24v27q0 25 24 25h140v124q0 156 84 242
q85 86 239 86t256 -82q23 -16 6 -35l-18 -22q-14 -20 -37 -2q-82 65 -205 65z" />
    <glyph glyph-name="fl" unicode="fl" horiz-adv-x="1036" 
d="M819 1434h35q25 0 25 -25v-1384q0 -25 -25 -25h-35q-25 0 -24 25v1251q-86 106 -256 106q-119 0 -186 -74t-66 -204v-98h311q25 0 25 -25v-27q0 -25 -25 -24h-311v-905q0 -25 -25 -25h-35q-25 0 -24 25v905h-140q-25 0 -24 24v27q0 25 24 25h140v106q0 162 88 254t241 92
t263 -80v31q-1 25 24 25z" />
    <glyph glyph-name="ffi" unicode="ffi" horiz-adv-x="1591" 
d="M1374 1006h35q25 0 25 -25v-956q0 -25 -25 -25h-35q-25 0 -24 25v956q-1 25 24 25zM287 1006h491v124q0 61 17 121q-84 111 -256 111q-119 0 -186 -74t-66 -205v-77zM862 1120v-114h295q25 0 25 -25v-27q0 -25 -25 -24h-295v-905q0 -25 -24 -25h-35q-25 0 -25 25v905
h-491v-905q0 -25 -25 -25h-35q-25 0 -24 25v905h-140q-25 0 -24 24v27q0 25 24 25h140v86q0 162 88 254t256 92t282 -109q84 129 273 129q154 0 256 -82q22 -17 6 -35l-18 -22q-14 -20 -37 -2q-82 66 -205 65q-242 0 -242 -262z" />
    <glyph glyph-name="ffl" unicode="ffl" horiz-adv-x="1611" 
d="M287 1006h491v106q0 63 19 137q-88 113 -258 113q-119 0 -186 -74t-66 -205v-77zM1395 1434h35q25 0 24 -25v-1384q0 -25 -24 -25h-35q-25 0 -25 25v1251q-86 106 -256 106q-120 0 -186 -74t-66 -204v-98h312q25 0 24 -25v-27q0 -25 -24 -24h-312v-905q0 -25 -24 -25h-35
q-25 0 -25 25v905h-491v-905q0 -25 -25 -25h-35q-25 0 -24 25v905h-140q-25 0 -24 24v27q0 25 24 25h140v86q0 162 88 254t259 92t284 -113q86 133 276 133q150 0 260 -80v31q0 25 25 25z" />
    <glyph glyph-name="f_b" unicode="fb" horiz-adv-x="1644" 
d="M1444 377v254q0 166 -69 245t-214 78q-283 0 -282 -323v-254q1 -168 69 -247t213 -79t214 79t69 247zM795 358v918q-86 106 -256 106q-119 0 -186 -74t-66 -204v-98h311q25 0 25 -25v-27q0 -25 -25 -24h-311v-905q0 -25 -25 -25h-35q-25 0 -24 25v905h-140q-25 0 -24 24
v27q0 25 24 25h140v106q0 162 88 254t241 92t263 -80v31q0 25 24 25h35q25 0 25 -25v-530h2q78 152 288 151q358 0 359 -381v-291q0 -188 -93 -285t-273 -97t-274 96q-93 98 -93 286z" />
    <glyph glyph-name="f_f_b" unicode="ffb" horiz-adv-x="2220" 
d="M2019 377v254q0 166 -68 245q-69 79 -214 78q-283 0 -283 -323v-254q0 -168 69 -247t214 -79t214 79q68 79 68 247zM1370 358v918q-86 106 -256 106q-120 0 -186 -74t-66 -204v-98h312q25 0 24 -25v-27q0 -25 -24 -24h-312v-905q0 -25 -24 -25h-35q-25 0 -25 25v905h-491
v-905q0 -25 -25 -25h-35q-25 0 -24 25v905h-140q-25 0 -24 24v27q0 25 24 25h140v86q0 162 88 254t259 92t284 -113q86 133 276 133q150 0 260 -80v31q0 25 25 25h35q25 0 24 -25v-530h2q78 152 289 151q358 0 358 -381v-291q0 -188 -93 -285t-273 -97q-179 0 -273 96
q-94 98 -94 286zM287 1006h491v106q0 63 19 137q-88 113 -258 113q-119 0 -186 -74t-66 -205v-77z" />
    <glyph glyph-name="f_h" unicode="fh" horiz-adv-x="1660" 
d="M795 25v1251q-86 106 -256 106q-119 0 -186 -74t-66 -204v-98h311q25 0 25 -25v-27q0 -25 -25 -24h-311v-905q0 -25 -25 -25h-35q-25 0 -24 25v905h-140q-25 0 -24 24v27q0 25 24 25h140v106q0 162 88 254t241 92t263 -80v31q0 25 24 25h35q25 0 25 -25v-524h2
q78 145 282 145q350 0 350 -373v-632q0 -25 -24 -25h-35q-25 0 -24 25v614q0 162 -68 239t-209 76q-274 0 -274 -315v-614q0 -25 -25 -25h-35q-24 0 -24 25z" />
    <glyph glyph-name="f_f_h" unicode="ffh" horiz-adv-x="2236" 
d="M287 1006h491v106q0 63 19 137q-88 113 -258 113q-119 0 -186 -74t-66 -205v-77zM1370 1409q0 25 25 25h35q25 0 24 -25v-524h2q78 145 283 145q350 0 350 -373v-632q0 -25 -25 -25h-34q-25 0 -25 25v614q0 162 -68 239t-208 76q-274 0 -275 -315v-614q0 -25 -24 -25h-35
q-25 0 -25 25v1251q-86 106 -256 106q-120 0 -186 -74t-66 -204v-98h312q25 0 24 -25v-27q0 -25 -24 -24h-312v-905q0 -25 -24 -25h-35q-25 0 -25 25v905h-491v-905q0 -25 -25 -25h-35q-25 0 -24 25v905h-140q-25 0 -24 24v27q0 25 24 25h140v86q0 162 88 254t259 92
t284 -113q86 133 276 133q149 0 260 -80v31z" />
    <glyph glyph-name="f_j" unicode="fj" horiz-adv-x="1015" 
d="M596 -252h2q176 0 176 193v1040q0 25 25 25h35q25 0 24 -25v-1040q0 -268 -252 -269h-10q-25 0 -25 25v27q0 24 25 24zM528 1382q-242 0 -241 -262v-114h295q25 0 24 -25v-27q0 -25 -24 -24h-295v-905q0 -25 -25 -25h-35q-25 0 -24 25v905h-140q-25 0 -24 24v27
q0 25 24 25h140v124q0 156 84 242q85 86 239 86t256 -82q20 -14 6 -35l-18 -22q-14 -20 -37 -2q-82 65 -205 65z" />
    <glyph glyph-name="f_f_j" unicode="ffj" horiz-adv-x="1591" 
d="M1374 1006h35q25 0 25 -25v-1040q0 -268 -252 -269h-11q-25 0 -24 25v27q0 25 24 24h3q176 0 176 193v1040q-1 25 24 25zM287 1006h491v124q0 61 17 121q-84 111 -256 111q-119 0 -186 -74t-66 -205v-77zM1182 981v-27q0 -25 -25 -24h-295v-905q0 -25 -24 -25h-35
q-25 0 -25 25v905h-491v-905q0 -25 -25 -25h-35q-25 0 -24 25v905h-140q-25 0 -24 24v27q0 25 24 25h140v86q0 162 88 254t256 92t282 -109q84 129 273 129q154 0 256 -82q20 -14 6 -35l-18 -22q-14 -20 -37 -2q-82 66 -205 65q-242 0 -242 -262v-114h295q25 0 25 -25z" />
    <glyph glyph-name="f_k" unicode="fk" horiz-adv-x="1501" 
d="M795 25v1251q-86 106 -256 106q-119 0 -186 -74t-66 -204v-98h311q25 0 25 -25v-27q0 -25 -25 -24h-311v-905q0 -25 -25 -25h-35q-25 0 -24 25v905h-140q-25 0 -24 24v27q0 25 24 25h140v106q0 162 88 254t241 92t263 -80v31q0 25 24 25h35q25 0 25 -25v-872l454 456
q12 12 31 13h55q17 0 21 -10t-8 -21l-465 -461l487 -483q12 -11 8 -21t-20 -10h-58q-18 0 -30 12l-475 477v-464q0 -25 -25 -25h-35q-24 0 -24 25z" />
    <glyph glyph-name="f_f_k" unicode="ffk" horiz-adv-x="2093" 
d="M287 1006h491v106q0 63 19 137q-88 113 -258 113q-119 0 -186 -74t-66 -205v-77zM1370 1409q0 25 25 25h35q25 0 24 -25v-872l455 456q12 12 30 13h56q16 0 20 -10t-8 -21l-465 -461l488 -483q12 -11 8 -21t-21 -10h-57q-18 0 -31 12l-475 477v-464q0 -25 -24 -25h-35
q-25 0 -25 25v1251q-86 106 -256 106q-120 0 -186 -74t-66 -204v-98h312q25 0 24 -25v-27q0 -25 -24 -24h-312v-905q0 -25 -24 -25h-35q-25 0 -25 25v905h-491v-905q0 -25 -25 -25h-35q-25 0 -24 25v905h-140q-25 0 -24 24v27q0 25 24 25h140v86q0 162 88 254t259 92
t284 -113q86 133 276 133q149 0 260 -80v31z" />
    <glyph glyph-name="f_t" unicode="ft" horiz-adv-x="1288" 
d="M776 264v666h-489v-905q0 -25 -25 -25h-35q-25 0 -24 25v905h-140q-25 0 -24 24v27q0 25 24 25h140v124q0 156 84 242t230 86t253 -78q23 -16 6 -34l-20 -25q-14 -18 -37 0q-78 61 -193 61q-240 0 -239 -262v-114h489v192q0 25 25 25h35q25 0 24 -25v-192h336
q25 0 25 -25v-27q0 -25 -25 -24h-336v-656q0 -223 199 -223q74 0 143 45q21 15 33 -8l12 -22q10 -23 -8 -35q-77 -55 -199 -55t-193 74q-71 75 -71 214z" />
    <glyph glyph-name="f_f_t" unicode="fft" horiz-adv-x="1863" 
d="M287 1006h491v124q0 61 17 121q-84 111 -256 111q-119 0 -186 -74t-66 -205v-77zM1352 930h-490v-905q0 -25 -24 -25h-35q-25 0 -25 25v905h-491v-905q0 -25 -25 -25h-35q-25 0 -24 25v905h-140q-25 0 -24 24v27q0 25 24 25h140v86q0 162 88 254t256 92t282 -109
q76 129 269 129q141 0 248 -78q23 -16 6 -34l-21 -25q-16 -18 -37 0q-78 61 -192 61q-240 0 -240 -262v-114h490v192q0 25 24 25h35q25 0 25 -25v-192h336q25 0 24 -25v-27q0 -25 -24 -24h-336v-656q0 -223 198 -223q74 0 144 45q20 15 32 -8l13 -22q10 -23 -8 -35
q-78 -55 -200 -55t-193 74q-71 75 -70 214v666z" />
    <glyph glyph-name=".notdef" horiz-adv-x="1228" 
d="M934 84l-320 508l-319 -508h639zM670 680l325 -518v1036zM559 680l-326 518v-1036zM934 1276h-639l319 -508zM1087 0h-946v1360h946v-1360z" />
    <glyph glyph-name=".null" horiz-adv-x="0" 
 />
    <glyph glyph-name="nonmarkingreturn" horiz-adv-x="681" 
 />
    <glyph glyph-name="space" unicode=" " horiz-adv-x="440" 
 />
    <glyph glyph-name="exclam" unicode="!" horiz-adv-x="434" 
d="M286 47q0 -31 -19 -51t-50 -20t-51 20t-21 51q1 31 21 50t51 19t49 -20q20 -18 20 -49zM258 1335v-592l-16 -411q0 -16 -17 -17h-16q-16 0 -16 17l-19 411v592q0 25 25 25h34q25 0 25 -25z" />
    <glyph glyph-name="quotedbl" unicode="&#x22;" horiz-adv-x="684" 
d="M481 946q-18 0 -18 19l-17 370q0 25 25 25h39q25 0 25 -25l-17 -370q0 -18 -18 -19h-19zM184 946q-18 0 -18 19l-16 370q0 25 24 25h39q25 0 25 -25l-17 -370q0 -18 -18 -19h-19z" />
    <glyph glyph-name="numbersign" unicode="#" horiz-adv-x="1081" 
d="M420 834l-62 -349h312l61 349h-311zM946 485q27 0 21 -26l-4 -25q-4 -23 -27 -22h-203l-67 -389q-4 -23 -27 -23h-27q-25 0 -22 27l67 385h-311l-67 -389q-4 -23 -27 -23h-27q-25 0 -22 27l67 385h-198q-25 0 -23 26l4 25q4 23 27 22h203l61 349h-199q-25 0 -22 26l4 25
q4 23 27 22h202l62 348q4 23 26 23h27q25 0 23 -27l-62 -344h311l62 348q4 23 26 23h27q25 0 23 -27l-62 -344h201q27 0 20 -26l-4 -25q-4 -23 -26 -22h-203l-62 -349h201z" />
    <glyph glyph-name="dollar" unicode="$" horiz-adv-x="1081" 
d="M895 352q-1 108 -69 165t-222 73v-496q133 8 212 79t79 179zM233 926q0 -108 70 -166t223 -78v502q-133 -8 -213 -78q-80 -72 -80 -180zM981 358q0 -146 -104 -240q-104 -93 -273 -102v-137q0 -23 -22 -22h-33q-23 0 -23 22v139q-266 14 -395 197q-12 20 6 35l25 20
q18 16 35 -6q106 -152 329 -168v504q-202 20 -290 96t-88 224t104 240q106 93 274 102v124q0 23 23 23h33q23 0 22 -23v-126q223 -16 336 -173q12 -20 -6 -34l-27 -21q-18 -12 -35 6q-90 129 -268 144v-510q203 -20 290 -94t87 -220z" />
    <glyph glyph-name="percent" unicode="%" horiz-adv-x="1269" 
d="M801 375v-142q0 -100 38 -145t125 -45t125 45t37 145v142q0 98 -37 143q-38 45 -124 45t-125 -45t-39 -143zM727 225v156q0 121 61 185q60 64 176 65q116 0 176 -65t60 -185v-156q0 -250 -235 -250q-115 -1 -177 63t-61 187zM143 1047v-142q0 -100 38 -145t125 -45
t125 45t38 145v142q0 98 -38 143t-124 45t-125 -45t-39 -143zM1030 1278h33q14 0 18 -8t-4 -19l-809 -1237q-8 -14 -28 -14h-35q-14 0 -19 8q-4 9 4 19l811 1237q8 14 29 14zM70 897v156q0 121 61 185t176 65q115 0 175 -65t61 -185v-156q0 -250 -236 -250q-115 -1 -176 63
t-61 187z" />
    <glyph glyph-name="ampersand" unicode="&#x26;" horiz-adv-x="1179" 
d="M164 365q0 -141 93 -227t251 -85q199 0 334 172l-477 492q-201 -145 -201 -352zM504 -25q-198 1 -312 105t-114 282q0 246 233 418q-109 139 -109 283q0 145 93 233q92 88 260 88t283 -96q16 -16 2 -35l-19 -24q-18 -23 -39 -2q-86 80 -220 80t-204 -68t-69 -188
q0 -143 155 -299l443 -457q80 131 129 338q6 27 31 20l34 -8q25 -6 19 -31q-63 -227 -154 -378l199 -205q10 -11 6 -21t-21 -10h-51q-18 0 -30 12l-150 156q-154 -193 -395 -193z" />
    <glyph glyph-name="quotesingle" unicode="'" horiz-adv-x="387" 
d="M184 946q-18 0 -18 19l-16 370q0 25 24 25h39q25 0 25 -25l-17 -370q0 -18 -18 -19h-19z" />
    <glyph glyph-name="parenleft" unicode="(" horiz-adv-x="638" 
d="M461 1360h31q37 0 14 -31q-238 -342 -238 -741t238 -742q23 -31 -14 -30h-31q-18 0 -31 14q-248 324 -248 758t248 758q13 14 31 14z" />
    <glyph glyph-name="parenright" unicode=")" horiz-adv-x="638" 
d="M199 -184h-31q-37 0 -14 30q238 342 238 742t-238 741q-23 31 14 31h31q18 0 30 -14q248 -324 248 -758t-248 -758q-12 -14 -30 -14z" />
    <glyph glyph-name="asterisk" unicode="*" horiz-adv-x="964" 
d="M471 1434h35q25 0 24 -25l-16 -377l352 131q27 8 33 -16l8 -29q7 -25 -16 -31l-363 -106l236 -295q16 -23 -4 -35l-27 -18q-23 -16 -35 6l-209 317l-210 -317q-12 -23 -35 -6l-27 18q-20 12 -4 35l236 295l-363 106q-23 6 -16 31l8 29q6 25 33 16l352 -131l-17 377
q0 25 25 25z" />
    <glyph glyph-name="plus" unicode="+" horiz-adv-x="1081" 
d="M1014 532h-434v-434q0 -25 -25 -24h-29q-25 0 -24 24v434h-434q-25 0 -25 25v29q0 25 25 24h434v434q0 25 24 25h29q25 0 25 -25v-434h434q25 0 24 -24v-29q1 -25 -24 -25z" />
    <glyph glyph-name="comma" unicode="," horiz-adv-x="430" 
d="M291 37q0 -135 -109 -221q-14 -8 -26 8t-2 26q55 51 65 136q-45 -6 -63 39t16 75t76 10q43 -20 43 -73z" />
    <glyph glyph-name="hyphen" unicode="-" horiz-adv-x="669" 
d="M584 514h-498q-25 0 -25 25v32q0 25 25 25h498q25 0 24 -25v-32q1 -25 -24 -25z" />
    <glyph glyph-name="period" unicode="." horiz-adv-x="430" 
d="M284 47q0 -31 -19 -51t-50 -20t-51 20t-21 51q1 31 21 50t51 19t49 -20q20 -18 20 -49z" />
    <glyph glyph-name="slash" unicode="/" horiz-adv-x="710" 
d="M637 1360q31 0 20 -29l-503 -1313q-6 -18 -29 -18h-31q-30 0 -20 29l504 1312q6 18 28 19h31z" />
    <glyph glyph-name="zero" unicode="0" horiz-adv-x="1081" 
d="M205 844v-408q0 -197 82 -290t254 -93t254 93t82 290v408q0 195 -82 288t-254 93t-254 -93t-82 -288zM119 420v440q0 217 107 330q108 113 315 113t315 -113t107 -330v-440q0 -219 -108 -332q-109 -113 -315 -113t-314 113q-107 113 -107 332z" />
    <glyph glyph-name="one" unicode="1" horiz-adv-x="1081" 
d="M756 1253v-1228q0 -25 -25 -25h-37q-25 0 -24 25v1140l-342 -254q-23 -12 -35 7l-14 22q-14 20 4 35l397 293q14 10 31 10h20q25 0 25 -25z" />
    <glyph glyph-name="two" unicode="2" horiz-adv-x="1081" 
d="M967 53v-28q0 -25 -25 -25h-764q-25 0 -24 25v28q0 18 12 31l526 522q102 102 144 176t41 186q0 112 -84 185q-84 72 -234 72q-231 0 -334 -201q-12 -23 -32 -8l-27 16q-20 10 -10 33q58 115 164 176t241 62q184 -1 293 -95t109 -254q-1 -110 -47 -198t-160 -201
l-486 -477h672q25 0 25 -25z" />
    <glyph glyph-name="three" unicode="3" horiz-adv-x="1081" 
d="M1016 346q0 -174 -116 -272t-320 -99q-283 0 -428 189q-14 20 2 35l22 20q20 18 37 -4q123 -162 365 -162q168 0 260 78t92 217t-95 212t-276 73h-119q-25 0 -24 24v29q0 25 24 25h109q346 0 346 250q0 127 -86 195t-242 69q-223 0 -342 -162q-14 -18 -35 -2l-22 18
q-20 14 -4 35q147 188 405 189q193 -1 303 -91t109 -247q0 -228 -229 -289v-2q128 -31 196 -116t68 -212z" />
    <glyph glyph-name="four" unicode="4" horiz-adv-x="1081" 
d="M784 391v758h-2l-594 -758h596zM1006 313h-136v-288q0 -25 -24 -25h-37q-25 0 -25 25v288h-669q-25 0 -25 25v41q0 16 10 31l668 854q12 14 31 14h47q25 0 24 -25v-862h136q25 0 24 -24v-29q1 -25 -24 -25z" />
    <glyph glyph-name="five" unicode="5" horiz-adv-x="1081" 
d="M578 811q192 0 307 -115q115 -114 115 -304t-118 -304q-116 -114 -315 -113q-291 0 -430 189q-12 20 2 35l25 22q20 16 37 -6q119 -162 364 -162q162 0 255 92t93 249t-93 248t-253 91q-203 0 -323 -123q-12 -16 -31 -12l-18 2q-25 2 -21 27l41 626q2 25 27 25h663
q25 0 25 -25v-28q0 -25 -25 -25h-612l-33 -495h2q124 106 316 106z" />
    <glyph glyph-name="six" unicode="6" horiz-adv-x="1081" 
d="M562 733q-153 0 -245 -93t-92 -247t90 -248q92 -92 247 -92t245 92t90 248t-91 248t-244 92zM571 811q184 0 298 -114t114 -303t-116 -304q-115 -115 -307 -115t-306 115t-115 303v486q0 197 114 311t310 113q238 0 363 -156q16 -20 -4 -35l-27 -22q-16 -16 -33 4
q-100 131 -280 131q-356 0 -357 -365v-229h2q100 180 344 180z" />
    <glyph glyph-name="seven" unicode="7" horiz-adv-x="1081" 
d="M1018 1253v-39q0 -18 -8 -32l-607 -1164q-10 -18 -28 -18h-43q-35 0 -19 29l613 1171h-723v-203q0 -25 -25 -24h-33q-25 0 -24 24v256q0 25 24 25h848q25 0 25 -25z" />
    <glyph glyph-name="eight" unicode="8" horiz-adv-x="1081" 
d="M542 633q-172 0 -268 -75t-96 -212t96 -215t268 -78q173 0 268 78t95 215t-96 212t-267 75zM870 966q0 122 -86 190t-244 69t-243 -69q-86 -70 -86 -191t87 -188t243 -67q157 0 243 68q86 66 86 188zM92 346q0 123 67 207t189 119v2q-223 70 -223 291q0 157 111 247
q112 90 306 90t304 -90t110 -247q0 -106 -58 -182q-59 -74 -163 -107v-2q123 -35 190 -120t66 -208q0 -174 -119 -272q-118 -98 -330 -98t-331 96q-119 98 -119 274z" />
    <glyph glyph-name="nine" unicode="9" horiz-adv-x="1081" 
d="M519 545q153 0 245 93t92 248t-91 247t-245 92t-246 -92q-90 -94 -90 -249t91 -247t244 -92zM522 1303q190 0 306 -115q114 -115 114 -303v-486q0 -197 -113 -311t-309 -113q-233 0 -364 156q-16 20 4 35l26 24q16 16 33 -6q99 -131 281 -131q356 0 356 365v229h-2
q-100 -180 -342 -180q-186 0 -300 114t-114 303t115 304q119 115 309 115z" />
    <glyph glyph-name="colon" unicode=":" horiz-adv-x="430" 
d="M215 801q-31 0 -51 20t-21 51q1 30 21 50t51 20t50 -19t19 -51t-19 -51q-19 -20 -50 -20zM284 47q0 -31 -19 -51t-50 -20t-51 20t-21 51q1 31 21 50t51 19t49 -20q20 -18 20 -49z" />
    <glyph glyph-name="semicolon" unicode=";" horiz-adv-x="430" 
d="M221 801q-31 0 -51 20t-20 51q0 30 20 50t51 20t50 -19t19 -51t-19 -51q-19 -20 -50 -20zM291 37q0 -135 -109 -221q-14 -8 -26 8t-2 26q55 51 65 136q-45 -6 -63 39t16 75t76 10q43 -20 43 -73z" />
    <glyph glyph-name="less" unicode="&#x3c;" horiz-adv-x="1081" 
d="M995 158v-31q0 -35 -28 -18l-863 419q-18 8 -18 29v29q0 20 18 28l863 420q29 16 28 -18v-31q0 -19 -18 -29l-795 -385l795 -385q18 -10 18 -28z" />
    <glyph glyph-name="equal" unicode="=" horiz-adv-x="1081" 
d="M977 305h-871q-25 0 -24 25v28q0 25 24 25h871q25 0 24 -25v-28q1 -25 -24 -25zM977 760h-871q-25 0 -24 24v29q0 25 24 25h871q25 0 24 -25v-29q1 -24 -24 -24z" />
    <glyph glyph-name="greater" unicode="&#x3e;" horiz-adv-x="1081" 
d="M84 985v31q0 35 29 18l862 -420q18 -8 18 -28v-29q0 -20 -18 -29l-862 -419q-29 -16 -29 18v31q0 18 18 28l795 385l-795 385q-18 10 -18 29z" />
    <glyph glyph-name="question" unicode="?" horiz-adv-x="913" 
d="M485 47q0 -31 -19 -51t-50 -20t-51 20t-21 51q0 31 20 50t52 19q31 0 49 -20q20 -18 20 -49zM473 1384q186 0 294 -95t107 -259q0 -119 -50 -199q-50 -79 -168 -151t-160 -133t-43 -150v-57q0 -25 -25 -25h-29q-25 0 -24 25v63q0 103 47 177t162 144q116 70 160 138
t44 182t-83 189q-84 74 -232 74q-221 0 -332 -201q-12 -23 -35 -10l-28 18q-20 10 -10 33q57 113 163 175q107 62 242 62z" />
    <glyph glyph-name="at" unicode="@" horiz-adv-x="1486" 
d="M725 279q94 0 153 62q58 62 58 177v88h-195q-209 0 -209 -164t193 -163zM795 1319q-295 0 -459 -196q-164 -195 -164 -531t161 -509t449 -173q205 0 363 102q23 12 31 -8l10 -20q10 -18 -6 -31q-152 -109 -400 -109q-319 0 -499 193q-181 193 -181 556t188 577t509 214
q274 0 432 -188t157 -502q0 -481 -251 -481q-141 0 -174 137h-3q-68 -137 -239 -137q-125 0 -193 61q-68 60 -68 168t73 169q73 60 202 61h203v26q0 130 -51 190t-157 60t-185 -76q-18 -14 -33 0l-14 15q-16 16 0 33q94 94 233 94q281 0 281 -295v-273q0 -78 32 -122t93 -45
q180 0 180 417q0 287 -137 455t-383 168z" />
    <glyph glyph-name="A" unicode="A" horiz-adv-x="1181" 
d="M598 1247l-297 -835h596l-297 835h-2zM135 0h-39q-31 0 -20 29l473 1310q8 20 29 21h47q20 0 28 -21l473 -1310q10 -29 -20 -29h-43q-20 0 -27 20l-110 312h-654l-110 -312q-6 -20 -27 -20z" />
    <glyph glyph-name="B" unicode="B" horiz-adv-x="1148" 
d="M268 651v-571h342q186 0 274 68q87 69 87 218q0 150 -87 218t-274 67h-342zM268 1280v-549h305q188 0 275 66q86 66 86 209q0 142 -86 208t-275 66h-305zM610 0h-405q-25 0 -25 25v1310q0 25 25 25h368q231 0 340 -84t109 -264q-1 -259 -234 -316v-2q270 -51 271 -336
q0 -184 -109 -271t-340 -87z" />
    <glyph glyph-name="C" unicode="C" horiz-adv-x="1093" 
d="M586 55q260 0 354 211q10 23 33 13l28 -15q25 -10 13 -33q-117 -256 -428 -256q-225 0 -342 125t-117 367v426q0 242 117 367t342 124q311 0 428 -256q12 -23 -13 -32l-28 -15q-23 -10 -33 13q-94 211 -354 211q-188 -1 -280 -107t-91 -326v-385q-1 -219 91 -325
t280 -107z" />
    <glyph glyph-name="D" unicode="D" horiz-adv-x="1208" 
d="M991 485v389q0 206 -94 306t-289 100h-340v-1200h340q195 0 289 99t94 306zM205 1360h405q469 0 469 -463v-434q0 -463 -469 -463h-405q-25 0 -25 25v1310q0 25 25 25z" />
    <glyph glyph-name="E" unicode="E" horiz-adv-x="1099" 
d="M268 1280v-553h621q25 0 24 -25v-30q0 -25 -24 -25h-621v-567h711q25 0 25 -25v-30q0 -25 -25 -25h-774q-25 0 -25 25v1310q0 25 25 25h774q25 0 25 -25v-30q0 -25 -25 -25h-711z" />
    <glyph glyph-name="F" unicode="F" horiz-adv-x="1024" 
d="M268 1280v-559h600q25 0 25 -25v-30q0 -25 -25 -25h-600v-616q0 -25 -24 -25h-39q-25 0 -25 25v1310q0 25 25 25h753q25 0 25 -25v-30q0 -25 -25 -25h-690z" />
    <glyph glyph-name="G" unicode="G" horiz-adv-x="1167" 
d="M1057 666v-197q0 -242 -118 -368t-346 -126t-347 125t-119 367v426q0 242 120 367t349 124q313 0 434 -256q10 -23 -12 -32l-29 -15q-23 -10 -33 13q-100 211 -360 211q-195 -1 -288 -107t-93 -328v-381q0 -221 93 -327t286 -107q377 0 377 437v118h-332q-25 0 -25 25v31
q0 25 25 24h393q25 1 25 -24z" />
    <glyph glyph-name="H" unicode="H" horiz-adv-x="1277" 
d="M1073 0h-39q-25 0 -24 25v622h-742v-622q0 -25 -24 -25h-39q-25 0 -25 25v1310q0 25 25 25h39q25 0 24 -25v-608h742v608q0 25 24 25h39q25 0 25 -25v-1310q0 -25 -25 -25z" />
    <glyph glyph-name="I" unicode="I" horiz-adv-x="448" 
d="M268 1335v-1310q0 -25 -24 -25h-39q-25 0 -25 25v1310q0 25 25 25h39q24 0 24 -25z" />
    <glyph glyph-name="J" unicode="J" horiz-adv-x="1056" 
d="M915 1335v-886q0 -231 -111 -353q-112 -121 -327 -121q-279 0 -411 232q-12 23 10 35l26 16q23 12 35 -8q109 -195 338 -195q180 -1 266 101t86 313v866q0 25 25 25h39q24 0 24 -25z" />
    <glyph glyph-name="K" unicode="K" horiz-adv-x="1107" 
d="M244 0h-39q-25 0 -25 25v1310q0 25 25 25h39q25 0 24 -25v-622l639 635q12 12 31 12h57q17 0 21 -9t-8 -22l-646 -639l668 -659q12 -11 8 -21t-20 -10h-64q-18 0 -30 12l-656 654v-641q1 -25 -24 -25z" />
    <glyph glyph-name="L" unicode="L" horiz-adv-x="1013" 
d="M973 55v-30q0 -25 -25 -25h-743q-25 0 -25 25v1310q0 25 25 25h39q25 0 24 -25v-1255h680q25 0 25 -25z" />
    <glyph glyph-name="M" unicode="M" horiz-adv-x="1654" 
d="M1450 0h-39q-25 0 -25 25v1212h-2l-514 -1219q-10 -18 -28 -18h-31q-20 0 -29 18l-514 1219h-2v-1212q0 -25 -24 -25h-37q-25 0 -25 25v1310q0 25 25 25h86q20 0 28 -19l508 -1212l506 1212q10 18 29 19h88q25 0 25 -25v-1310q0 -25 -25 -25z" />
    <glyph glyph-name="N" unicode="N" horiz-adv-x="1277" 
d="M1073 0h-45q-18 0 -29 16l-731 1196h-2v-1187q0 -25 -24 -25h-37q-25 0 -25 25v1310q0 25 25 25h53q18 0 29 -17l723 -1183h2v1175q0 25 24 25h37q25 0 25 -25v-1310q0 -25 -25 -25z" />
    <glyph glyph-name="O" unicode="O" horiz-adv-x="1191" 
d="M215 872v-385q0 -219 93 -325t288 -106t288 106t93 325v385q0 220 -93 326t-288 106t-288 -106q-93 -107 -93 -326zM127 467v426q0 242 120 367q120 124 349 124t349 -124t120 -367v-426q0 -242 -120 -367t-349 -125t-349 125t-120 367z" />
    <glyph glyph-name="P" unicode="P" horiz-adv-x="1101" 
d="M268 1280v-629h314q194 0 284 77t90 239q0 161 -91 237t-283 76h-314zM205 1360h377q238 0 350 -95t112 -299t-112 -299t-350 -96h-314v-546q0 -25 -24 -25h-39q-25 0 -25 25v1310q0 25 25 25z" />
    <glyph glyph-name="Q" unicode="Q" horiz-adv-x="1191" 
d="M215 872v-385q0 -219 93 -325t288 -106t288 106t93 325v385q0 220 -93 326t-288 106t-288 -106q-93 -107 -93 -326zM596 -25q-229 0 -349 125t-120 367v426q0 242 120 367q120 124 349 124t349 -124t120 -367v-426q0 -430 -367 -485q6 -223 207 -224q84 0 162 60
q21 14 35 -6l16 -25q12 -16 -4 -33q-88 -74 -217 -74t-205 76t-82 219h-14z" />
    <glyph glyph-name="R" unicode="R" horiz-adv-x="1161" 
d="M268 1280v-627h299q195 0 287 76t92 238q0 161 -92 237t-287 76h-299zM268 573v-548q0 -25 -24 -25h-39q-25 0 -25 25v1310q0 25 25 25h362q240 0 354 -96t113 -297q0 -338 -336 -385l359 -551q20 -31 -17 -31h-53q-18 0 -29 16l-354 557h-336z" />
    <glyph glyph-name="S" unicode="S" horiz-adv-x="1034" 
d="M537 1384q276 0 401 -180q14 -20 -4 -37l-27 -20q-20 -14 -37 8q-100 150 -331 150q-152 0 -245 -81t-93 -210t83 -196q84 -68 298 -104t308 -118t93 -250q0 -168 -116 -269t-306 -102q-315 0 -465 211q-12 18 6 33l25 23q18 16 35 -6q131 -180 397 -181q152 0 245 81
t93 210q0 128 -80 192q-79 64 -295 99t-312 121q-95 86 -95 254t114 270q120 102 308 102z" />
    <glyph glyph-name="T" unicode="T" horiz-adv-x="976" 
d="M911 1280h-379v-1255q0 -25 -24 -25h-39q-25 0 -25 25v1255h-378q-25 0 -25 25v30q0 25 25 25h845q25 0 25 -25v-30q0 -25 -25 -25z" />
    <glyph glyph-name="U" unicode="U" horiz-adv-x="1204" 
d="M1049 1335v-886q0 -231 -114 -353t-333 -121q-219 0 -333 121t-113 353v886q0 25 24 25h39q25 0 25 -25v-866q0 -211 88 -312t270 -101t271 100q89 102 90 313v866q0 25 24 25h37q25 0 25 -25z" />
    <glyph glyph-name="V" unicode="V" horiz-adv-x="1144" 
d="M604 0h-43q-23 0 -29 23l-456 1308q-10 29 20 29h43q20 0 27 -21l418 -1210h2l415 1210q6 20 27 21h41q31 0 21 -29l-457 -1308q-6 -23 -29 -23z" />
    <glyph glyph-name="W" unicode="W" horiz-adv-x="1736" 
d="M1278 0h-47q-25 0 -31 23l-323 1163h-3l-325 -1163q-6 -23 -31 -23h-47q-25 0 -31 23l-366 1310q-6 27 20 27h43q23 0 29 -21l330 -1196h2l331 1194q6 23 31 23h31q25 0 31 -23l333 -1194h2l328 1196q6 20 29 21h41q27 0 20 -27l-366 -1310q-6 -23 -31 -23z" />
    <glyph glyph-name="X" unicode="X" horiz-adv-x="1122" 
d="M172 0h-47q-35 0 -16 29l415 665l-397 637q-18 29 16 29h54q18 0 28 -17l357 -579l354 579q10 16 29 17h49q35 0 16 -29l-395 -635l416 -667q18 -29 -17 -29h-53q-19 0 -29 16l-374 613l-377 -613q-10 -16 -29 -16z" />
    <glyph glyph-name="Y" unicode="Y" horiz-adv-x="1042" 
d="M559 0h-39q-25 0 -24 25v583l-449 723q-18 29 16 29h52q18 0 28 -17l400 -649l395 649q10 16 29 17h49q35 0 16 -29l-448 -723v-583q0 -25 -25 -25z" />
    <glyph glyph-name="Z" unicode="Z" horiz-adv-x="1052" 
d="M944 0h-838q-25 0 -24 25v43q0 16 8 30l764 1182h-717q-25 0 -24 25v30q0 25 24 25h797q25 0 24 -25v-43q0 -16 -8 -30l-766 -1182h760q25 0 25 -25v-30q0 -25 -25 -25z" />
    <glyph glyph-name="bracketleft" unicode="[" horiz-adv-x="638" 
d="M283 1288v-1401h243q25 0 25 -24v-23q0 -25 -25 -24h-303q-25 0 -24 24v1495q0 25 24 25h303q25 0 25 -25v-22q0 -25 -25 -25h-243z" />
    <glyph glyph-name="backslash" unicode="\" horiz-adv-x="710" 
d="M94 1360h31q23 0 29 -19l503 -1312q10 -29 -20 -29h-31q-23 0 -28 18l-504 1313q-11 29 20 29z" />
    <glyph glyph-name="bracketright" unicode="]" horiz-adv-x="638" 
d="M356 -113v1401h-243q-25 0 -25 25v22q0 25 25 25h303q25 0 24 -25v-1495q0 -25 -24 -24h-303q-25 0 -25 24v23q0 25 25 24h243z" />
    <glyph glyph-name="asciicircum" unicode="^" horiz-adv-x="1081" 
d="M94 528q-35 0 -16 29l434 703q12 18 31 18h35q18 0 30 -18l434 -703q18 -29 -16 -29h-39q-19 1 -29 17l-399 645l-399 -645q-10 -16 -29 -17h-37z" />
    <glyph glyph-name="underscore" unicode="_" horiz-adv-x="1024" 
d="M1024 -193h-1024v58h1024v-58z" />
    <glyph glyph-name="grave" unicode="`" horiz-adv-x="1024" 
d="M547 1161h-33q-14 0 -27 15l-180 254q-18 31 17 30h41q18 0 28 -16l168 -256q8 -10 4 -18t-18 -9z" />
    <glyph glyph-name="a" unicode="a" horiz-adv-x="923" 
d="M436 51q150 0 218 79t69 247v119h-266q-137 0 -210 -58t-73 -166q0 -221 262 -221zM442 1030q365 0 365 -383v-289q0 -383 -371 -383q-166 0 -256 78t-90 219q0 140 93 220t263 79h277v56q0 167 -70 247q-69 80 -219 80t-241 -102q-16 -16 -35 0l-21 20q-14 16 0 37
q125 121 305 121z" />
    <glyph glyph-name="b" unicode="b" horiz-adv-x="997" 
d="M797 377v254q0 166 -69 245t-214 78q-283 0 -283 -323v-254q0 -168 69 -247t214 -79t214 79t69 247zM522 1030q358 0 359 -381v-291q1 -188 -93 -285t-274 -97t-273 96q-93 98 -94 286v1051q0 25 25 25h35q25 0 24 -25v-530h2q78 151 289 151z" />
    <glyph glyph-name="c" unicode="c" horiz-adv-x="843" 
d="M201 379q1 -328 285 -328q142 0 237 103q17 20 35 2l20 -23q16 -16 0 -35q-117 -123 -295 -123q-178 1 -272 99t-94 286v287q0 383 362 383q180 0 283 -104q16 -16 0 -35l-19 -21q-23 -23 -36 0q-85 84 -227 84t-211 -80t-68 -247v-248z" />
    <glyph glyph-name="d" unicode="d" horiz-adv-x="997" 
d="M766 377v254q0 324 -283 323q-145 0 -214 -78t-68 -245v-254q1 -168 69 -247t213 -79t214 79t69 247zM850 1409v-1051q0 -188 -93 -285t-273 -97t-274 96q-93 98 -93 286v291q0 381 358 381q209 0 289 -149h2v528q0 25 25 25h34q25 0 25 -25z" />
    <glyph glyph-name="e" unicode="e" horiz-adv-x="927" 
d="M201 551h553v80q0 168 -67 246q-67 77 -210 77t-210 -78t-66 -245v-80zM117 649q0 381 359 381t360 -381v-149q0 -25 -25 -25h-610v-96q-1 -170 73 -249t224 -79t254 115q18 20 36 2l19 -21q16 -16 2 -34q-123 -137 -307 -138q-385 0 -385 385v289z" />
    <glyph glyph-name="f" unicode="f" horiz-adv-x="647" 
d="M504 1382q-217 0 -217 -262v-114h336q25 0 24 -25v-27q0 -25 -24 -24h-336v-905q0 -25 -25 -25h-35q-25 0 -24 25v905h-140q-25 0 -24 24v27q0 25 24 25h140v124q0 158 77 243t206 85t210 -49q23 -12 9 -33l-15 -24q-12 -20 -31 -9q-59 39 -155 39z" />
    <glyph glyph-name="g" unicode="g" horiz-adv-x="997" 
d="M483 78q283 0 283 325v226q0 168 -69 247q-69 78 -214 78t-214 -78t-68 -247v-226q1 -169 69 -247t213 -78zM850 647v-651q0 -162 -97 -255t-282 -93t-311 121q-16 16 -2 34l20 25q16 18 35 0q111 -104 260 -104t221 76t72 214v140h-2q-78 -152 -289 -152
q-358 0 -358 381v264q0 187 93 285t273 98t274 -97q93 -98 93 -286z" />
    <glyph glyph-name="h" unicode="h" horiz-adv-x="1026" 
d="M528 1030q350 0 351 -373v-632q0 -25 -25 -25h-35q-25 0 -24 25v614q0 162 -68 239t-209 76q-274 0 -274 -315v-614q0 -25 -25 -25h-35q-25 0 -24 25v1384q0 25 24 25h35q25 0 25 -25v-524h2q77 145 282 145z" />
    <glyph glyph-name="i" unicode="i" horiz-adv-x="401" 
d="M219 0h-35q-25 0 -24 25v956q0 25 24 25h35q25 0 25 -25v-956q0 -25 -25 -25zM201 1225q-29 0 -49 18q-18 20 -19 49q0 29 19 47q47 47 95 -1t1 -95q-18 -18 -47 -18z" />
    <glyph glyph-name="j" unicode="j" horiz-adv-x="401" 
d="M201 1225q-29 0 -49 18q-18 20 -19 49q0 29 19 47q47 47 95 -1t1 -95q-18 -18 -47 -18zM-18 -252h2q176 0 176 193v1040q0 25 24 25h35q25 0 25 -25v-1040q0 -268 -252 -269h-10q-25 0 -25 25v27q0 24 25 24z" />
    <glyph glyph-name="k" unicode="k" horiz-adv-x="866" 
d="M244 25q0 -25 -25 -25h-35q-25 0 -24 25v1384q0 25 24 25h35q25 0 25 -25v-872l454 456q12 12 31 13h55q16 0 20 -10t-7 -21l-465 -461l487 -483q12 -11 8 -21t-20 -10h-57q-19 0 -31 12l-475 477v-464z" />
    <glyph glyph-name="l" unicode="l" horiz-adv-x="401" 
d="M219 0h-35q-25 0 -24 25v1384q0 25 24 25h35q25 0 25 -25v-1384q0 -25 -25 -25z" />
    <glyph glyph-name="m" unicode="m" horiz-adv-x="1562" 
d="M1077 1030q166 0 252 -94t86 -274v-637q0 -25 -24 -25h-35q-25 0 -25 25v618q0 160 -62 236q-61 75 -193 75t-192 -76t-61 -235v-618q0 -25 -24 -25h-35q-25 0 -25 25v618q0 160 -62 236q-63 75 -193 75t-191 -76t-62 -235v-618q0 -25 -24 -25h-35q-25 0 -25 25v637
q0 180 84 274t248 94q229 0 301 -176h2q66 176 295 176z" />
    <glyph glyph-name="n" unicode="n" horiz-adv-x="1015" 
d="M784 25v614q0 162 -66 239q-67 76 -209 76t-210 -76t-68 -239v-614q0 -25 -24 -25h-35q-25 0 -25 25v632q1 185 93 279t268 94t268 -94t92 -279v-632q0 -25 -24 -25h-35q-25 0 -25 25z" />
    <glyph glyph-name="o" unicode="o" horiz-adv-x="966" 
d="M766 377v254q0 166 -69 245q-69 78 -214 78t-214 -78t-68 -245v-254q1 -168 69 -247t213 -79t214 79t69 247zM850 649v-293q0 -186 -93 -283t-273 -97t-274 96q-93 98 -93 284v293q1 381 367 381t366 -381z" />
    <glyph glyph-name="p" unicode="p" horiz-adv-x="997" 
d="M797 377v252q0 168 -69 247q-69 78 -214 78t-214 -78t-69 -247v-252q0 -326 283 -326q145 0 214 79t69 247zM881 647v-291q0 -381 -359 -381q-211 0 -289 152h-2v-430q0 -25 -24 -25h-35q-25 0 -25 25v950q-1 187 93 285t274 98t274 -98t93 -285z" />
    <glyph glyph-name="q" unicode="q" horiz-adv-x="997" 
d="M201 629v-252q1 -168 69 -247t213 -79q283 0 283 326v252q0 168 -69 247q-69 78 -214 78t-214 -78q-68 -79 -68 -247zM850 647v-950q0 -25 -25 -25h-34q-25 0 -25 25v430h-2q-78 -152 -289 -152q-358 0 -358 381v291q0 187 93 285t273 98t274 -97q93 -98 93 -286z" />
    <glyph glyph-name="r" unicode="r" horiz-adv-x="739" 
d="M147 25v659q0 346 318 346q137 0 225 -69q20 -12 4 -35l-16 -23q-12 -20 -35 -4q-69 55 -183 55t-171 -68t-58 -218v-643q0 -25 -24 -25h-35q-25 0 -25 25z" />
    <glyph glyph-name="s" unicode="s" horiz-adv-x="841" 
d="M459 -25q-236 0 -363 134q-16 16 0 34l19 21q16 18 35 0q106 -113 303 -113q121 1 189 57t67 154t-63 146t-227 68q-165 22 -237 82t-72 188t94 206q93 78 262 78t284 -96q16 -16 2 -35l-15 -20q-16 -25 -39 -2q-90 77 -226 77t-207 -56t-71 -150t59 -135q59 -42 189 -59
t202 -46q72 -28 109 -84q36 -56 40 -160q-1 -133 -91 -211t-243 -78z" />
    <glyph glyph-name="t" unicode="t" horiz-adv-x="714" 
d="M203 930h-140q-25 0 -24 24v27q0 25 24 25h140v254q0 25 24 24h35q25 0 25 -24v-254h336q25 0 24 -25v-27q0 -25 -24 -24h-336v-656q0 -223 198 -223q74 0 144 45q21 15 33 -8l12 -22q8 -18 -8 -35q-80 -55 -201 -55t-192 74q-71 75 -70 214v666z" />
    <glyph glyph-name="u" unicode="u" horiz-adv-x="1003" 
d="M856 981v-639q0 -180 -90 -273t-264 -93t-264 92q-90 94 -91 274v639q0 25 25 25h35q25 0 24 -25v-621q0 -160 66 -234t205 -75q139 0 206 75t66 234v621q0 25 25 25h32q25 0 25 -25z" />
    <glyph glyph-name="v" unicode="v" horiz-adv-x="903" 
d="M481 0h-39q-20 0 -30 23l-353 954q-10 29 21 29h43q23 0 29 -23l311 -864h2l311 864q6 23 27 23h41q31 0 20 -29l-352 -954q-11 -23 -31 -23z" />
    <glyph glyph-name="w" unicode="w" horiz-adv-x="1384" 
d="M1030 0h-47q-23 0 -29 23l-249 823h-3l-251 -823q-6 -23 -29 -23h-47q-23 0 -29 23l-285 954q-10 29 21 29h41q23 0 29 -21l247 -850h2l258 848q6 23 29 23h33q23 0 29 -23l258 -848h2l247 850q6 20 27 21h39q31 0 20 -29l-284 -954q-6 -23 -29 -23z" />
    <glyph glyph-name="x" unicode="x" horiz-adv-x="919" 
d="M137 0h-41q-31 0 -14 31l326 489l-304 455q-16 31 15 31h47q18 0 29 -17l270 -414l272 414q10 16 29 17h41q37 0 16 -31l-305 -455l328 -489q16 -31 -15 -31h-49q-18 0 -28 16l-293 447l-295 -447q-10 -16 -29 -16z" />
    <glyph glyph-name="y" unicode="y" horiz-adv-x="1026" 
d="M868 981v-985q0 -162 -97 -255t-281 -93t-312 121q-16 16 0 34l19 23q16 18 34 0q115 -102 261 -102t220 74q73 74 72 216v133h-2q-78 -145 -284 -145q-172 0 -261 95t-90 278v606q0 25 25 25h35q25 0 24 -25v-586q0 -165 68 -241t209 -76q276 0 276 317v586q0 25 25 25
h35q24 0 24 -25z" />
    <glyph glyph-name="z" unicode="z" horiz-adv-x="856" 
d="M754 0h-652q-25 0 -24 25v36q0 16 10 33l578 836h-533q-25 0 -24 24v27q0 25 24 25h610q25 0 25 -25v-39q0 -16 -10 -33l-582 -833h578q25 0 24 -25v-26q1 -25 -24 -25z" />
    <glyph glyph-name="braceleft" unicode="{" horiz-adv-x="659" 
d="M344 1087v-276q0 -184 -129 -221v-2q129 -37 129 -223v-277q0 -109 47 -155t156 -46q25 0 24 -24v-23q0 -25 -24 -24h-8q-145 0 -212 62t-67 202v299q0 172 -141 172q-25 0 -25 24v25q0 25 25 25q141 0 141 172v299q0 139 67 201t212 63h8q25 0 24 -25v-22q0 -25 -24 -25
q-109 0 -156 -46t-47 -155z" />
    <glyph glyph-name="bar" unicode="|" horiz-adv-x="540" 
d="M285 -328h-29q-23 0 -23 23v1716q0 23 23 23h29q23 0 22 -23v-1716q1 -23 -22 -23z" />
    <glyph glyph-name="braceright" unicode="}" horiz-adv-x="659" 
d="M315 88v277q0 184 129 221v2q-129 37 -129 223v276q0 109 -47 155t-155 46q-25 0 -25 25v22q0 25 25 25h8q145 0 212 -62t66 -202v-299q0 -172 142 -172q25 0 24 -25v-25q0 -25 -24 -24q-141 0 -142 -172v-299q0 -139 -66 -202q-67 -62 -212 -62h-8q-25 0 -25 24v23
q0 25 25 24q109 0 155 46t47 155z" />
    <glyph glyph-name="asciitilde" unicode="~" horiz-adv-x="1081" 
d="M334 610q-119 0 -209 -141q-12 -23 -33 -10l-26 16q-20 14 -9 33q113 180 273 180q114 0 234 -80t197 -80t125 32t97 110q14 20 33 8l24 -14q20 -14 9 -35q-115 -178 -273 -178q-118 -1 -236 79t-206 80z" />
    <glyph glyph-name="uni00A0" unicode="&#xa0;" horiz-adv-x="440" 
 />
    <glyph glyph-name="exclamdown" unicode="&#xa1;" horiz-adv-x="434" 
d="M217 1384q31 0 51 -20t20 -51t-20 -50t-51 -19t-51 18q-18 20 -19 51q1 31 19 51q20 20 51 20zM176 25v591l17 412q0 16 16 16h16q16 0 17 -16l18 -412v-591q0 -25 -24 -25h-35q-25 0 -25 25z" />
    <glyph glyph-name="cent" unicode="&#xa2;" horiz-adv-x="1081" 
d="M276 651v-215q0 -168 71 -252t222 -92v905q-153 -6 -223 -90t-70 -256zM647 -121q0 -23 -22 -22h-33q-23 0 -23 22v137q-377 14 -376 404v254q0 387 376 399v125q0 23 23 23h33q23 0 22 -23v-127q168 -16 260 -108q18 -18 2 -35l-20 -23q-16 -18 -35 0q-78 78 -207 90
v-901q127 8 223 109q17 18 35 0l21 -23q16 -16 0 -35q-111 -111 -279 -127v-139z" />
    <glyph glyph-name="sterling" unicode="&#xa3;" horiz-adv-x="1081" 
d="M266 940q0 -96 62 -227l37 -86h426q25 0 24 -25v-27q0 -25 -24 -24h-404q12 -51 12 -119q0 -201 -131 -352v-2h658q25 0 24 -25v-28q0 -25 -24 -25h-731q-25 0 -25 25v28q0 18 12 31q189 204 121 467h-139q-25 0 -25 24v27q0 25 25 25h115q-20 51 -29 63q-70 137 -70 260
q0 162 110 257t294 96q260 -1 385 -175q12 -20 -6 -34l-27 -21q-18 -16 -35 6q-96 145 -313 146q-152 0 -237 -76t-85 -209z" />
    <glyph glyph-name="currency" unicode="&#xa4;" horiz-adv-x="1081" 
d="M558 344q124 0 207 82t83 207t-84 209t-206 84t-205 -83t-83 -209t82 -208t206 -82zM918 632q0 -130 -78 -226l153 -154q16 -16 0 -33l-18 -20q-16 -16 -33 0l-156 153q-100 -78 -229 -78t-229 78l-154 -153q-16 -16 -33 0l-20 20q-16 16 0 33l153 154q-78 96 -78 228
t78 228l-153 154q-16 16 0 33l20 20q16 16 33 0l154 -154q94 80 229 80t231 -80l154 154q16 16 33 0l20 -20q16 -16 -2 -33l-153 -154q78 -100 78 -230z" />
    <glyph glyph-name="yen" unicode="&#xa5;" horiz-adv-x="1081" 
d="M918 647q25 0 24 -24v-25q0 -25 -24 -25h-330v-213h327q25 0 25 -24v-25q0 -25 -25 -24h-327v-262q0 -25 -25 -25h-37q-25 0 -24 25v262h-336q-25 0 -25 24v25q0 25 25 24h336v213h-334q-25 0 -25 25v25q0 25 25 24h321l-395 600q-16 31 15 31h47q18 0 28 -16l363 -564
l362 564q10 16 29 16h47q30 0 14 -31l-397 -600h316z" />
    <glyph glyph-name="brokenbar" unicode="&#xa6;" horiz-adv-x="540" 
d="M285 -328h-29q-23 0 -23 23v672q0 23 23 22h29q23 0 22 -22v-672q1 -23 -22 -23zM285 717h-29q-23 0 -23 22v672q0 23 23 23h29q23 0 22 -23v-672q1 -22 -22 -22z" />
    <glyph glyph-name="section" unicode="&#xa7;" horiz-adv-x="1144" 
d="M205 546q0 -116 80 -174t282 -83l84 -10q135 16 213 90q78 73 78 189t-80 173t-289 82l-88 10q-131 -17 -205 -89t-75 -188zM991 -16q-1 -152 -111 -244t-296 -92q-301 0 -445 186q-16 20 4 35l23 18q20 14 35 -4q125 -162 381 -162q152 0 240 71t89 186q1 116 -77 166
t-296 70t-316 96q-99 77 -99 235q0 109 59 187t168 118v2q-98 35 -147 97t-49 173q0 152 111 244q112 92 298 92q264 0 387 -162q12 -18 -6 -34l-22 -19q-18 -16 -35 6q-104 135 -324 135q-151 0 -239 -70t-88 -187q0 -116 78 -169t296 -72q216 -19 314 -94t98 -231
q0 -109 -62 -189t-172 -120v-2q203 -66 203 -266z" />
    <glyph glyph-name="dieresis" unicode="&#xa8;" horiz-adv-x="1024" 
d="M678 1227q-35 0 -54 19q-20 19 -20 54q0 36 41 54t73 -14t14 -72t-54 -41zM420 1300q0 -74 -75 -73q-36 0 -53 41q-16 40 16 72t72 14t40 -54z" />
    <glyph glyph-name="copyright" unicode="&#xa9;" horiz-adv-x="1589" 
d="M793 1008q-188 0 -189 -222v-213q0 -221 189 -221q119 0 180 101q14 20 31 10l18 -10q18 -10 6 -31q-72 -133 -235 -133q-260 0 -261 272v238q0 272 261 272q162 0 235 -133q12 -23 -8 -31l-19 -10q-23 -8 -30 6q-53 105 -178 105zM160 680q0 -271 182 -456t452 -185
t453 185q183 186 183 456t-182 456t-453 185q-270 0 -453 -184q-182 -186 -182 -457zM1499 681q0 -302 -202 -504q-201 -202 -501 -202t-505 201q-201 205 -201 505t202 502q202 201 504 201t500 -202q203 -199 203 -501z" />
    <glyph glyph-name="ordfeminine" unicode="&#xaa;" horiz-adv-x="706" 
d="M139 723q1 -78 51 -121t152 -43t151 57q50 57 50 183v86h-195q-209 0 -209 -162zM336 1303q285 0 285 -297v-222q0 -295 -289 -295q-129 -1 -200 61t-71 171t73 170t204 61h205v37q0 127 -51 185t-163 59q-112 0 -182 -74q-18 -18 -32 0l-17 21q-16 16 2 32
q103 91 236 91z" />
    <glyph glyph-name="guillemotleft" unicode="&#xab;" horiz-adv-x="808" 
d="M362 121h-28q-18 0 -29 16l-225 350q-10 16 0 33l225 348q10 16 29 17h28q35 0 17 -29l-227 -352l227 -354q18 -29 -17 -29zM707 121h-29q-18 0 -29 16l-225 350q-10 16 0 33l225 348q10 16 29 17h29q34 0 16 -29l-227 -352l227 -354q18 -29 -16 -29z" />
    <glyph glyph-name="logicalnot" unicode="&#xac;" horiz-adv-x="1081" 
d="M1038 723v-487q0 -25 -24 -25h-29q-25 0 -24 25v434h-893q-25 0 -25 24v29q0 25 25 25h946q24 0 24 -25z" />
    <glyph glyph-name="uni00AD" unicode="&#xad;" horiz-adv-x="669" 
d="M584 514h-498q-25 0 -25 25v32q0 25 25 25h498q25 0 24 -25v-32q1 -25 -24 -25z" />
    <glyph glyph-name="registered" unicode="&#xae;" horiz-adv-x="1589" 
d="M647 993v-317h152q193 0 192 162q0 82 -47 118t-145 37h-152zM1061 836q0 -182 -176 -218l182 -288q14 -27 -16 -27h-33q-20 0 -29 14l-178 295h-164v-286q0 -23 -22 -23h-27q-23 0 -23 23v708q0 23 23 23h201q262 0 262 -221zM160 680q0 -271 182 -456t452 -185t453 185
q183 186 183 456t-182 456t-453 185q-270 0 -453 -184q-182 -186 -182 -457zM1499 681q0 -302 -202 -504q-201 -202 -501 -202t-505 201q-201 205 -201 505t202 502q202 201 504 201t500 -202q203 -199 203 -501z" />
    <glyph glyph-name="overscore" unicode="&#xaf;" horiz-adv-x="1024" 
d="M766 1298v-24q0 -25 -25 -25h-456q-25 0 -25 25v24q0 25 25 25h456q25 0 25 -25z" />
    <glyph glyph-name="degree" unicode="&#xb0;" horiz-adv-x="714" 
d="M569 1013q0 93 -60 154q-61 61 -151 61t-151 -60q-61 -62 -61 -155t60 -155q62 -62 152 -61q90 0 151 61q60 62 60 155zM357 723q-125 0 -207 82t-82 207t83 208t207 83t206 -83q83 -83 83 -208t-82 -207t-208 -82z" />
    <glyph glyph-name="plusminus" unicode="&#xb1;" horiz-adv-x="1081" 
d="M86 78h909q25 0 25 -25v-28q0 -25 -25 -25h-909q-25 0 -25 25v28q0 25 25 25zM1020 653v-28q0 -25 -25 -25h-415v-391q0 -25 -25 -25h-29q-25 0 -24 25v391h-416q-25 0 -25 25v28q0 25 25 25h416v389q0 25 24 25h29q25 0 25 -25v-389h415q25 0 25 -25z" />
    <glyph glyph-name="twosuperior" unicode="&#xb2;" 
d="M598 786v-20q0 -23 -23 -23h-448q-23 0 -23 23v22q0 16 13 29l307 313q100 100 100 197q0 156 -174 156q-121 0 -184 -107q-8 -20 -31 -8l-18 12q-18 12 -8 31q80 137 243 137q116 0 180 -58t64 -163q0 -68 -25 -120t-92 -120l-274 -278h370q23 0 23 -23z" />
    <glyph glyph-name="threesuperior" unicode="&#xb3;" 
d="M362 795q94 0 146 44q51 44 51 124q0 162 -211 161h-59q-23 0 -23 23v20q0 23 23 23h53q199 0 199 143q0 72 -48 111t-137 39q-121 0 -188 -86q-16 -18 -33 -2l-14 12q-16 16 -4 31q88 111 243 110q117 0 185 -56t67 -157q0 -135 -129 -174v-2q147 -43 148 -198
q0 -111 -70 -171t-194 -61q-170 0 -258 111q-12 16 2 30l16 17q16 18 33 -4q70 -88 202 -88z" />
    <glyph glyph-name="acute" unicode="&#xb4;" horiz-adv-x="1024" 
d="M485 1161q-14 0 -18 8t4 19l168 256q10 16 29 16h41q34 1 16 -30l-180 -254q-12 -14 -27 -15h-33z" />
    <glyph glyph-name="uni00B5" unicode="&#xb5;" horiz-adv-x="1026" 
d="M879 981v-633q0 -182 -89 -277t-262 -96q-205 0 -282 146h-2v-424q0 -25 -25 -25h-35q-25 0 -24 25v1284q0 25 24 25h35q25 0 25 -25v-612q0 -317 274 -318q141 0 209 77t68 241v612q0 25 24 25h35q25 0 25 -25z" />
    <glyph glyph-name="paragraph" unicode="&#xb6;" horiz-adv-x="1150" 
d="M975 1411v-1716q0 -23 -23 -23h-28q-23 0 -23 23v1665h-313v-1665q0 -23 -23 -23h-28q-23 0 -23 23v950q-238 0 -352 95t-113 299q0 204 113 299t352 96h438q23 0 23 -23z" />
    <glyph glyph-name="middot" unicode="&#xb7;" horiz-adv-x="430" 
d="M284 639q0 -31 -19 -51t-50 -20t-51 20t-21 51q1 31 21 50t51 19t49 -20q20 -18 20 -49z" />
    <glyph glyph-name="cedilla" unicode="&#xb8;" horiz-adv-x="1024" 
d="M505 -352q-87 0 -145 39q-16 12 -6 30l11 19q8 20 30 8q53 -33 113 -33q102 0 102 68q-4 66 -121 65h-6q-25 0 -18 25l29 135h63l-25 -115q147 -4 148 -112q0 -61 -44 -95t-131 -34z" />
    <glyph glyph-name="onesuperior" unicode="&#xb9;" 
d="M504 1511v-745q0 -23 -23 -23h-26q-23 0 -23 23v672l-186 -140q-18 -14 -31 5l-12 16q-12 18 6 33l227 172q14 10 29 10h16q23 0 23 -23z" />
    <glyph glyph-name="ordmasculine" unicode="&#xba;" horiz-adv-x="745" 
d="M580 799v192q0 125 -50 183t-157 59q-107 0 -157 -58t-50 -184v-192q0 -125 50 -183t156 -57q106 -1 158 57q50 58 50 183zM657 1008v-224q-1 -295 -285 -295t-284 295v224q0 295 284 295t285 -295z" />
    <glyph glyph-name="guillemotright" unicode="&#xbb;" horiz-adv-x="808" 
d="M131 885h29q18 0 28 -17l226 -350q10 -16 0 -33l-226 -348q-10 -16 -28 -16h-29q-34 0 -16 29l227 352l-227 354q-18 29 16 29zM475 885h29q18 0 28 -17l226 -350q10 -16 0 -33l-226 -348q-10 -16 -28 -16h-29q-34 0 -16 29l227 352l-227 354q-18 29 16 29z" />
    <glyph glyph-name="onequarter" unicode="&#xbc;" horiz-adv-x="1617" 
d="M1300 1278h31q15 0 19 -8t-4 -19l-811 -1237q-8 -14 -29 -14h-31q-14 0 -18 8t4 19l811 1237q8 14 28 14zM504 1255v-745q0 -23 -23 -23h-26q-23 0 -23 23v672l-186 -140q-18 -14 -31 5l-12 16q-12 18 6 33l227 172q14 10 29 10h16q23 0 23 -23zM1423 254v428h-2
l-321 -428h323zM1569 188h-74v-165q0 -23 -22 -23h-27q-23 0 -23 23v165h-381q-23 0 -22 23v31q0 14 10 28l381 506q12 14 27 15h35q23 0 22 -23v-514h74q23 0 22 -23v-20q1 -23 -22 -23z" />
    <glyph glyph-name="onehalf" unicode="&#xbd;" horiz-adv-x="1617" 
d="M1219 1278h30q15 0 19 -8t-4 -19l-811 -1237q-8 -14 -29 -14h-31q-14 0 -18 8t4 19l811 1237q8 14 29 14zM504 1255v-745q0 -23 -23 -23h-26q-23 0 -23 23v672l-186 -140q-18 -14 -31 5l-12 16q-12 18 6 33l227 172q14 10 29 10h16q23 0 23 -23zM1546 43v-20
q0 -23 -22 -23h-449q-23 0 -22 23v22q0 16 12 29l307 313q100 100 101 197q0 156 -175 155q-121 0 -184 -106q-8 -20 -31 -8l-18 12q-18 12 -8 31q80 137 243 137q115 -1 180 -59t64 -162q0 -68 -24 -120t-93 -120l-274 -278h371q22 0 22 -23z" />
    <glyph glyph-name="threequarters" unicode="&#xbe;" horiz-adv-x="1617" 
d="M1317 1278h31q14 0 18 -8t-4 -19l-811 -1237q-8 -14 -29 -14h-30q-14 0 -19 8q-4 9 4 19l811 1237q8 14 29 14zM362 539q94 0 146 44q51 44 51 124q0 162 -211 161h-59q-23 0 -23 23v20q0 23 23 23h53q199 0 199 143q0 72 -48 111t-137 39q-121 0 -188 -86
q-16 -18 -33 -2l-14 12q-16 16 -4 31q88 111 243 110q117 0 185 -56t67 -157q0 -133 -129 -174v-2q147 -43 148 -198q0 -111 -70 -171t-194 -61q-170 0 -258 111q-12 16 2 30l16 17q16 16 33 -4q70 -88 202 -88zM1423 254v428h-2l-321 -428h323zM1569 188h-74v-165
q0 -23 -22 -23h-27q-23 0 -23 23v165h-381q-23 0 -22 23v31q0 14 10 28l381 506q12 14 27 15h35q23 0 22 -23v-514h74q23 0 22 -23v-20q1 -23 -22 -23z" />
    <glyph glyph-name="questiondown" unicode="&#xbf;" horiz-adv-x="913" 
d="M508 1384q31 0 51 -20q21 -20 21 -51t-20 -50t-52 -19q-31 0 -51 18q-18 20 -19 51q1 31 19 51q20 20 51 20zM451 -25q-186 -1 -294 95t-108 260q0 118 50 198t168 152t161 133t43 150v57q0 25 25 24h28q25 0 25 -24v-64q0 -104 -47 -177t-162 -143t-160 -138t-45 -182
t84 -189q84 -74 232 -74q221 0 331 201q12 23 35 10l29 -18q20 -10 10 -33q-58 -113 -164 -175t-241 -63z" />
    <glyph glyph-name="Agrave" unicode="&#xc0;" horiz-adv-x="1181" 
d="M631 1503h-33q-14 0 -27 15l-180 254q-18 31 17 30h41q18 0 28 -16l168 -256q8 -10 4 -18t-18 -9zM598 1247l-297 -835h596l-297 835h-2zM135 0h-39q-31 0 -20 29l473 1310q8 20 29 21h47q20 0 28 -21l473 -1310q10 -29 -20 -29h-43q-20 0 -27 20l-110 312h-654
l-110 -312q-6 -20 -27 -20z" />
    <glyph glyph-name="Aacute" unicode="&#xc1;" horiz-adv-x="1181" 
d="M569 1503q-14 0 -18 8t4 19l168 256q10 16 29 16h41q34 1 16 -30l-180 -254q-12 -14 -27 -15h-33zM598 1247l-297 -835h596l-297 835h-2zM135 0h-39q-31 0 -20 29l473 1310q8 20 29 21h47q20 0 28 -21l473 -1310q10 -29 -20 -29h-43q-20 0 -27 20l-110 312h-654
l-110 -312q-6 -20 -27 -20z" />
    <glyph glyph-name="Acircumflex" unicode="&#xc2;" horiz-adv-x="1181" 
d="M389 1503q-14 0 -18 8t4 19l176 256q10 16 29 16h36q18 0 29 -16l178 -256q8 -10 4 -18t-18 -9h-31q-14 1 -26 15l-152 215l-154 -215q-12 -14 -26 -15h-31zM598 1247l-297 -835h596l-297 835h-2zM135 0h-39q-31 0 -20 29l473 1310q8 20 29 21h47q20 0 28 -21l473 -1310
q10 -29 -20 -29h-43q-20 0 -27 20l-110 312h-654l-110 -312q-6 -20 -27 -20z" />
    <glyph glyph-name="Atilde" unicode="&#xc3;" horiz-adv-x="1181" 
d="M373 1538h-25q-25 0 -20 23q20 123 104 159t191 -57q53 -53 92 -53q74 0 92 100q4 18 20 19h25q25 0 20 -23q-20 -123 -104 -160t-190 58q-53 53 -93 53q-74 0 -92 -101q-4 -18 -20 -18zM598 1247l-297 -835h596l-297 835h-2zM135 0h-39q-31 0 -20 29l473 1310
q8 20 29 21h47q20 0 28 -21l473 -1310q10 -29 -20 -29h-43q-20 0 -27 20l-110 312h-654l-110 -312q-6 -20 -27 -20z" />
    <glyph glyph-name="Adieresis" unicode="&#xc4;" horiz-adv-x="1181" 
d="M758 1704q42 0 58 -35q17 -35 0 -69t-58 -31q-39 -4 -57 30q-17 35 -1 70t58 35zM442 1704q42 0 58 -35t-1 -70q-18 -34 -57 -30q-41 -3 -58 31t0 69t58 35zM598 1247l-297 -835h596l-297 835h-2zM135 0h-39q-31 0 -20 29l473 1310q8 20 29 21h47q20 0 28 -21l473 -1310
q10 -29 -20 -29h-43q-20 0 -27 20l-110 312h-654l-110 -312q-6 -20 -27 -20z" />
    <glyph glyph-name="Aring" unicode="&#xc5;" horiz-adv-x="1181" 
d="M600 1743q-40 0 -64 -26q-24 -27 -24 -65t25 -64t63 -26t64 26q25 26 24 65q0 39 -24 65t-64 25zM600 1497q-66 0 -111 45t-45 111q0 67 45 111t111 44t111 -45t45 -111t-45 -110q-45 -45 -111 -45zM598 1247l-297 -835h596l-297 835h-2zM135 0h-39q-31 0 -20 29
l473 1310q8 20 29 21h47q20 0 28 -21l473 -1310q10 -29 -20 -29h-43q-20 0 -27 20l-110 312h-654l-110 -312q-6 -20 -27 -20z" />
    <glyph glyph-name="AE" unicode="&#xc6;" horiz-adv-x="1812" 
d="M911 395v865h-2l-532 -865h534zM999 1280v-553h621q25 0 25 -25v-30q0 -25 -25 -25h-621v-567h711q25 0 25 -25v-30q0 -25 -25 -25h-774q-25 0 -25 25v290h-583l-185 -299q-10 -16 -28 -16h-47q-35 0 -17 29l821 1312q12 18 31 19h807q25 0 25 -25v-30q0 -25 -25 -25
h-711z" />
    <glyph glyph-name="Ccedilla" unicode="&#xc7;" horiz-adv-x="1093" 
d="M745 -223q0 -61 -44 -95t-128 -34t-147 39q-16 12 -6 30l10 19q8 20 31 8q47 -33 112 -33q102 0 103 68q-4 66 -121 65h-6q-25 0 -19 25l23 106q-209 7 -317 133t-109 359v426q0 242 117 367t342 124q311 0 428 -256q12 -23 -13 -32l-28 -15q-23 -10 -33 13
q-94 211 -354 211q-188 -1 -280 -107t-91 -326v-385q0 -219 91 -325t280 -107q260 0 354 211q10 23 33 13l28 -15q25 -10 13 -33q-111 -244 -398 -256l-18 -86q147 -4 147 -112z" />
    <glyph glyph-name="Egrave" unicode="&#xc8;" horiz-adv-x="1099" 
d="M623 1503h-33q-14 0 -27 15l-180 254q-18 31 16 30h41q18 0 29 -16l168 -256q8 -10 4 -18t-18 -9zM268 1280v-553h621q25 0 24 -25v-30q0 -25 -24 -25h-621v-567h711q25 0 25 -25v-30q0 -25 -25 -25h-774q-25 0 -25 25v1310q0 25 25 25h774q25 0 25 -25v-30
q0 -25 -25 -25h-711z" />
    <glyph glyph-name="Eacute" unicode="&#xc9;" horiz-adv-x="1099" 
d="M561 1503q-14 0 -18 8t4 19l168 256q10 16 28 16h41q35 1 17 -30l-180 -254q-12 -14 -27 -15h-33zM268 1280v-553h621q25 0 24 -25v-30q0 -25 -24 -25h-621v-567h711q25 0 25 -25v-30q0 -25 -25 -25h-774q-25 0 -25 25v1310q0 25 25 25h774q25 0 25 -25v-30
q0 -25 -25 -25h-711z" />
    <glyph glyph-name="Ecircumflex" unicode="&#xca;" horiz-adv-x="1099" 
d="M268 1280v-553h621q25 0 24 -25v-30q0 -25 -24 -25h-621v-567h711q25 0 25 -25v-30q0 -25 -25 -25h-774q-25 0 -25 25v1310q0 25 25 25h774q25 0 25 -25v-30q0 -25 -25 -25h-711zM381 1503q-14 0 -19 8q-4 8 5 19l176 256q10 16 28 16h37q18 0 29 -16l178 -256
q8 -10 4 -18t-18 -9h-31q-15 1 -27 15l-151 215l-154 -215q-12 -14 -26 -15h-31z" />
    <glyph glyph-name="Edieresis" unicode="&#xcb;" horiz-adv-x="1099" 
d="M750 1569q-29 0 -48 18q-18 18 -18 47t18 48q18 20 48 20t47 -21q20 -18 20 -47t-19 -47t-48 -18zM434 1569q-29 0 -49 18q-18 18 -18 47t19 48q19 20 48 20t47 -20t18 -48q0 -29 -18 -47t-47 -18zM268 1280v-553h621q25 0 24 -25v-30q0 -25 -24 -25h-621v-567h711
q25 0 25 -25v-30q0 -25 -25 -25h-774q-25 0 -25 25v1310q0 25 25 25h774q25 0 25 -25v-30q0 -25 -25 -25h-711z" />
    <glyph glyph-name="Igrave" unicode="&#xcc;" horiz-adv-x="448" 
d="M272 1335v-1310q0 -25 -24 -25h-39q-25 0 -25 25v1310q0 25 25 25h39q24 0 24 -25zM260 1503h-33q-14 0 -26 15l-181 254q-18 31 17 30h41q18 0 28 -16l168 -256q8 -10 5 -19q-5 -8 -19 -8z" />
    <glyph glyph-name="Iacute" unicode="&#xcd;" horiz-adv-x="448" 
d="M272 1335v-1310q0 -25 -24 -25h-39q-25 0 -25 25v1310q0 25 25 25h39q24 0 24 -25zM199 1503q-14 0 -19 8q-4 8 4 19l168 256q10 16 29 16h41q34 1 16 -30l-180 -254q-12 -14 -27 -15h-32z" />
    <glyph glyph-name="Icircumflex" unicode="&#xce;" horiz-adv-x="448" 
d="M272 1335v-1310q0 -25 -24 -25h-39q-25 0 -25 25v1310q0 25 25 25h39q24 0 24 -25zM18 1503q-14 0 -18 8t4 19l176 256q10 16 29 16h37q18 0 28 -16l179 -256q8 -10 4 -18t-19 -9h-30q-15 1 -27 15l-152 215l-153 -215q-12 -14 -27 -15h-31z" />
    <glyph glyph-name="Idieresis" unicode="&#xcf;" horiz-adv-x="448" 
d="M383 1704q41 0 58 -35t0 -69t-58 -31q-39 -3 -56 31t-1 69t57 35zM68 1704q42 0 57 -35q16 -35 -1 -69t-56 -31q-41 -4 -59 30q-17 35 0 70t59 35zM268 1335v-1310q0 -25 -24 -25h-39q-25 0 -25 25v1310q0 25 25 25h39q24 0 24 -25z" />
    <glyph glyph-name="Eth" unicode="&#xd0;" horiz-adv-x="1226" 
d="M1010 485v389q0 206 -94 306t-289 100h-340v-553h321q25 0 25 -25v-30q0 -25 -25 -25h-321v-567h340q195 0 289 99t94 306zM223 1360h406q469 0 469 -463v-434q0 -463 -469 -463h-406q-25 0 -24 25v622h-123q-25 0 -25 25v30q0 25 25 25h123v608q-1 25 24 25z" />
    <glyph glyph-name="Ntilde" unicode="&#xd1;" horiz-adv-x="1277" 
d="M412 1538h-25q-25 0 -20 23q20 123 104 159t191 -57q53 -53 92 -53q74 0 92 100q2 18 20 19h25q25 0 20 -23q-20 -123 -104 -160t-191 58q-53 53 -92 53q-74 0 -92 -101q-2 -18 -20 -18zM1073 0h-45q-18 0 -29 16l-731 1196h-2v-1187q0 -25 -24 -25h-37q-25 0 -25 25
v1310q0 25 25 25h53q18 0 29 -17l723 -1183h2v1175q0 25 24 25h37q25 0 25 -25v-1310q0 -25 -25 -25z" />
    <glyph glyph-name="Ograve" unicode="&#xd2;" horiz-adv-x="1191" 
d="M627 1503h-33q-14 0 -27 15l-180 254q-18 31 16 30h41q18 0 29 -16l168 -256q8 -10 4 -18t-18 -9zM215 872v-385q0 -219 93 -325t288 -106t288 106t93 325v385q0 220 -93 326t-288 106t-288 -106q-93 -107 -93 -326zM127 467v426q0 242 120 367q120 124 349 124t349 -124
t120 -367v-426q0 -242 -120 -367t-349 -125t-349 125t-120 367z" />
    <glyph glyph-name="Oacute" unicode="&#xd3;" horiz-adv-x="1191" 
d="M565 1503q-14 0 -18 8t4 19l168 256q10 16 29 16h40q35 1 17 -30l-180 -254q-12 -14 -27 -15h-33zM215 872v-385q0 -219 93 -325t288 -106t288 106t93 325v385q0 220 -93 326t-288 106t-288 -106q-93 -107 -93 -326zM127 467v426q0 242 120 367q120 124 349 124t349 -124
t120 -367v-426q0 -242 -120 -367t-349 -125t-349 125t-120 367z" />
    <glyph glyph-name="Ocircumflex" unicode="&#xd4;" horiz-adv-x="1191" 
d="M215 872v-385q0 -219 93 -325t288 -106t288 106t93 325v385q0 220 -93 326t-288 106t-288 -106q-93 -107 -93 -326zM127 467v426q0 242 120 367q120 124 349 124t349 -124t120 -367v-426q0 -242 -120 -367t-349 -125t-349 125t-120 367zM385 1503q-14 0 -18 8t4 19
l176 256q10 16 28 16h37q18 0 29 -16l178 -256q8 -10 4 -18t-18 -9h-31q-14 1 -26 15l-152 215l-154 -215q-12 -14 -26 -15h-31z" />
    <glyph glyph-name="Otilde" unicode="&#xd5;" horiz-adv-x="1191" 
d="M369 1538h-25q-25 0 -20 23q20 123 104 159t190 -57q53 -53 93 -53q74 0 92 100q4 18 20 19h25q25 0 20 -23q-20 -123 -104 -160t-191 58q-53 53 -92 53q-74 0 -92 -101q-4 -18 -20 -18zM215 872v-385q0 -219 93 -325t288 -106t288 106t93 325v385q0 220 -93 326
t-288 106t-288 -106q-93 -107 -93 -326zM127 467v426q0 242 120 367q120 124 349 124t349 -124t120 -367v-426q0 -242 -120 -367t-349 -125t-349 125t-120 367z" />
    <glyph glyph-name="Odieresis" unicode="&#xd6;" horiz-adv-x="1191" 
d="M754 1569q-29 0 -47 18t-19 47q0 29 18 48q18 20 48 20q29 0 47 -21q20 -18 20 -47t-19 -47t-48 -18zM438 1569q-29 0 -49 18q-18 18 -18 47t19 48q19 20 48 20t47 -20t18 -48q0 -29 -18 -47t-47 -18zM215 872v-385q0 -219 93 -325t288 -106t288 106t93 325v385
q0 220 -93 326t-288 106t-288 -106q-93 -107 -93 -326zM127 467v426q0 242 120 367q120 124 349 124t349 -124t120 -367v-426q0 -242 -120 -367t-349 -125t-349 125t-120 367z" />
    <glyph glyph-name="multiply" unicode="&#xd7;" horiz-adv-x="1081" 
d="M999 954l-383 -383l383 -383q16 -16 0 -32l-24 -25q-16 -16 -33 0l-383 383l-383 -383q-16 -16 -33 0l-24 25q-16 16 0 32l383 383l-383 383q-16 16 0 33l24 25q16 16 33 0l383 -383l383 383q16 16 33 0l24 -25q16 -17 0 -33z" />
    <glyph glyph-name="Oslash" unicode="&#xd8;" horiz-adv-x="1191" 
d="M979 487v385q0 150 -47 254h-2l-621 -964q94 -106 289 -106t288 106t93 325zM217 872v-385q0 -150 47 -254h2l621 965q-94 106 -289 106t-288 -106q-93 -107 -93 -326zM1067 893v-426q0 -242 -120 -367t-343 -125t-342 113l-59 -92q-12 -18 -31 -6l-27 16q-18 12 -6 31
l72 110q-82 119 -82 320v426q0 242 120 367q120 124 343 124t342 -112l59 92q12 18 31 6l27 -16q18 -13 6 -31l-72 -111q82 -119 82 -319z" />
    <glyph glyph-name="Ugrave" unicode="&#xd9;" horiz-adv-x="1204" 
d="M633 1503h-33q-14 0 -27 15l-180 254q-18 31 17 30h41q18 0 28 -16l168 -256q8 -10 4 -18t-18 -9zM1049 1335v-886q0 -231 -114 -353t-333 -121q-219 0 -333 121t-113 353v886q0 25 24 25h39q25 0 25 -25v-866q0 -211 88 -312t270 -101t271 100q89 102 90 313v866
q0 25 24 25h37q25 0 25 -25z" />
    <glyph glyph-name="Uacute" unicode="&#xda;" horiz-adv-x="1204" 
d="M1049 1335v-886q0 -231 -114 -353t-333 -121q-219 0 -333 121t-113 353v886q0 25 24 25h39q25 0 25 -25v-866q0 -211 88 -312t270 -101t271 100q89 102 90 313v866q0 25 24 25h37q25 0 25 -25zM571 1503q-14 0 -18 8t4 19l168 256q10 16 29 16h41q34 1 16 -30l-180 -254
q-12 -14 -27 -15h-33z" />
    <glyph glyph-name="Ucircumflex" unicode="&#xdb;" horiz-adv-x="1204" 
d="M1049 1335v-886q0 -231 -114 -353t-333 -121q-219 0 -333 121t-113 353v886q0 25 24 25h39q25 0 25 -25v-866q0 -211 88 -312t270 -101t271 100q89 102 90 313v866q0 25 24 25h37q25 0 25 -25zM391 1503q-14 0 -18 8t4 19l176 256q10 16 29 16h36q18 0 29 -16l178 -256
q8 -10 4 -18t-18 -9h-31q-14 1 -26 15l-152 215l-153 -215q-12 -14 -27 -15h-31z" />
    <glyph glyph-name="Udieresis" unicode="&#xdc;" horiz-adv-x="1204" 
d="M760 1704q42 0 58 -35q17 -35 0 -69t-58 -31q-39 -4 -57 30q-17 35 -1 70t58 35zM444 1704q42 0 58 -35t-1 -70q-18 -34 -57 -30q-41 -3 -58 31t0 69t58 35zM1049 1335v-886q0 -231 -114 -353t-333 -121q-219 0 -333 121t-113 353v886q0 25 24 25h39q25 0 25 -25v-866
q0 -211 88 -312t270 -101t271 100q89 102 90 313v866q0 25 24 25h37q25 0 25 -25z" />
    <glyph glyph-name="Yacute" unicode="&#xdd;" horiz-adv-x="1042" 
d="M508 1503q-14 0 -19 8q-4 8 5 19l168 256q10 16 28 16h41q35 1 17 -30l-181 -254q-12 -14 -26 -15h-33zM559 0h-39q-25 0 -24 25v583l-449 723q-18 29 16 29h52q18 0 28 -17l400 -649l395 649q10 16 29 17h49q35 0 16 -29l-448 -723v-583q0 -25 -25 -25z" />
    <glyph glyph-name="Thorn" unicode="&#xde;" horiz-adv-x="1101" 
d="M268 1016v-631h314q194 0 284 76q90 75 90 239t-91 240t-283 76h-314zM268 1335v-239h314q238 0 350 -96t112 -300q0 -203 -112 -299t-350 -96h-314v-280q0 -25 -24 -25h-39q-25 0 -25 25v1310q0 25 25 25h39q24 0 24 -25z" />
    <glyph glyph-name="germandbls" unicode="&#xdf;" horiz-adv-x="1124" 
d="M160 25v1087q0 164 100 255t278 91t276 -80q99 -80 99 -221q1 -86 -37 -146q-38 -61 -122 -107t-114 -86t-30 -102t42 -99q42 -39 163 -67t181 -96t60 -195q0 -128 -89 -206q-90 -78 -244 -78q-229 0 -344 121q-18 18 -2 37l18 21q14 18 33 0q98 -102 289 -103
q121 1 189 57t67 151q0 95 -48 143t-172 81t-175 86q-52 53 -52 139t35 138q35 51 120 103q85 53 118 99t32 107q0 109 -75 168q-76 59 -217 59t-218 -72t-77 -206v-1079q0 -25 -25 -25h-35q-24 0 -24 25z" />
    <glyph glyph-name="agrave" unicode="&#xe0;" horiz-adv-x="923" 
d="M502 1161h-33q-14 0 -27 15l-180 254q-18 31 17 30h40q18 0 29 -16l168 -256q8 -10 4 -18t-18 -9zM436 51q150 0 218 79t69 247v119h-266q-137 0 -210 -58t-73 -166q0 -221 262 -221zM442 1030q365 0 365 -383v-289q0 -383 -371 -383q-166 0 -256 78t-90 219
q0 140 93 220t263 79h277v56q0 167 -70 247q-69 80 -219 80t-241 -102q-16 -16 -35 0l-21 20q-14 16 0 37q125 121 305 121z" />
    <glyph glyph-name="aacute" unicode="&#xe1;" horiz-adv-x="923" 
d="M440 1161q-14 0 -18 8t4 19l168 256q10 16 29 16h41q34 1 16 -30l-180 -254q-12 -14 -27 -15h-33zM436 51q150 0 218 79t69 247v119h-266q-137 0 -210 -58t-73 -166q0 -221 262 -221zM442 1030q365 0 365 -383v-289q0 -383 -371 -383q-166 0 -256 78t-90 219
q0 140 93 220t263 79h277v56q0 167 -70 247q-69 80 -219 80t-241 -102q-16 -16 -35 0l-21 20q-14 16 0 37q125 121 305 121z" />
    <glyph glyph-name="acircumflex" unicode="&#xe2;" horiz-adv-x="923" 
d="M260 1161q-14 0 -18 8t4 19l176 256q10 16 29 16h36q18 0 29 -16l178 -256q8 -10 4 -18t-18 -9h-31q-14 1 -26 15l-152 215l-154 -215q-12 -14 -26 -15h-31zM436 51q150 0 218 79t69 247v119h-266q-137 0 -210 -58t-73 -166q0 -221 262 -221zM442 1030q365 0 365 -383
v-289q0 -383 -371 -383q-166 0 -256 78t-90 219q0 140 93 220t263 79h277v56q0 167 -70 247q-69 80 -219 80t-241 -102q-16 -16 -35 0l-21 20q-14 16 0 37q125 121 305 121z" />
    <glyph glyph-name="atilde" unicode="&#xe3;" horiz-adv-x="923" 
d="M244 1196h-25q-25 0 -20 23q20 123 104 159t191 -57q53 -53 92 -53q74 0 92 100q2 18 20 18h25q25 0 20 -22q-20 -123 -104 -160t-190 58q-53 53 -93 53q-74 0 -92 -101q-2 -18 -20 -18zM436 51q150 0 218 79t69 247v119h-266q-137 0 -210 -58t-73 -166q0 -221 262 -221z
M442 1030q365 0 365 -383v-289q0 -383 -371 -383q-166 0 -256 78t-90 219q0 140 93 220t263 79h277v56q0 167 -70 247q-69 80 -219 80t-241 -102q-16 -16 -35 0l-21 20q-14 16 0 37q125 121 305 121z" />
    <glyph glyph-name="adieresis" unicode="&#xe4;" horiz-adv-x="923" 
d="M637 1227q-35 0 -54 19t-19 54q0 36 40 54q41 18 73 -14q31 -32 13 -72t-53 -41zM379 1300q0 -74 -75 -73q-36 0 -53 41q-17 40 15 72t73 14q40 -18 40 -54zM436 51q150 0 218 79t69 247v119h-266q-137 0 -210 -58t-73 -166q0 -221 262 -221zM442 1030q365 0 365 -383
v-289q0 -383 -371 -383q-166 0 -256 78t-90 219q0 140 93 220t263 79h277v56q0 167 -70 247q-69 80 -219 80t-241 -102q-16 -16 -35 0l-21 20q-14 16 0 37q125 121 305 121z" />
    <glyph glyph-name="aring" unicode="&#xe5;" horiz-adv-x="923" 
d="M471 1401q-39 0 -63 -26q-24 -27 -25 -65q0 -38 25 -64q26 -26 64 -26t63 26t24 65t-25 65t-63 25zM471 1155q-66 0 -111 45t-45 111q0 67 45 111t111 44t111 -45t45 -111t-45 -110q-45 -45 -111 -45zM436 51q150 0 218 79t69 247v119h-266q-137 0 -210 -58t-73 -166
q0 -221 262 -221zM442 1030q365 0 365 -383v-289q0 -383 -371 -383q-166 0 -256 78t-90 219q0 140 93 220t263 79h277v56q0 167 -70 247q-69 80 -219 80t-241 -102q-16 -16 -35 0l-21 20q-14 16 0 37q125 121 305 121z" />
    <glyph glyph-name="ae" unicode="&#xe6;" horiz-adv-x="1536" 
d="M436 51q150 0 218 79t69 247v110h-266q-283 0 -283 -218t262 -218zM807 563h555v68q0 168 -67 246q-67 77 -210 77t-211 -78t-67 -245v-68zM1090 1030q172 0 263 -97t91 -284v-137q0 -25 -25 -25h-612v-108q0 -170 75 -249t225 -79t253 115q18 20 37 2l18 -18
q14 -14 0 -37q-123 -137 -303 -138q-272 0 -346 211h-2q-63 -211 -334 -211q-162 0 -251 78t-89 218t93 216t263 76h277v64q0 167 -70 247q-71 80 -219 80t-244 -104q-18 -18 -32 0l-21 22q-16 18 0 35q123 123 303 123q254 0 326 -207h2q62 207 322 207z" />
    <glyph glyph-name="ccedilla" unicode="&#xe7;" horiz-adv-x="843" 
d="M201 379q1 -328 285 -328q142 0 237 103q17 20 35 2l20 -23q16 -16 0 -35q-111 -115 -272 -123l-19 -86q147 -4 148 -112q0 -61 -44 -95t-128 -34t-148 39q-16 12 -6 30l10 19q8 20 31 8q47 -33 113 -33q102 0 102 68q-4 66 -121 65h-6q-25 0 -18 25l22 108
q-326 23 -325 383v287q0 383 362 383q180 0 283 -104q16 -16 0 -35l-19 -21q-23 -23 -36 0q-85 84 -227 84t-211 -80t-68 -247v-248z" />
    <glyph glyph-name="egrave" unicode="&#xe8;" horiz-adv-x="927" 
d="M512 1161h-33q-14 0 -26 15l-181 254q-18 31 17 30h41q18 0 28 -16l168 -256q8 -10 4 -18t-18 -9zM201 551h553v80q0 168 -67 246q-67 77 -210 77t-210 -78t-66 -245v-80zM117 649q0 381 359 381t360 -381v-149q0 -25 -25 -25h-610v-96q-1 -170 73 -249t224 -79t254 115
q18 20 36 2l19 -21q16 -16 2 -34q-123 -137 -307 -138q-385 0 -385 385v289z" />
    <glyph glyph-name="eacute" unicode="&#xe9;" horiz-adv-x="927" 
d="M451 1161q-14 0 -19 8q-4 8 4 19l168 256q10 16 29 16h41q34 1 16 -30l-180 -254q-12 -14 -27 -15h-32zM201 551h553v80q0 168 -67 246q-67 77 -210 77t-210 -78t-66 -245v-80zM117 649q0 381 359 381t360 -381v-149q0 -25 -25 -25h-610v-96q-1 -170 73 -249t224 -79
t254 115q18 20 36 2l19 -21q16 -16 2 -34q-123 -137 -307 -138q-385 0 -385 385v289z" />
    <glyph glyph-name="ecircumflex" unicode="&#xea;" horiz-adv-x="927" 
d="M201 551h553v80q0 168 -67 246q-67 77 -210 77t-210 -78t-66 -245v-80zM117 649q0 381 359 381t360 -381v-149q0 -25 -25 -25h-610v-96q-1 -170 73 -249t224 -79t254 115q18 20 36 2l19 -21q16 -16 2 -34q-123 -137 -307 -138q-385 0 -385 385v289zM270 1161q-14 0 -18 8
t4 19l176 256q10 16 29 16h37q18 0 28 -16l179 -256q8 -10 4 -18t-19 -9h-31q-14 1 -26 15l-152 215l-153 -215q-12 -14 -27 -15h-31z" />
    <glyph glyph-name="edieresis" unicode="&#xeb;" horiz-adv-x="927" 
d="M709 1292q0 -42 -35 -57q-35 -16 -70 1t-31 56q-4 40 31 58t70 1t35 -59zM389 1292q4 -39 -31 -56q-36 -17 -70 -1t-32 57q-2 40 33 58t69 0t31 -58zM201 551h553v80q0 168 -67 246q-67 77 -210 77t-210 -78t-66 -245v-80zM117 649q0 381 359 381t360 -381v-149
q0 -25 -25 -25h-610v-96q-1 -170 73 -249t224 -79t254 115q18 20 36 2l19 -21q16 -16 2 -34q-123 -137 -307 -138q-385 0 -385 385v289z" />
    <glyph glyph-name="igrave" unicode="&#xec;" horiz-adv-x="401" 
d="M188 1006h35q25 0 25 -25v-956q0 -25 -25 -25h-35q-25 0 -24 25v956q-1 25 24 25zM236 1161h-33q-14 0 -27 15l-180 254q-18 31 16 30h41q18 0 29 -16l168 -256q8 -10 4 -18t-18 -9z" />
    <glyph glyph-name="iacute" unicode="&#xed;" horiz-adv-x="401" 
d="M188 1006h35q25 0 25 -25v-956q0 -25 -25 -25h-35q-25 0 -24 25v956q-1 25 24 25zM174 1161q-14 0 -18 8t4 19l168 256q10 16 28 16h41q35 1 17 -30l-181 -254q-12 -14 -26 -15h-33z" />
    <glyph glyph-name="icircumflex" unicode="&#xee;" horiz-adv-x="401" 
d="M188 1006h35q25 0 25 -25v-956q0 -25 -25 -25h-35q-25 0 -24 25v956q-1 25 24 25zM-6 1161q-14 0 -19 8q-4 8 5 19l176 256q10 16 28 16h37q18 0 29 -16l178 -256q8 -10 4 -18t-18 -9h-31q-15 1 -27 15l-151 215l-154 -215q-12 -14 -26 -15h-31z" />
    <glyph glyph-name="idieresis" unicode="&#xef;" horiz-adv-x="401" 
d="M184 1006h35q25 0 25 -25v-956q0 -25 -25 -25h-35q-25 0 -24 25v956q-1 25 24 25zM366 1227q-73 0 -73 73q0 36 41 54t73 -14t13 -72t-54 -41zM109 1300q0 -74 -74 -73q-35 0 -53 41q-18 40 14 72t72 14q41 -18 41 -54z" />
    <glyph glyph-name="eth" unicode="&#xf0;" horiz-adv-x="985" 
d="M766 377v248q0 326 -283 325q-145 0 -214 -79t-68 -246v-248q1 -168 69 -247t213 -79t214 79t69 247zM850 674v-316q0 -188 -93 -285t-273 -97t-274 96q-93 98 -93 286v287q0 381 358 381q195 0 277 -131h2q-35 252 -174 369l-127 -107q-16 -12 -33 4l-14 19q-16 16 2 32
l112 93q-111 63 -282 79q-27 4 -23 27l2 23q2 27 29 22q205 -18 338 -98l100 84q16 12 33 -4l14 -19q14 -15 -2 -33l-88 -71q209 -176 209 -641z" />
    <glyph glyph-name="ntilde" unicode="&#xf1;" horiz-adv-x="1015" 
d="M784 25v614q0 162 -66 239q-67 76 -209 76t-210 -76t-68 -239v-614q0 -25 -24 -25h-35q-25 0 -25 25v632q1 185 93 279t268 94t268 -94t92 -279v-632q0 -25 -24 -25h-35q-25 0 -25 25zM281 1196h-25q-25 0 -20 23q20 123 104 159t190 -57q53 -53 93 -53q74 0 92 100
q2 18 20 18h25q25 0 20 -22q-20 -123 -104 -160t-191 58q-53 53 -92 53q-74 0 -92 -101q-2 -18 -20 -18z" />
    <glyph glyph-name="ograve" unicode="&#xf2;" horiz-adv-x="966" 
d="M514 1161h-33q-14 0 -26 15l-181 254q-18 31 17 30h41q18 0 28 -16l168 -256q8 -10 4 -18t-18 -9zM766 377v254q0 166 -69 245q-69 78 -214 78t-214 -78t-68 -245v-254q1 -168 69 -247t213 -79t214 79t69 247zM850 649v-293q0 -186 -93 -283t-273 -97t-274 96
q-93 98 -93 284v293q1 381 367 381t366 -381z" />
    <glyph glyph-name="oacute" unicode="&#xf3;" horiz-adv-x="966" 
d="M766 377v254q0 166 -69 245q-69 78 -214 78t-214 -78t-68 -245v-254q1 -168 69 -247t213 -79t214 79t69 247zM850 649v-293q0 -186 -93 -283t-273 -97t-274 96q-93 98 -93 284v293q1 381 367 381t366 -381zM453 1161q-14 0 -19 8q-4 8 4 19l168 256q10 16 29 16h41
q34 1 16 -30l-180 -254q-12 -14 -27 -15h-32z" />
    <glyph glyph-name="ocircumflex" unicode="&#xf4;" horiz-adv-x="966" 
d="M766 377v254q0 166 -69 245q-69 78 -214 78t-214 -78t-68 -245v-254q1 -168 69 -247t213 -79t214 79t69 247zM850 649v-293q0 -186 -93 -283t-273 -97t-274 96q-93 98 -93 284v293q1 381 367 381t366 -381zM272 1161q-14 0 -18 8t4 19l176 256q10 16 29 16h37
q18 0 28 -16l179 -256q8 -10 4 -18t-19 -9h-30q-15 1 -27 15l-152 215l-153 -215q-12 -14 -27 -15h-31z" />
    <glyph glyph-name="otilde" unicode="&#xf5;" horiz-adv-x="966" 
d="M766 377v254q0 166 -69 245q-69 78 -214 78t-214 -78t-68 -245v-254q1 -168 69 -247t213 -79t214 79t69 247zM850 649v-293q0 -186 -93 -283t-273 -97t-274 96q-93 98 -93 284v293q1 381 367 381t366 -381zM256 1196h-25q-25 0 -20 23q20 123 104 159t191 -57
q53 -53 92 -53q74 0 92 100q2 18 21 18h24q25 0 21 -22q-20 -123 -104 -160t-191 58q-53 53 -92 53q-74 0 -93 -101q-2 -18 -20 -18z" />
    <glyph glyph-name="odieresis" unicode="&#xf6;" horiz-adv-x="966" 
d="M649 1227q-35 0 -54 19t-19 54q0 36 40 54q41 18 73 -14q31 -32 13 -72t-53 -41zM391 1300q0 -74 -74 -73q-36 0 -54 41q-17 40 15 72t73 14q40 -18 40 -54zM766 377v254q0 166 -69 245q-69 78 -214 78t-214 -78t-68 -245v-254q1 -168 69 -247t213 -79t214 79t69 247z
M850 649v-293q0 -186 -93 -283t-273 -97t-274 96q-93 98 -93 284v293q1 381 367 381t366 -381z" />
    <glyph glyph-name="divide" unicode="&#xf7;" horiz-adv-x="1081" 
d="M590 117q-29 -31 -67 -18t-47 48t16 66q30 31 68 17t48 -46q10 -34 -18 -67zM1014 532h-946q-25 0 -25 25v29q0 25 25 24h946q25 0 24 -24v-29q1 -25 -24 -25zM590 928q-29 -29 -67 -16t-47 47t16 67q47 47 96 -2t2 -96z" />
    <glyph glyph-name="oslash" unicode="&#xf8;" horiz-adv-x="966" 
d="M770 377v254q0 104 -29 180h-2l-460 -686q69 -74 211 -74t211 79t69 247zM205 631v-254q0 -102 28 -182h3l460 686q-68 73 -211 73t-212 -78q-68 -79 -68 -245zM854 649v-293q0 -186 -93 -283t-265 -97t-265 79l-41 -59q-12 -18 -30 -6l-23 14q-20 12 -8 31l53 78
q-61 92 -61 243v293q0 381 366 381q164 0 256 -80l41 62q12 18 31 6l25 -17q18 -12 6 -30l-53 -78q61 -92 61 -244z" />
    <glyph glyph-name="ugrave" unicode="&#xf9;" horiz-adv-x="1003" 
d="M532 1161h-32q-14 0 -27 15l-180 254q-18 31 16 30h41q18 0 29 -16l168 -256q8 -10 4 -19q-5 -8 -19 -8zM856 981v-639q0 -180 -90 -273t-264 -93t-264 92q-90 94 -91 274v639q0 25 25 25h35q25 0 24 -25v-621q0 -160 66 -234t205 -75q139 0 206 75t66 234v621
q0 25 25 25h32q25 0 25 -25z" />
    <glyph glyph-name="uacute" unicode="&#xfa;" horiz-adv-x="1003" 
d="M856 981v-639q0 -180 -90 -273t-264 -93t-264 92q-90 94 -91 274v639q0 25 25 25h35q25 0 24 -25v-621q0 -160 66 -234t205 -75q139 0 206 75t66 234v621q0 25 25 25h32q25 0 25 -25zM471 1161q-14 0 -18 8t4 19l168 256q10 16 28 16h41q35 1 17 -30l-181 -254
q-12 -14 -26 -15h-33z" />
    <glyph glyph-name="ucircumflex" unicode="&#xfb;" horiz-adv-x="1003" 
d="M856 981v-639q0 -180 -90 -273t-264 -93t-264 92q-90 94 -91 274v639q0 25 25 25h35q25 0 24 -25v-621q0 -160 66 -234t205 -75q139 0 206 75t66 234v621q0 25 25 25h32q25 0 25 -25zM291 1161q-14 0 -19 8q-4 8 4 19l177 256q10 16 28 16h37q18 0 29 -16l178 -256
q8 -10 4 -18t-18 -9h-31q-15 1 -27 15l-151 215l-154 -215q-12 -14 -26 -15h-31z" />
    <glyph glyph-name="udieresis" unicode="&#xfc;" horiz-adv-x="1003" 
d="M729 1292q0 -42 -35 -57q-36 -16 -70 1t-30 56q-4 40 31 58t69 1t35 -59zM410 1292q4 -39 -31 -56t-70 -1t-33 57q-2 40 33 58t70 0t31 -58zM856 981v-639q0 -180 -90 -273t-264 -93t-264 92q-90 94 -91 274v639q0 25 25 25h35q25 0 24 -25v-621q0 -160 66 -234t205 -75
q139 0 206 75t66 234v621q0 25 25 25h32q25 0 25 -25z" />
    <glyph glyph-name="yacute" unicode="&#xfd;" horiz-adv-x="1026" 
d="M477 1161q-14 0 -18 8t4 19l168 256q10 16 28 16h41q35 1 17 -30l-180 -254q-12 -14 -27 -15h-33zM868 981v-985q0 -162 -97 -255t-281 -93t-312 121q-16 16 0 34l19 23q16 18 34 0q115 -102 261 -102t220 74q73 74 72 216v133h-2q-78 -145 -284 -145q-172 0 -261 95
t-90 278v606q0 25 25 25h35q25 0 24 -25v-586q0 -165 68 -241t209 -76q276 0 276 317v586q0 25 25 25h35q24 0 24 -25z" />
    <glyph glyph-name="thorn" unicode="&#xfe;" horiz-adv-x="1009" 
d="M809 377v252q0 168 -69 247t-214 78q-283 0 -282 -325v-252q0 -326 282 -326q145 0 214 79t69 247zM535 1030q176 0 267 -97t91 -284v-293q0 -186 -91 -283t-267 -98q-209 0 -289 150h-2v-428q0 -25 -25 -25h-35q-25 0 -24 25v1712q0 25 24 25h35q25 0 25 -25v-528h2
q82 149 289 149z" />
    <glyph glyph-name="ydieresis" unicode="&#xff;" horiz-adv-x="1026" 
d="M674 1227q-35 0 -54 19q-20 19 -20 54q0 36 41 54t73 -14t14 -72t-54 -41zM416 1300q0 -74 -75 -73q-36 0 -53 41q-16 40 16 72t72 14t40 -54zM868 981v-985q0 -162 -97 -255t-281 -93t-312 121q-16 16 0 34l19 23q16 18 34 0q115 -102 261 -102t220 74q73 74 72 216v133
h-2q-78 -145 -284 -145q-172 0 -261 95t-90 278v606q0 25 25 25h35q25 0 24 -25v-586q0 -165 68 -241t209 -76q276 0 276 317v586q0 25 25 25h35q24 0 24 -25z" />
    <glyph glyph-name="Amacron" unicode="&#x100;" horiz-adv-x="1181" 
d="M852 1640v-24q0 -25 -25 -25h-456q-25 0 -25 25v24q0 25 25 25h456q25 0 25 -25zM598 1247l-297 -835h596l-297 835h-2zM135 0h-39q-31 0 -20 29l473 1310q8 20 29 21h47q20 0 28 -21l473 -1310q10 -29 -20 -29h-43q-20 0 -27 20l-110 312h-654l-110 -312q-6 -20 -27 -20
z" />
    <glyph glyph-name="amacron" unicode="&#x101;" horiz-adv-x="923" 
d="M723 1298v-24q0 -25 -25 -25h-456q-25 0 -25 25v24q0 25 25 25h456q25 0 25 -25zM436 51q150 0 218 79t69 247v119h-266q-137 0 -210 -58t-73 -166q0 -221 262 -221zM442 1030q365 0 365 -383v-289q0 -383 -371 -383q-166 0 -256 78t-90 219q0 140 93 220t263 79h277v56
q0 167 -70 247q-69 80 -219 80t-241 -102q-16 -16 -35 0l-21 20q-14 16 0 37q125 121 305 121z" />
    <glyph glyph-name="Abreve" unicode="&#x102;" horiz-adv-x="1181" 
d="M795 1751h22q27 0 21 -25q-18 -88 -80 -137t-158 -49q-94 0 -157 49q-62 49 -81 137q-6 25 21 25h23q18 0 24 -20q31 -119 170 -119t170 119q7 20 25 20zM598 1247l-297 -835h596l-297 835h-2zM135 0h-39q-31 0 -20 29l473 1310q8 20 29 21h47q20 0 28 -21l473 -1310
q10 -29 -20 -29h-43q-20 0 -27 20l-110 312h-654l-110 -312q-6 -20 -27 -20z" />
    <glyph glyph-name="abreve" unicode="&#x103;" horiz-adv-x="923" 
d="M666 1409h22q27 0 21 -25q-19 -88 -81 -137t-156 -49t-158 49q-62 49 -81 137q-6 25 21 25h22q18 0 25 -20q31 -119 170 -119t170 119q7 20 25 20zM436 51q150 0 218 79t69 247v119h-266q-137 0 -210 -58t-73 -166q0 -221 262 -221zM442 1030q365 0 365 -383v-289
q0 -383 -371 -383q-166 0 -256 78t-90 219q0 140 93 220t263 79h277v56q0 167 -70 247q-69 80 -219 80t-241 -102q-16 -16 -35 0l-21 20q-14 16 0 37q125 121 305 121z" />
    <glyph glyph-name="Aogonek" unicode="&#x104;" horiz-adv-x="1181" 
d="M600 1247h-2l-297 -835h596zM1021 -352q-79 0 -123 40t-44 107q0 143 178 238l-106 299h-654l-110 -312q-6 -20 -27 -20h-39q-31 0 -20 29l473 1310q8 20 29 21h47q20 0 28 -21l473 -1310q10 -29 -20 -29h-12q-172 -82 -172 -195q0 -39 28 -67t75 -27q48 0 89 41
q17 18 33 2l14 -16q14 -16 -2 -33q-59 -57 -138 -57z" />
    <glyph glyph-name="aogonek" unicode="&#x105;" horiz-adv-x="923" 
d="M436 51q150 0 218 79t69 247v119h-266q-137 0 -210 -58t-73 -166q0 -221 262 -221zM479 -195q0 -39 27 -67q26 -28 74 -27q48 0 90 41q18 18 35 0l12 -14q16 -16 -2 -33q-59 -57 -137 -57t-124 40q-44 40 -44 122t79 165v2q-10 -2 -53 -2q-166 0 -256 78t-90 219
q0 140 93 220t263 79h277v56q0 167 -70 247q-69 80 -219 80t-241 -102q-16 -16 -35 0l-21 20q-14 16 0 37q125 121 305 121q365 0 365 -383v-289q0 -256 -178 -346q-150 -76 -150 -207z" />
    <glyph glyph-name="Cacute" unicode="&#x106;" horiz-adv-x="1093" 
d="M549 1503q-14 0 -19 8q-4 8 5 19l167 256q10 16 29 16h41q34 1 16 -30l-180 -254q-12 -14 -26 -15h-33zM586 55q260 0 354 211q10 23 33 13l28 -15q25 -10 13 -33q-117 -256 -428 -256q-225 0 -342 125t-117 367v426q0 242 117 367t342 124q311 0 428 -256
q12 -23 -13 -32l-28 -15q-23 -10 -33 13q-94 211 -354 211q-188 -1 -280 -107t-91 -326v-385q-1 -219 91 -325t280 -107z" />
    <glyph glyph-name="cacute" unicode="&#x107;" horiz-adv-x="843" 
d="M430 1161q-14 0 -18 8t4 19l168 256q10 16 28 16h41q35 1 17 -30l-181 -254q-12 -14 -26 -15h-33zM201 379q1 -328 285 -328q142 0 237 103q17 20 35 2l20 -23q16 -16 0 -35q-117 -123 -295 -123q-178 1 -272 99t-94 286v287q0 383 362 383q180 0 283 -104q16 -16 0 -35
l-19 -21q-23 -23 -36 0q-85 84 -227 84t-211 -80t-68 -247v-248z" />
    <glyph glyph-name="Ccircumflex" unicode="&#x108;" horiz-adv-x="1093" 
d="M586 55q260 0 354 211q10 23 33 13l28 -15q25 -10 13 -33q-117 -256 -428 -256q-225 0 -342 125t-117 367v426q0 242 117 367t342 124q311 0 428 -256q12 -23 -13 -32l-28 -15q-23 -10 -33 13q-94 211 -354 211q-188 -1 -280 -107t-91 -326v-385q-1 -219 91 -325
t280 -107zM369 1503q-14 0 -19 8q-4 8 4 19l176 256q10 16 29 16h37q18 0 29 -16l178 -256q8 -10 4 -18t-19 -9h-30q-15 1 -27 15l-151 215l-154 -215q-12 -14 -27 -15h-30z" />
    <glyph glyph-name="ccircumflex" unicode="&#x109;" horiz-adv-x="843" 
d="M201 379q1 -328 285 -328q142 0 237 103q17 20 35 2l20 -23q16 -16 0 -35q-117 -123 -295 -123q-178 1 -272 99t-94 286v287q0 383 362 383q180 0 283 -104q16 -16 0 -35l-19 -21q-23 -23 -36 0q-85 84 -227 84t-211 -80t-68 -247v-248zM250 1161q-14 0 -19 8q-4 8 5 19
l176 256q10 16 28 16h37q18 0 29 -16l178 -256q8 -10 4 -18t-18 -9h-31q-15 1 -27 15l-151 215l-154 -215q-12 -14 -26 -15h-31z" />
    <glyph glyph-name="Cdotaccent" unicode="&#x10a;" horiz-adv-x="1093" 
d="M580 1567q-29 0 -50 18q-18 20 -18 49t18 47q48 47 96 -1t1 -95q-18 -18 -47 -18zM586 55q260 0 354 211q10 23 33 13l28 -15q25 -10 13 -33q-117 -256 -428 -256q-225 0 -342 125t-117 367v426q0 242 117 367t342 124q311 0 428 -256q12 -23 -13 -32l-28 -15
q-23 -10 -33 13q-94 211 -354 211q-188 -1 -280 -107t-91 -326v-385q-1 -219 91 -325t280 -107z" />
    <glyph glyph-name="cdotaccent" unicode="&#x10b;" horiz-adv-x="843" 
d="M461 1225q-29 0 -49 18q-18 20 -19 49q0 29 19 47q47 47 95 -1t1 -95q-18 -18 -47 -18zM201 379q1 -328 285 -328q142 0 237 103q17 20 35 2l20 -23q16 -16 0 -35q-117 -123 -295 -123q-178 1 -272 99t-94 286v287q0 383 362 383q180 0 283 -104q16 -16 0 -35l-19 -21
q-23 -23 -36 0q-85 84 -227 84t-211 -80t-68 -247v-248z" />
    <glyph glyph-name="Ccaron" unicode="&#x10c;" horiz-adv-x="1093" 
d="M586 55q260 0 354 211q10 23 33 13l28 -15q25 -10 13 -33q-117 -256 -428 -256q-225 0 -342 125t-117 367v426q0 242 117 367t342 124q311 0 428 -256q12 -23 -13 -32l-28 -15q-23 -10 -33 13q-94 211 -354 211q-188 -1 -280 -107t-91 -326v-385q-1 -219 91 -325
t280 -107zM559 1503q-18 0 -29 17l-176 256q-8 10 -4 18t19 8h30q14 0 27 -14l154 -217l151 217q12 14 27 14h30q14 0 18 -8t-3 -18l-178 -256q-10 -16 -29 -17h-37z" />
    <glyph glyph-name="ccaron" unicode="&#x10d;" horiz-adv-x="843" 
d="M201 379q1 -328 285 -328q142 0 237 103q17 20 35 2l20 -23q16 -16 0 -35q-117 -123 -295 -123q-178 1 -272 99t-94 286v287q0 383 362 383q180 0 283 -104q16 -16 0 -35l-19 -21q-23 -23 -36 0q-85 84 -227 84t-211 -80t-68 -247v-248zM440 1161q-18 0 -28 17l-176 256
q-8 10 -5 18q4 8 19 8h31q14 0 26 -14l154 -217l151 217q12 14 27 14h31q14 0 18 -8t-4 -18l-178 -256q-10 -16 -29 -17h-37z" />
    <glyph glyph-name="Dcaron" unicode="&#x10e;" horiz-adv-x="1208" 
d="M991 485v389q0 206 -94 306t-289 100h-340v-1200h340q195 0 289 99t94 306zM205 1360h405q469 0 469 -463v-434q0 -463 -469 -463h-405q-25 0 -25 25v1310q0 25 25 25zM555 1503q-18 0 -29 17l-176 256q-8 10 -4 18t19 8h30q14 0 27 -14l153 -217l152 217q12 14 27 14h30
q14 0 18 -8t-3 -18l-178 -256q-10 -16 -29 -17h-37z" />
    <glyph glyph-name="dcaron" unicode="&#x10f;" horiz-adv-x="997" 
d="M999 1057h-18q-27 0 -23 24l43 330q4 23 25 23h29q24 0 22 -27l-53 -330q-2 -20 -25 -20zM766 377v254q0 324 -283 323q-145 0 -214 -78t-68 -245v-254q1 -168 69 -247t213 -79t214 79t69 247zM850 1409v-1051q0 -188 -93 -285t-273 -97t-274 96q-93 98 -93 286v291
q0 381 358 381q209 0 289 -149h2v528q0 25 25 25h34q25 0 25 -25z" />
    <glyph glyph-name="Dcroat" unicode="&#x110;" horiz-adv-x="1226" 
d="M1010 485v389q0 206 -94 306t-289 100h-340v-553h321q25 0 25 -25v-30q0 -25 -25 -25h-321v-567h340q195 0 289 99t94 306zM223 1360h406q469 0 469 -463v-434q0 -463 -469 -463h-406q-25 0 -24 25v622h-123q-25 0 -25 25v30q0 25 25 25h123v608q-1 25 24 25z" />
    <glyph glyph-name="dslash" unicode="&#x111;" horiz-adv-x="1001" 
d="M766 377v254q0 324 -283 323q-145 0 -214 -78t-68 -245v-254q1 -168 69 -247t213 -79t214 79t69 247zM850 1409v-170h117q25 0 24 -25v-24q0 -25 -24 -25h-117v-807q0 -188 -93 -285t-273 -97t-274 96q-93 98 -93 286v291q0 381 358 381q209 0 289 -149h2v284h-303
q-25 0 -25 25v24q0 25 25 25h303v170q0 25 25 25h34q25 0 25 -25z" />
    <glyph glyph-name="Emacron" unicode="&#x112;" horiz-adv-x="1099" 
d="M844 1640v-24q0 -25 -25 -25h-457q-25 0 -24 25v24q0 25 24 25h457q25 0 25 -25zM268 1280v-553h621q25 0 24 -25v-30q0 -25 -24 -25h-621v-567h711q25 0 25 -25v-30q0 -25 -25 -25h-774q-25 0 -25 25v1310q0 25 25 25h774q25 0 25 -25v-30q0 -25 -25 -25h-711z" />
    <glyph glyph-name="emacron" unicode="&#x113;" horiz-adv-x="927" 
d="M733 1298v-24q0 -25 -24 -25h-457q-25 0 -25 25v24q0 25 25 25h457q24 0 24 -25zM201 551h553v80q0 168 -67 246q-67 77 -210 77t-210 -78t-66 -245v-80zM117 649q0 381 359 381t360 -381v-149q0 -25 -25 -25h-610v-96q-1 -170 73 -249t224 -79t254 115q18 20 36 2
l19 -21q16 -16 2 -34q-123 -137 -307 -138q-385 0 -385 385v289z" />
    <glyph glyph-name="Ebreve" unicode="&#x114;" horiz-adv-x="1099" 
d="M786 1751h23q27 0 20 -25q-18 -88 -80 -137q-63 -49 -157 -49t-157 49q-62 49 -81 137q-6 25 21 25h22q18 0 25 -20q14 -55 59 -87t111 -32t110 32t60 87q6 20 24 20zM268 1280v-553h621q25 0 24 -25v-30q0 -25 -24 -25h-621v-567h711q25 0 25 -25v-30q0 -25 -25 -25
h-774q-25 0 -25 25v1310q0 25 25 25h774q25 0 25 -25v-30q0 -25 -25 -25h-711z" />
    <glyph glyph-name="ebreve" unicode="&#x115;" horiz-adv-x="927" 
d="M676 1409h22q27 0 21 -25q-19 -88 -81 -137t-156 -49t-157 49q-62 49 -81 137q-6 25 20 25h23q18 0 24 -20q13 -55 59 -87t112 -32t110 32q45 32 59 87q7 20 25 20zM201 551h553v80q0 168 -67 246q-67 77 -210 77t-210 -78t-66 -245v-80zM117 649q0 381 359 381t360 -381
v-149q0 -25 -25 -25h-610v-96q-1 -170 73 -249t224 -79t254 115q18 20 36 2l19 -21q16 -16 2 -34q-123 -137 -307 -138q-385 0 -385 385v289z" />
    <glyph glyph-name="Edotaccent" unicode="&#x116;" horiz-adv-x="1099" 
d="M592 1567q-29 0 -49 18q-18 20 -19 49q0 29 19 47q47 47 95 -1t1 -95q-18 -18 -47 -18zM268 1280v-553h621q25 0 24 -25v-30q0 -25 -24 -25h-621v-567h711q25 0 25 -25v-30q0 -25 -25 -25h-774q-25 0 -25 25v1310q0 25 25 25h774q25 0 25 -25v-30q0 -25 -25 -25h-711z
" />
    <glyph glyph-name="edotaccent" unicode="&#x117;" horiz-adv-x="927" 
d="M481 1225q-29 0 -49 18q-18 20 -18 49t18 47q47 47 95 -1t1 -95q-18 -18 -47 -18zM201 551h553v80q0 168 -67 246q-67 77 -210 77t-210 -78t-66 -245v-80zM117 649q0 381 359 381t360 -381v-149q0 -25 -25 -25h-610v-96q-1 -170 73 -249t224 -79t254 115q18 20 36 2
l19 -21q16 -16 2 -34q-123 -137 -307 -138q-385 0 -385 385v289z" />
    <glyph glyph-name="Eogonek" unicode="&#x118;" horiz-adv-x="1099" 
d="M859 -352q-79 0 -122 38t-43 105q0 123 133 207v2h-622q-25 0 -25 25v1310q0 25 25 25h774q25 0 25 -25v-30q0 -25 -25 -25h-711v-553h621q25 0 24 -25v-30q0 -25 -24 -25h-621v-567h711q25 0 25 -25v-30q0 -25 -25 -25h-23q-195 -74 -194 -197q0 -39 28 -65t78 -27
q50 0 86 41q17 16 33 0l12 -14q16 -16 -2 -33q-59 -57 -138 -57z" />
    <glyph glyph-name="eogonek" unicode="&#x119;" horiz-adv-x="927" 
d="M201 551h553v80q0 168 -67 246q-67 77 -210 77t-210 -78t-66 -245v-80zM117 649q0 381 359 381t360 -381v-149q0 -25 -25 -25h-610v-96q-1 -170 73 -249t224 -79t254 115q18 20 36 2l19 -21q16 -16 2 -34q-55 -61 -127 -101q-152 -84 -152 -207q0 -39 28 -67t75 -27
q47 0 88 41q18 18 35 0l12 -14q14 -16 -2 -33q-59 -57 -137 -57t-123 40t-45 107q0 100 80 180v2q-12 -2 -39 -2q-385 0 -385 385v289z" />
    <glyph glyph-name="Ecaron" unicode="&#x11a;" horiz-adv-x="1099" 
d="M268 1280v-553h621q25 0 24 -25v-30q0 -25 -24 -25h-621v-567h711q25 0 25 -25v-30q0 -25 -25 -25h-774q-25 0 -25 25v1310q0 25 25 25h774q25 0 25 -25v-30q0 -25 -25 -25h-711zM571 1503q-18 0 -28 17l-176 256q-8 10 -5 18q4 8 19 8h31q14 0 26 -14l154 -217l151 217
q12 14 27 14h31q14 0 18 -8t-4 -18l-178 -256q-10 -16 -29 -17h-37z" />
    <glyph glyph-name="ecaron" unicode="&#x11b;" horiz-adv-x="927" 
d="M201 551h553v80q0 168 -67 246q-67 77 -210 77t-210 -78t-66 -245v-80zM117 649q0 381 359 381t360 -381v-149q0 -25 -25 -25h-610v-96q-1 -170 73 -249t224 -79t254 115q18 20 36 2l19 -21q16 -16 2 -34q-123 -137 -307 -138q-385 0 -385 385v289zM461 1161
q-18 0 -29 17l-176 256q-8 10 -4 18t18 8h31q14 0 27 -14l153 -217l152 217q12 14 26 14h31q14 0 18 -8t-3 -18l-179 -256q-10 -16 -28 -17h-37z" />
    <glyph glyph-name="Gcircumflex" unicode="&#x11c;" horiz-adv-x="1167" 
d="M375 1503q-14 0 -19 8q-4 8 4 19l177 256q10 16 28 16h37q18 0 29 -16l178 -256q8 -10 4 -18t-18 -9h-31q-15 1 -27 15l-151 215l-154 -215q-12 -14 -26 -15h-31zM1057 666v-197q0 -242 -118 -368t-346 -126t-347 125t-119 367v426q0 242 120 367t349 124q313 0 434 -256
q10 -23 -12 -32l-29 -15q-23 -10 -33 13q-100 211 -360 211q-195 -1 -288 -107t-93 -328v-381q0 -221 93 -327t286 -107q377 0 377 437v118h-332q-25 0 -25 25v31q0 25 25 24h393q25 1 25 -24z" />
    <glyph glyph-name="gcircumflex" unicode="&#x11d;" horiz-adv-x="997" 
d="M272 1161q-14 0 -18 8t4 19l176 256q10 16 29 16h37q18 0 28 -16l179 -256q8 -10 4 -18t-19 -9h-30q-15 1 -27 15l-152 215l-153 -215q-12 -14 -27 -15h-31zM483 78q283 0 283 325v226q0 168 -69 247q-69 78 -214 78t-214 -78t-68 -247v-226q1 -169 69 -247t213 -78z
M850 647v-651q0 -162 -97 -255t-282 -93t-311 121q-16 16 -2 34l20 25q16 18 35 0q111 -104 260 -104t221 76t72 214v140h-2q-78 -152 -289 -152q-358 0 -358 381v264q0 187 93 285t273 98t274 -97q93 -98 93 -286z" />
    <glyph glyph-name="Gbreve" unicode="&#x11e;" horiz-adv-x="1167" 
d="M780 1751h23q27 0 20 -25q-19 -88 -81 -137t-156 -49t-157 49q-62 49 -81 137q-6 25 21 25h22q18 0 25 -20q31 -119 170 -119t170 119q6 20 24 20zM1057 666v-197q0 -242 -118 -368t-346 -126t-347 125t-119 367v426q0 242 120 367t349 124q313 0 434 -256
q10 -23 -12 -32l-29 -15q-23 -10 -33 13q-100 211 -360 211q-195 -1 -288 -107t-93 -328v-381q0 -221 93 -327t286 -107q377 0 377 437v118h-332q-25 0 -25 25v31q0 25 25 24h393q25 1 25 -24z" />
    <glyph glyph-name="gbreve" unicode="&#x11f;" horiz-adv-x="997" 
d="M678 1409h22q27 0 21 -25q-19 -88 -81 -137t-156 -49t-157 49q-62 49 -81 137q-6 25 20 25h23q18 0 24 -20q31 -119 170 -119t170 119q7 20 25 20zM483 78q283 0 283 325v226q0 168 -69 247q-69 78 -214 78t-214 -78t-68 -247v-226q1 -169 69 -247t213 -78zM850 647v-651
q0 -162 -97 -255t-282 -93t-311 121q-16 16 -2 34l20 25q16 18 35 0q111 -104 260 -104t221 76t72 214v140h-2q-78 -152 -289 -152q-358 0 -358 381v264q0 187 93 285t273 98t274 -97q93 -98 93 -286z" />
    <glyph glyph-name="Gdotaccent" unicode="&#x120;" horiz-adv-x="1167" 
d="M586 1567q-29 0 -49 18q-18 20 -19 49q0 29 19 47q47 47 95 -1t1 -95q-18 -18 -47 -18zM1057 666v-197q0 -242 -118 -368t-346 -126t-347 125t-119 367v426q0 242 120 367t349 124q313 0 434 -256q10 -23 -12 -32l-29 -15q-23 -10 -33 13q-100 211 -360 211
q-195 -1 -288 -107t-93 -328v-381q0 -221 93 -327t286 -107q377 0 377 437v118h-332q-25 0 -25 25v31q0 25 25 24h393q25 1 25 -24z" />
    <glyph glyph-name="gdotaccent" unicode="&#x121;" horiz-adv-x="997" 
d="M483 1225q-29 0 -49 18q-18 20 -18 49t18 47q47 47 95 -1t1 -95q-18 -18 -47 -18zM483 78q283 0 283 325v226q0 168 -69 247q-69 78 -214 78t-214 -78t-68 -247v-226q1 -169 69 -247t213 -78zM850 647v-651q0 -162 -97 -255t-282 -93t-311 121q-16 16 -2 34l20 25
q16 18 35 0q111 -104 260 -104t221 76t72 214v140h-2q-78 -152 -289 -152q-358 0 -358 381v264q0 187 93 285t273 98t274 -97q93 -98 93 -286z" />
    <glyph glyph-name="uni0122" unicode="&#x122;" horiz-adv-x="1167" 
d="M662 -184q0 -109 -89 -146q-14 -6 -23 11t3 24q33 16 43 62q-45 0 -65 39q-19 40 14 70t75 10t42 -70zM1057 666v-197q0 -242 -118 -368t-346 -126t-347 125t-119 367v426q0 242 120 367t349 124q313 0 434 -256q10 -23 -12 -32l-29 -15q-23 -10 -33 13
q-100 211 -360 211q-195 -1 -288 -107t-93 -328v-381q0 -221 93 -327t286 -107q377 0 377 437v118h-332q-25 0 -25 25v31q0 25 25 24h393q25 1 25 -24z" />
    <glyph glyph-name="uni0123" unicode="&#x123;" horiz-adv-x="997" 
d="M483 78q283 0 283 325v226q0 168 -69 247q-69 78 -214 78t-214 -78t-68 -247v-226q1 -169 69 -247t213 -78zM850 647v-651q0 -162 -97 -255t-282 -93t-311 121q-16 16 -2 34l20 25q16 18 35 0q111 -104 260 -104t221 76t72 214v140h-2q-78 -152 -289 -152
q-358 0 -358 381v264q0 187 93 285t273 98t274 -97q93 -98 93 -286zM483 1339q43 0 63 -40q20 -39 -14 -69q-32 -30 -74 -10t-42 70q0 111 88 148q14 6 20 -6l6 -13q6 -12 -8 -20q-31 -17 -41 -60h2z" />
    <glyph glyph-name="Hcircumflex" unicode="&#x124;" horiz-adv-x="1277" 
d="M1073 0h-39q-25 0 -24 25v622h-742v-622q0 -25 -24 -25h-39q-25 0 -25 25v1310q0 25 25 25h39q25 0 24 -25v-608h742v608q0 25 24 25h39q25 0 25 -25v-1310q0 -25 -25 -25zM428 1503q-14 0 -18 8t4 19l176 256q10 16 28 16h37q18 0 29 -16l178 -256q8 -10 4 -18t-18 -9
h-31q-14 1 -26 15l-152 215l-154 -215q-12 -14 -26 -15h-31z" />
    <glyph glyph-name="hcircumflex" unicode="&#x125;" horiz-adv-x="1026" 
d="M532 1030q350 0 351 -373v-632q0 -25 -25 -25h-35q-25 0 -24 25v614q0 162 -68 239t-209 76q-274 0 -274 -315v-614q0 -25 -25 -25h-35q-25 0 -24 25v1384q0 25 24 25h35q25 0 25 -25v-524h2q77 145 282 145zM25 1567h-31q-14 0 -19 8q-4 8 5 18l176 256q10 16 28 17h37
q18 0 29 -17l178 -256q8 -10 4 -18t-18 -8h-31q-15 0 -27 14l-151 215l-154 -215q-12 -14 -26 -14z" />
    <glyph glyph-name="Hbar" unicode="&#x126;" horiz-adv-x="1296" 
d="M276 971v-244h742v244h-742zM1106 1335v-291h119q23 0 22 -22v-29q0 -23 -22 -22h-119v-946q0 -25 -25 -25h-39q-25 0 -24 25v622h-742v-622q0 -25 -24 -25h-39q-25 0 -25 25v946h-118q-23 0 -23 22v29q0 23 23 22h118v291q0 25 25 25h39q25 0 24 -25v-291h742v291
q0 25 24 25h39q25 0 25 -25z" />
    <glyph glyph-name="hbar" unicode="&#x127;" horiz-adv-x="1030" 
d="M532 1030q350 0 351 -373v-632q0 -25 -25 -25h-35q-25 0 -24 25v614q0 162 -68 239t-209 76q-274 0 -274 -315v-614q0 -25 -25 -25h-35q-25 0 -24 25v1140h-131q-25 0 -25 25v24q0 25 25 25h131v170q0 25 24 25h35q25 0 25 -25v-170h276q25 0 25 -25v-24q0 -25 -25 -25
h-276v-280h2q77 145 282 145z" />
    <glyph glyph-name="Itilde" unicode="&#x128;" horiz-adv-x="448" 
d="M272 1335v-1310q0 -25 -24 -25h-39q-25 0 -25 25v1310q0 25 25 25h39q24 0 24 -25zM2 1538h-25q-25 0 -20 23q20 123 104 159t191 -57q53 -53 92 -53q74 0 92 100q2 18 21 19h24q25 0 21 -23q-20 -123 -104 -160t-191 58q-53 53 -92 53q-74 0 -92 -101q-3 -18 -21 -18z
" />
    <glyph glyph-name="itilde" unicode="&#x129;" horiz-adv-x="401" 
d="M188 1006h35q25 0 25 -25v-956q0 -25 -25 -25h-35q-25 0 -24 25v956q-1 25 24 25zM-23 1196h-24q-25 0 -21 23q20 123 104 159t191 -57q53 -53 92 -53q74 0 93 100q2 18 20 18h25q25 0 20 -22q-20 -123 -104 -160t-191 58q-53 53 -92 53q-74 0 -92 -101q-3 -18 -21 -18z
" />
    <glyph glyph-name="Imacron" unicode="&#x12a;" horiz-adv-x="448" 
d="M477 1640v-24q0 -25 -24 -25h-457q-25 0 -25 25v24q0 25 25 25h457q24 0 24 -25zM268 1335v-1310q0 -25 -24 -25h-39q-25 0 -25 25v1310q0 25 25 25h39q24 0 24 -25z" />
    <glyph glyph-name="imacron" unicode="&#x12b;" horiz-adv-x="401" 
d="M453 1298v-24q0 -25 -25 -25h-457q-25 0 -24 25v24q0 25 24 25h457q25 0 25 -25zM184 1006h35q25 0 25 -25v-956q0 -25 -25 -25h-35q-25 0 -24 25v956q-1 25 24 25z" />
    <glyph glyph-name="Ibreve" unicode="&#x12c;" horiz-adv-x="448" 
d="M274 1335v-1310q0 -25 -24 -25h-39q-25 0 -25 25v1310q0 25 25 25h39q24 0 24 -25zM426 1751h23q27 0 20 -25q-19 -88 -81 -137t-156 -49t-157 49q-62 49 -81 137q-6 25 20 25h23q18 0 24 -20q31 -119 170 -119t170 119q7 20 25 20z" />
    <glyph glyph-name="ibreve" unicode="&#x12d;" horiz-adv-x="401" 
d="M190 1006h35q25 0 25 -25v-956q0 -25 -25 -25h-35q-25 0 -24 25v956q-1 25 24 25zM401 1409h23q27 0 20 -25q-18 -88 -80 -137t-156 -49t-158 49q-62 49 -81 137q-6 25 21 25h22q18 0 25 -20q31 -119 170 -119t170 119q6 20 24 20z" />
    <glyph glyph-name="Iogonek" unicode="&#x12e;" horiz-adv-x="448" 
d="M204 -352q-77 0 -121 41t-44 108q0 131 141 226v1312q0 25 25 25h39q25 0 24 -25v-1310q0 -14 -16 -25q-143 -82 -143 -193q-1 -41 27 -69t73 -27q45 0 92 41q19 18 33 0l12 -14q14 -16 -2 -33q-63 -57 -140 -57z" />
    <glyph glyph-name="iogonek" unicode="&#x12f;" horiz-adv-x="401" 
d="M201 1225q-29 0 -49 18q-18 20 -19 49q0 29 19 47q47 47 95 -1t1 -95q-18 -18 -47 -18zM198 -352q-80 0 -124 41t-43 108q0 121 129 223v961q0 25 24 25h35q25 0 25 -25v-956q0 -16 -11 -23q-133 -92 -133 -195q0 -41 28 -69t76 -27q48 0 89 41q19 18 33 0l12 -14
q14 -16 -2 -33q-58 -57 -138 -57z" />
    <glyph glyph-name="Idot" unicode="&#x130;" horiz-adv-x="448" 
d="M268 1335v-1310q0 -25 -24 -25h-39q-25 0 -25 25v1310q0 25 25 25h39q24 0 24 -25zM225 1567q-29 0 -49 18q-18 20 -18 49t18 47q47 47 95 -1t1 -95q-18 -18 -47 -18z" />
    <glyph glyph-name="dotlessi" unicode="&#x131;" horiz-adv-x="401" 
d="M184 1006h35q25 0 25 -25v-956q0 -25 -25 -25h-35q-25 0 -24 25v956q-1 25 24 25z" />
    <glyph glyph-name="IJ" unicode="&#x132;" horiz-adv-x="1492" 
d="M268 1335v-1310q0 -25 -24 -25h-39q-25 0 -25 25v1310q0 25 25 25h39q24 0 24 -25zM1339 1335v-886q0 -231 -111 -353q-112 -121 -327 -121q-279 0 -412 232q-12 23 11 35l26 16q23 12 35 -8q109 -195 338 -195q180 -1 266 101t86 313v866q0 25 25 25h39q24 0 24 -25z
" />
    <glyph glyph-name="ij" unicode="&#x133;" horiz-adv-x="802" 
d="M383 -252h2q176 0 176 193v1040q0 25 25 25h35q25 0 24 -25v-1040q0 -268 -252 -269h-10q-25 0 -25 25v27q0 24 25 24zM602 1225q-29 0 -49 18q-18 20 -18 49t18 47q47 47 95 -1t1 -95q-18 -18 -47 -18zM219 0h-35q-25 0 -24 25v956q0 25 24 25h35q25 0 25 -25v-956
q0 -25 -25 -25zM201 1225q-29 0 -49 18q-18 20 -19 49q0 29 19 47q47 47 95 -1t1 -95q-18 -18 -47 -18z" />
    <glyph glyph-name="Jcircumflex" unicode="&#x134;" horiz-adv-x="1056" 
d="M915 1335v-886q0 -231 -111 -353q-112 -121 -327 -121q-279 0 -411 232q-12 23 10 35l26 16q23 12 35 -8q109 -195 338 -195q180 -1 266 101t86 313v866q0 25 25 25h39q24 0 24 -25zM659 1503q-14 0 -18 8t4 19l176 256q10 16 29 16h37q18 0 28 -16l179 -256q8 -10 4 -18
t-19 -9h-30q-15 1 -27 15l-152 215l-153 -215q-12 -14 -27 -15h-31z" />
    <glyph glyph-name="jcircumflex" unicode="&#x135;" horiz-adv-x="401" 
d="M-18 -252h2q176 0 176 193v1040q0 25 24 25h35q25 0 25 -25v-1040q0 -268 -252 -269h-10q-25 0 -25 25v27q0 24 25 24zM-10 1161q-14 0 -19 8q-4 8 4 19l177 256q10 16 28 16h37q18 0 29 -16l178 -256q8 -10 4 -18t-18 -9h-31q-15 1 -27 15l-151 215l-154 -215
q-12 -14 -27 -15h-30z" />
    <glyph glyph-name="uni0136" unicode="&#x136;" horiz-adv-x="1107" 
d="M657 -184q0 -109 -88 -146q-14 -6 -23 11t3 24q33 16 43 62q-45 0 -65 39q-19 40 14 70t75 10t41 -70zM244 0h-39q-25 0 -25 25v1310q0 25 25 25h39q25 0 24 -25v-622l639 635q12 12 31 12h57q17 0 21 -9t-8 -22l-646 -639l668 -659q12 -11 8 -21t-20 -10h-64
q-18 0 -30 12l-656 654v-641q1 -25 -24 -25z" />
    <glyph glyph-name="uni0137" unicode="&#x137;" horiz-adv-x="866" 
d="M551 -184q0 -109 -88 -146q-14 -6 -24 11t3 24q33 16 43 62q-45 -1 -64 39t13 70t75 10q42 -20 42 -70zM244 25q0 -25 -25 -25h-35q-25 0 -24 25v1384q0 25 24 25h35q25 0 25 -25v-872l454 456q12 12 31 13h55q16 0 20 -10t-7 -21l-465 -461l487 -483q12 -11 8 -21
t-20 -10h-57q-19 0 -31 12l-475 477v-464z" />
    <glyph glyph-name="kgreenlandic" unicode="&#x138;" horiz-adv-x="866" 
d="M244 25q0 -25 -25 -25h-35q-25 0 -24 25v956q0 25 24 25h35q25 0 25 -25v-444l454 456q12 12 31 13h55q16 0 20 -10t-7 -21l-465 -461l487 -483q12 -11 8 -21t-20 -10h-57q-19 0 -31 12l-475 477v-464z" />
    <glyph glyph-name="Lacute" unicode="&#x139;" horiz-adv-x="1013" 
d="M977 55v-30q0 -25 -25 -25h-743q-25 0 -25 25v1310q0 25 25 25h39q25 0 24 -25v-1255h680q25 0 25 -25zM199 1503q-14 0 -19 8q-4 8 4 19l168 256q10 16 29 16h41q34 1 16 -30l-180 -254q-12 -14 -27 -15h-32z" />
    <glyph glyph-name="lacute" unicode="&#x13a;" horiz-adv-x="401" 
d="M223 0h-35q-25 0 -24 25v1384q0 25 24 25h35q25 0 25 -25v-1384q0 -25 -25 -25zM207 1567h-33q-14 0 -18 8t4 18l168 256q10 16 28 17h41q35 0 17 -31l-181 -254q-12 -14 -26 -14z" />
    <glyph glyph-name="uni013B" unicode="&#x13b;" horiz-adv-x="1013" 
d="M637 -184q0 -109 -88 -146q-14 -6 -24 11t3 24q33 16 43 62q-45 -1 -64 39t13 70t75 10q42 -20 42 -70zM973 55v-30q0 -25 -25 -25h-743q-25 0 -25 25v1310q0 25 25 25h39q25 0 24 -25v-1255h680q25 0 25 -25z" />
    <glyph glyph-name="uni013C" unicode="&#x13c;" horiz-adv-x="401" 
d="M219 0h-35q-25 0 -24 25v1384q0 25 24 25h35q25 0 25 -25v-1384q0 -25 -25 -25zM268 -184q0 -109 -88 -146q-14 -6 -23 11t3 24q33 16 43 62q-45 0 -65 39q-19 40 14 70q32 30 74 10t42 -70z" />
    <glyph glyph-name="Lcaron" unicode="&#x13d;" horiz-adv-x="1013" 
d="M496 1057h-19q-27 0 -22 24l43 330q4 23 24 23h29q24 0 22 -27l-53 -330q-2 -20 -24 -20zM973 55v-30q0 -25 -25 -25h-743q-25 0 -25 25v1310q0 25 25 25h39q25 0 24 -25v-1255h680q25 0 25 -25z" />
    <glyph glyph-name="lcaron" unicode="&#x13e;" horiz-adv-x="401" 
d="M393 1057h-18q-27 0 -23 24l43 330q4 23 25 23h29q24 0 22 -27l-53 -330q-2 -20 -25 -20zM219 0h-35q-25 0 -24 25v1384q0 25 24 25h35q25 0 25 -25v-1384q0 -25 -25 -25z" />
    <glyph glyph-name="Ldot" unicode="&#x13f;" horiz-adv-x="1013" 
d="M662 680q0 29 18 47q47 47 95 -1t1 -95q-18 -19 -47 -19t-49 19q-18 20 -18 49zM973 55v-30q0 -25 -25 -25h-743q-25 0 -25 25v1310q0 25 25 25h39q25 0 24 -25v-1255h680q25 0 25 -25z" />
    <glyph glyph-name="ldot" unicode="&#x140;" horiz-adv-x="436" 
d="M219 0h-35q-25 0 -24 25v1384q0 25 24 25h35q25 0 25 -25v-1384q0 -25 -25 -25zM465 631q-18 -19 -47 -19t-49 19q-18 20 -19 49q0 29 19 47q47 47 95 -1t1 -95z" />
    <glyph glyph-name="Lslash" unicode="&#x141;" horiz-adv-x="1032" 
d="M287 80h680q25 0 24 -25v-30q0 -25 -24 -25h-744q-25 0 -24 25v409l-117 -82q-31 -20 -31 15v39q0 20 17 30l131 92v807q0 25 24 25h39q25 0 25 -25v-745l463 325q31 23 30 -14v-39q0 -20 -16 -31l-477 -335v-416z" />
    <glyph glyph-name="lslash" unicode="&#x142;" horiz-adv-x="442" 
d="M264 1409v-530l137 104q11 10 21 5t10 -19v-35q0 -18 -14 -31l-154 -117v-761q0 -25 -24 -25h-35q-25 0 -25 25v698l-139 -107q-12 -10 -22 -5q-9 5 -9 20v35q0 18 15 30l155 119v594q0 25 25 25h35q24 0 24 -25z" />
    <glyph glyph-name="Nacute" unicode="&#x143;" horiz-adv-x="1277" 
d="M608 1503q-14 0 -18 8t4 19l168 256q10 16 29 16h40q35 1 17 -30l-180 -254q-12 -14 -27 -15h-33zM1073 0h-45q-18 0 -29 16l-731 1196h-2v-1187q0 -25 -24 -25h-37q-25 0 -25 25v1310q0 25 25 25h53q18 0 29 -17l723 -1183h2v1175q0 25 24 25h37q25 0 25 -25v-1310
q0 -25 -25 -25z" />
    <glyph glyph-name="nacute" unicode="&#x144;" horiz-adv-x="1015" 
d="M477 1161q-14 0 -18 8t4 19l168 256q10 16 28 16h41q35 1 17 -30l-180 -254q-12 -14 -27 -15h-33zM784 25v614q0 162 -66 239q-67 76 -209 76t-210 -76t-68 -239v-614q0 -25 -24 -25h-35q-25 0 -25 25v632q1 185 93 279t268 94t268 -94t92 -279v-632q0 -25 -24 -25h-35
q-25 0 -25 25z" />
    <glyph glyph-name="uni0145" unicode="&#x145;" horiz-adv-x="1277" 
d="M707 -184q0 -109 -89 -146q-14 -6 -23 11t3 24q33 16 43 62q-45 -1 -64 39t13 70t75 10q42 -20 42 -70zM1073 0h-45q-18 0 -29 16l-731 1196h-2v-1187q0 -25 -24 -25h-37q-25 0 -25 25v1310q0 25 25 25h53q18 0 29 -17l723 -1183h2v1175q0 25 24 25h37q25 0 25 -25v-1310
q0 -25 -25 -25z" />
    <glyph glyph-name="uni0146" unicode="&#x146;" horiz-adv-x="1015" 
d="M575 -184q0 -109 -88 -146q-14 -6 -23 11t3 24q33 16 43 62q-45 0 -65 39q-19 40 14 70t75 10t41 -70zM784 25v614q0 162 -66 239q-67 76 -209 76t-210 -76t-68 -239v-614q0 -25 -24 -25h-35q-25 0 -25 25v632q1 185 93 279t268 94t268 -94t92 -279v-632q0 -25 -24 -25
h-35q-25 0 -25 25z" />
    <glyph glyph-name="Ncaron" unicode="&#x147;" horiz-adv-x="1277" 
d="M1073 0h-45q-18 0 -29 16l-731 1196h-2v-1187q0 -25 -24 -25h-37q-25 0 -25 25v1310q0 25 25 25h53q18 0 29 -17l723 -1183h2v1175q0 25 24 25h37q25 0 25 -25v-1310q0 -25 -25 -25zM618 1503q-18 0 -28 17l-176 256q-8 10 -4 18t18 8h31q14 0 26 -14l154 -217l152 217
q12 14 26 14h31q14 0 18 -8t-4 -18l-178 -256q-10 -16 -29 -17h-37z" />
    <glyph glyph-name="ncaron" unicode="&#x148;" horiz-adv-x="1015" 
d="M784 25v614q0 162 -66 239q-67 76 -209 76t-210 -76t-68 -239v-614q0 -25 -24 -25h-35q-25 0 -25 25v632q1 185 93 279t268 94t268 -94t92 -279v-632q0 -25 -24 -25h-35q-25 0 -25 25zM487 1161q-18 0 -28 17l-176 256q-8 10 -4 18t18 8h31q14 0 26 -14l154 -217l151 217
q12 14 27 14h31q14 0 18 -8t-4 -18l-178 -256q-10 -16 -29 -17h-37z" />
    <glyph glyph-name="napostrophe" unicode="&#x149;" horiz-adv-x="1015" 
d="M272 1327q0 -129 -106 -217q-14 -8 -27 8t-2 27q55 47 66 131q-69 0 -69 69q0 35 34 53q35 18 70 -2q34 -20 34 -69zM791 25v614q0 162 -67 239q-67 76 -209 76t-210 -76t-67 -239v-614q0 -25 -25 -25h-35q-25 0 -24 25v632q0 185 92 279t268 94t268 -94t92 -279v-632
q0 -25 -24 -25h-35q-24 0 -24 25z" />
    <glyph glyph-name="Eng" unicode="&#x14a;" horiz-adv-x="1277" 
d="M1036 1360h37q25 0 25 -25v-1394q0 -268 -252 -269h-51q-25 0 -25 25v31q0 25 25 24h41q176 0 176 189v53l-744 1218h-2v-1187q0 -25 -24 -25h-37q-25 0 -25 25v1310q0 25 25 25h53q18 0 29 -17l723 -1183h2v1175q-1 25 24 25z" />
    <glyph glyph-name="eng" unicode="&#x14b;" horiz-adv-x="1013" 
d="M784 -59v698q0 162 -66 239q-67 76 -209 76t-210 -76t-68 -239v-614q0 -25 -24 -25h-35q-25 0 -25 25v632q1 185 93 279t268 94t268 -94t92 -279v-716q0 -268 -252 -269h-10q-25 0 -24 25v27q0 25 24 24h2q176 0 176 193z" />
    <glyph glyph-name="Omacron" unicode="&#x14c;" horiz-adv-x="1191" 
d="M848 1640v-24q0 -25 -25 -25h-456q-25 0 -25 25v24q0 25 25 25h456q25 0 25 -25zM215 872v-385q0 -219 93 -325t288 -106t288 106t93 325v385q0 220 -93 326t-288 106t-288 -106q-93 -107 -93 -326zM127 467v426q0 242 120 367q120 124 349 124t349 -124t120 -367v-426
q0 -242 -120 -367t-349 -125t-349 125t-120 367z" />
    <glyph glyph-name="omacron" unicode="&#x14d;" horiz-adv-x="966" 
d="M735 1298v-24q0 -25 -24 -25h-457q-25 0 -25 25v24q0 25 25 25h457q24 0 24 -25zM766 377v254q0 166 -69 245q-69 78 -214 78t-214 -78t-68 -245v-254q1 -168 69 -247t213 -79t214 79t69 247zM850 649v-293q0 -186 -93 -283t-273 -97t-274 96q-93 98 -93 284v293
q1 381 367 381t366 -381z" />
    <glyph glyph-name="Obreve" unicode="&#x14e;" horiz-adv-x="1191" 
d="M791 1751h22q27 0 21 -25q-18 -88 -80 -137t-158 -49q-94 0 -157 49q-62 49 -81 137q-6 25 21 25h22q18 0 25 -20q14 -55 59 -87t111 -32t111 32t59 87q7 20 25 20zM215 872v-385q0 -219 93 -325t288 -106t288 106t93 325v385q0 220 -93 326t-288 106t-288 -106
q-93 -107 -93 -326zM127 467v426q0 242 120 367q120 124 349 124t349 -124t120 -367v-426q0 -242 -120 -367t-349 -125t-349 125t-120 367z" />
    <glyph glyph-name="obreve" unicode="&#x14f;" horiz-adv-x="966" 
d="M678 1409h22q27 0 21 -25q-19 -88 -81 -137t-156 -49t-157 49q-62 49 -81 137q-6 25 20 25h23q18 0 24 -20q31 -119 170 -119t170 119q7 20 25 20zM766 377v254q0 166 -69 245q-69 78 -214 78t-214 -78t-68 -245v-254q1 -168 69 -247t213 -79t214 79t69 247zM850 649
v-293q0 -186 -93 -283t-273 -97t-274 96q-93 98 -93 284v293q1 381 367 381t366 -381z" />
    <glyph glyph-name="Ohungarumlaut" unicode="&#x150;" horiz-adv-x="1191" 
d="M215 872v-385q0 -219 93 -325t288 -106t288 106t93 325v385q0 220 -93 326t-288 106t-288 -106q-93 -107 -93 -326zM127 467v426q0 242 120 367q120 124 349 124t349 -124t120 -367v-426q0 -242 -120 -367t-349 -125t-349 125t-120 367zM711 1503q-29 0 -15 27l152 256
q10 16 29 16h38q40 1 17 -30l-166 -254q-12 -14 -29 -15h-26zM434 1503q-29 0 -14 27l151 256q10 16 29 16h37q39 1 16 -30l-166 -254q-12 -14 -28 -15h-25z" />
    <glyph glyph-name="ohungarumlaut" unicode="&#x151;" horiz-adv-x="966" 
d="M766 377v254q0 166 -69 245q-69 78 -214 78t-214 -78t-68 -245v-254q1 -168 69 -247t213 -79t214 79t69 247zM850 649v-293q0 -186 -93 -283t-273 -97t-274 96q-93 98 -93 284v293q1 381 367 381t366 -381zM598 1161q-29 0 -14 27l151 256q10 16 29 16h39q36 1 16 -30
l-166 -254q-12 -14 -28 -15h-27zM322 1161q-29 0 -15 27l152 256q10 16 28 16h37q37 1 17 -30l-166 -254q-12 -14 -29 -15h-24z" />
    <glyph glyph-name="OE" unicode="&#x152;" horiz-adv-x="1857" 
d="M938 80v1200h-340q-195 0 -289 -99t-94 -307v-389q0 -207 94 -306t289 -99h340zM1026 1280v-553h621q25 0 24 -25v-30q0 -25 -24 -25h-621v-567h711q25 0 24 -25v-30q0 -25 -24 -25h-1141q-469 0 -469 463v434q0 463 469 463h1141q25 0 24 -25v-30q0 -25 -24 -25h-711z
" />
    <glyph glyph-name="oe" unicode="&#x153;" horiz-adv-x="1576" 
d="M850 551h553v80q0 168 -67 246q-67 77 -210 77t-210 -78t-66 -245v-80zM766 377v254q0 166 -69 245q-69 78 -214 78t-214 -78t-68 -245v-254q1 -168 69 -247t213 -79t214 79t69 247zM1130 1030q174 0 264 -97t91 -284v-147q0 -25 -25 -25h-610v-98q0 -170 74 -249
t224 -79t253 115q18 20 37 2l18 -21q18 -16 0 -34q-123 -137 -303 -138q-268 0 -346 213h-2q-61 -213 -326 -213q-178 -1 -270 97t-92 284v293q0 185 92 283t270 98q258 0 328 -209h2q61 209 321 209z" />
    <glyph glyph-name="Racute" unicode="&#x154;" horiz-adv-x="1161" 
d="M537 1503q-14 0 -19 8q-4 8 4 19l168 256q10 16 29 16h41q34 1 16 -30l-180 -254q-12 -14 -27 -15h-32zM268 1280v-627h299q195 0 287 76t92 238q0 161 -92 237t-287 76h-299zM268 573v-548q0 -25 -24 -25h-39q-25 0 -25 25v1310q0 25 25 25h362q240 0 354 -96t113 -297
q0 -338 -336 -385l359 -551q20 -31 -17 -31h-53q-18 0 -29 16l-354 557h-336z" />
    <glyph glyph-name="racute" unicode="&#x155;" horiz-adv-x="739" 
d="M147 25v659q0 346 318 346q137 0 225 -69q20 -12 4 -35l-16 -23q-12 -20 -35 -4q-69 55 -183 55t-171 -68t-58 -218v-643q0 -25 -24 -25h-35q-25 0 -25 25zM393 1161q-14 0 -18 8t4 19l168 256q10 16 28 16h41q35 1 17 -30l-180 -254q-12 -14 -27 -15h-33z" />
    <glyph glyph-name="uni0156" unicode="&#x156;" horiz-adv-x="1161" 
d="M676 -184q0 -109 -88 -146q-14 -6 -24 11t3 24q35 16 43 62q-45 -1 -64 39q-18 40 14 70t74 10t42 -70zM268 1280v-627h299q195 0 287 76t92 238q0 161 -92 237t-287 76h-299zM268 573v-548q0 -25 -24 -25h-39q-25 0 -25 25v1310q0 25 25 25h362q240 0 354 -96t113 -297
q0 -338 -336 -385l359 -551q20 -31 -17 -31h-53q-18 0 -29 16l-354 557h-336z" />
    <glyph glyph-name="uni0157" unicode="&#x157;" horiz-adv-x="739" 
d="M258 -184q0 -109 -88 -146q-14 -6 -24 11t4 24q35 16 43 62q-45 0 -65 39q-18 40 14 70t74 10t42 -70zM147 25v659q0 346 318 346q137 0 225 -69q20 -12 4 -35l-16 -23q-12 -20 -35 -4q-69 55 -183 55t-171 -68t-58 -218v-643q0 -25 -24 -25h-35q-25 0 -25 25z" />
    <glyph glyph-name="Rcaron" unicode="&#x158;" horiz-adv-x="1161" 
d="M547 1503q-18 0 -29 17l-176 256q-8 10 -4 18t18 8h31q14 0 27 -14l153 -217l152 217q12 14 26 14h31q14 0 18 -8t-3 -18l-179 -256q-10 -16 -28 -17h-37zM268 1280v-627h299q195 0 287 76t92 238q0 161 -92 237t-287 76h-299zM268 573v-548q0 -25 -24 -25h-39
q-25 0 -25 25v1310q0 25 25 25h362q240 0 354 -96t113 -297q0 -338 -336 -385l359 -551q20 -31 -17 -31h-53q-18 0 -29 16l-354 557h-336z" />
    <glyph glyph-name="rcaron" unicode="&#x159;" horiz-adv-x="739" 
d="M147 25v659q0 346 318 346q137 0 225 -69q20 -12 4 -35l-16 -23q-12 -20 -35 -4q-69 55 -183 55t-171 -68t-58 -218v-643q0 -25 -24 -25h-35q-25 0 -25 25zM403 1161q-18 0 -28 17l-176 256q-8 10 -4 18t18 8h31q14 0 26 -14l154 -217l151 217q12 14 27 14h31q14 0 18 -8
t-4 -18l-178 -256q-10 -16 -29 -17h-37z" />
    <glyph glyph-name="Sacute" unicode="&#x15a;" horiz-adv-x="1034" 
d="M506 1503q-14 0 -19 8q-4 8 5 19l167 256q10 16 29 16h41q34 1 16 -30l-180 -254q-12 -14 -26 -15h-33zM537 1384q276 0 401 -180q14 -20 -4 -37l-27 -20q-20 -14 -37 8q-100 150 -331 150q-152 0 -245 -81t-93 -210t83 -196q84 -68 298 -104t308 -118t93 -250
q0 -168 -116 -269t-306 -102q-315 0 -465 211q-12 18 6 33l25 23q18 16 35 -6q131 -180 397 -181q152 0 245 81t93 210q0 128 -80 192q-79 64 -295 99t-312 121q-95 86 -95 254t114 270q120 102 308 102z" />
    <glyph glyph-name="sacute" unicode="&#x15b;" horiz-adv-x="841" 
d="M408 1161q-14 0 -19 8q-4 8 4 19l168 256q10 16 29 16h41q34 1 16 -30l-180 -254q-12 -14 -27 -15h-32zM459 -25q-236 0 -363 134q-16 16 0 34l19 21q16 18 35 0q106 -113 303 -113q121 1 189 57t67 154t-63 146t-227 68q-165 22 -237 82t-72 188t94 206q93 78 262 78
t284 -96q16 -16 2 -35l-15 -20q-16 -25 -39 -2q-90 77 -226 77t-207 -56t-71 -150t59 -135q59 -42 189 -59t202 -46q72 -28 109 -84q36 -56 40 -160q-1 -133 -91 -211t-243 -78z" />
    <glyph glyph-name="Scircumflex" unicode="&#x15c;" horiz-adv-x="1034" 
d="M326 1503q-14 0 -19 8q-4 8 4 19l176 256q10 16 29 16h37q18 0 29 -16l178 -256q8 -10 4 -18t-19 -9h-30q-15 1 -27 15l-151 215l-154 -215q-12 -14 -27 -15h-30zM537 1384q276 0 401 -180q14 -20 -4 -37l-27 -20q-20 -14 -37 8q-100 150 -331 150q-152 0 -245 -81
t-93 -210t83 -196q84 -68 298 -104t308 -118t93 -250q0 -168 -116 -269t-306 -102q-315 0 -465 211q-12 18 6 33l25 23q18 16 35 -6q131 -180 397 -181q152 0 245 81t93 210q0 128 -80 192q-79 64 -295 99t-312 121q-95 86 -95 254t114 270q120 102 308 102z" />
    <glyph glyph-name="scircumflex" unicode="&#x15d;" horiz-adv-x="841" 
d="M227 1161q-14 0 -18 8t4 19l176 256q10 16 29 16h37q18 0 28 -16l179 -256q8 -10 4 -18t-19 -9h-31q-14 1 -26 15l-152 215l-153 -215q-12 -14 -27 -15h-31zM459 -25q-236 0 -363 134q-16 16 0 34l19 21q16 18 35 0q106 -113 303 -113q121 1 189 57t67 154t-63 146
t-227 68q-165 22 -237 82t-72 188t94 206q93 78 262 78t284 -96q16 -16 2 -35l-15 -20q-16 -25 -39 -2q-90 77 -226 77t-207 -56t-71 -150t59 -135q59 -42 189 -59t202 -46q72 -28 109 -84q36 -56 40 -160q-1 -133 -91 -211t-243 -78z" />
    <glyph glyph-name="Scedilla" unicode="&#x15e;" horiz-adv-x="1034" 
d="M897 346q0 128 -80 192q-79 64 -295 99t-312 121q-95 86 -95 254t114 270q119 102 308 102q276 0 401 -180q14 -20 -4 -37l-27 -20q-20 -14 -37 8q-100 150 -331 150q-152 0 -245 -81t-93 -210t83 -196q84 -68 298 -104t308 -118t93 -247q0 -165 -111 -267t-294 -107
l-19 -86q147 -4 148 -112q0 -61 -44 -95t-128 -34t-148 39q-14 12 -6 30l10 19q8 20 31 8q47 -33 113 -33q102 0 102 68q-4 66 -121 65h-6q-25 0 -18 25l22 108q-281 14 -418 209q-12 18 6 33l25 23q18 16 35 -6q131 -180 397 -181q152 0 245 81t93 210z" />
    <glyph glyph-name="scedilla" unicode="&#x15f;" horiz-adv-x="841" 
d="M453 51q121 1 189 57t67 154t-63 146t-227 68q-165 22 -237 82t-72 188t94 206q93 78 262 78t284 -96q16 -16 2 -35l-15 -20q-16 -25 -39 -2q-90 77 -226 77t-207 -56t-71 -150t59 -135q59 -42 189 -59t202 -46t109 -84q36 -55 40 -160q0 -129 -85 -206t-229 -83l-18 -86
q147 -4 147 -112q0 -61 -44 -95t-128 -34t-147 39q-14 12 -6 30l10 19q8 20 31 8q47 -33 112 -33q102 0 103 68q-4 66 -121 65h-6q-25 0 -19 25l23 108q-203 11 -320 132q-16 16 0 34l19 21q16 18 35 0q106 -113 303 -113z" />
    <glyph glyph-name="Scaron" unicode="&#x160;" horiz-adv-x="1034" 
d="M516 1503q-18 0 -29 17l-176 256q-8 10 -4 18t19 8h30q14 0 27 -14l154 -217l151 217q12 14 27 14h30q15 0 19 -8t-4 -18l-178 -256q-10 -16 -29 -17h-37zM537 1384q276 0 401 -180q14 -20 -4 -37l-27 -20q-20 -14 -37 8q-100 150 -331 150q-152 0 -245 -81t-93 -210
t83 -196q84 -68 298 -104t308 -118t93 -250q0 -168 -116 -269t-306 -102q-315 0 -465 211q-12 18 6 33l25 23q18 16 35 -6q131 -180 397 -181q152 0 245 81t93 210q0 128 -80 192q-79 64 -295 99t-312 121q-95 86 -95 254t114 270q120 102 308 102z" />
    <glyph glyph-name="scaron" unicode="&#x161;" horiz-adv-x="841" 
d="M418 1161q-18 0 -29 17l-176 256q-8 10 -4 18t18 8h31q14 0 27 -14l153 -217l152 217q12 14 26 14h31q15 0 19 -8t-4 -18l-179 -256q-10 -16 -28 -17h-37zM459 -25q-236 0 -363 134q-16 16 0 34l19 21q16 18 35 0q106 -113 303 -113q121 1 189 57t67 154t-63 146t-227 68
q-165 22 -237 82t-72 188t94 206q93 78 262 78t284 -96q16 -16 2 -35l-15 -20q-16 -25 -39 -2q-90 77 -226 77t-207 -56t-71 -150t59 -135q59 -42 189 -59t202 -46q72 -28 109 -84q36 -56 40 -160q-1 -133 -91 -211t-243 -78z" />
    <glyph glyph-name="uni0162" unicode="&#x162;" horiz-adv-x="976" 
d="M66 1360h845q25 0 25 -25v-30q0 -25 -25 -25h-379v-1255q0 -16 -12 -23l-22 -113q147 -4 147 -112q0 -61 -44 -95t-128 -34t-147 39q-14 12 -7 30l11 19q8 20 30 8q47 -33 113 -33q102 0 102 68q-4 66 -120 65h-6q-25 0 -19 25l27 133q-12 6 -13 23v1255h-378
q-25 0 -25 25v30q0 25 25 25z" />
    <glyph glyph-name="uni0163" unicode="&#x163;" horiz-adv-x="714" 
d="M569 -223q0 -61 -44 -95t-128 -34t-147 39q-16 12 -6 30l10 19q8 20 31 8q47 -33 112 -33q102 0 103 68q-4 66 -121 65h-6q-25 0 -19 25l25 119q-176 53 -176 276v666h-140q-25 0 -24 24v27q0 25 24 25h140v254q0 25 24 24h35q25 0 25 -24v-254h336q25 0 24 -25v-27
q0 -25 -24 -24h-336v-656q0 -223 198 -223q74 0 144 45q21 15 33 -8l12 -22q8 -18 -8 -35q-80 -55 -187 -56l-39 2l-18 -88q147 -4 147 -112z" />
    <glyph glyph-name="Tcaron" unicode="&#x164;" horiz-adv-x="976" 
d="M911 1280h-379v-1255q0 -25 -24 -25h-39q-25 0 -25 25v1255h-378q-25 0 -25 25v30q0 25 25 25h845q25 0 25 -25v-30q0 -25 -25 -25zM467 1503q-18 0 -29 17l-176 256q-8 10 -4 18t18 8h31q14 0 27 -14l153 -217l152 217q12 14 27 14h30q14 0 18 -8t-3 -18l-179 -256
q-10 -16 -28 -17h-37z" />
    <glyph glyph-name="tcaron" unicode="&#x165;" horiz-adv-x="714" 
d="M551 1122q-27 0 -23 25l43 330q4 23 25 22h29q24 1 22 -26l-53 -330q-2 -20 -25 -21h-18zM203 930h-140q-25 0 -24 24v27q0 25 24 25h140v254q0 25 24 24h35q25 0 25 -24v-254h336q25 0 24 -25v-27q0 -25 -24 -24h-336v-656q0 -223 198 -223q74 0 144 45q21 15 33 -8
l12 -22q8 -18 -8 -35q-80 -55 -201 -55t-192 74q-71 75 -70 214v666z" />
    <glyph glyph-name="Tbar" unicode="&#x166;" horiz-adv-x="976" 
d="M66 1360h845q25 0 25 -25v-30q0 -25 -25 -25h-379v-489h246q23 0 23 -23v-29q0 -23 -23 -22h-246v-692q0 -25 -24 -25h-39q-25 0 -25 25v692h-254q-23 0 -22 22v29q0 23 22 23h254v489h-378q-25 0 -25 25v30q0 25 25 25z" />
    <glyph glyph-name="tbar" unicode="&#x167;" horiz-adv-x="741" 
d="M217 264v275h-119q-25 0 -24 24v25q0 25 24 24h119v318h-139q-25 0 -25 24v27q0 25 25 25h139v254q0 25 25 24h34q25 0 25 -24v-254h336q25 0 25 -25v-27q0 -25 -25 -24h-336v-318h295q25 0 25 -24v-25q0 -25 -25 -24h-295v-265q0 -223 199 -223q74 0 143 45q21 15 33 -8
l12 -22q8 -18 -8 -35q-80 -55 -200 -55t-192 74q-71 75 -71 214z" />
    <glyph glyph-name="Utilde" unicode="&#x168;" horiz-adv-x="1204" 
d="M1049 1335v-886q0 -231 -114 -353t-333 -121q-219 0 -333 121t-113 353v886q0 25 24 25h39q25 0 25 -25v-866q0 -211 88 -312t270 -101t271 100q89 102 90 313v866q0 25 24 25h37q25 0 25 -25zM375 1538h-25q-25 0 -20 23q20 123 104 159t191 -57q53 -53 92 -53
q74 0 92 100q2 18 20 19h25q25 0 20 -23q-20 -123 -104 -160t-190 58q-53 53 -93 53q-74 0 -92 -101q-2 -18 -20 -18z" />
    <glyph glyph-name="utilde" unicode="&#x169;" horiz-adv-x="1003" 
d="M274 1196h-24q-25 0 -21 23q21 123 105 159t190 -57q53 -53 92 -53q74 0 93 100q4 18 20 18h25q25 0 20 -22q-20 -123 -104 -160t-191 58q-53 53 -92 53q-74 0 -92 -101q-5 -18 -21 -18zM856 981v-639q0 -180 -90 -273t-264 -93t-264 92q-90 94 -91 274v639q0 25 25 25
h35q25 0 24 -25v-621q0 -160 66 -234t205 -75q139 0 206 75t66 234v621q0 25 25 25h32q25 0 25 -25z" />
    <glyph glyph-name="Umacron" unicode="&#x16a;" horiz-adv-x="1204" 
d="M854 1640v-24q0 -25 -25 -25h-456q-25 0 -25 25v24q0 25 25 25h456q25 0 25 -25zM1049 1335v-886q0 -231 -114 -353t-333 -121q-219 0 -333 121t-113 353v886q0 25 24 25h39q25 0 25 -25v-866q0 -211 88 -312t270 -101t271 100q89 102 90 313v866q0 25 24 25h37
q25 0 25 -25z" />
    <glyph glyph-name="umacron" unicode="&#x16b;" horiz-adv-x="1003" 
d="M754 1298v-24q0 -25 -25 -25h-457q-25 0 -24 25v24q0 25 24 25h457q25 0 25 -25zM856 981v-639q0 -180 -90 -273t-264 -93t-264 92q-90 94 -91 274v639q0 25 25 25h35q25 0 24 -25v-621q0 -160 66 -234t205 -75q139 0 206 75t66 234v621q0 25 25 25h32q25 0 25 -25z" />
    <glyph glyph-name="Ubreve" unicode="&#x16c;" horiz-adv-x="1204" 
d="M797 1751h22q27 0 21 -25q-18 -88 -80 -137t-158 -49q-94 0 -157 49q-62 49 -80 137q-6 25 20 25h23q18 0 24 -20q31 -119 170 -119t170 119q7 20 25 20zM1049 1335v-886q0 -231 -114 -353t-333 -121q-219 0 -333 121t-113 353v886q0 25 24 25h39q25 0 25 -25v-866
q0 -211 88 -312t270 -101t271 100q89 102 90 313v866q0 25 24 25h37q25 0 25 -25z" />
    <glyph glyph-name="ubreve" unicode="&#x16d;" horiz-adv-x="1003" 
d="M696 1409h23q27 0 20 -25q-19 -88 -81 -137t-156 -49t-157 49q-62 49 -81 137q-6 25 21 25h22q18 0 25 -20q14 -55 59 -87t111 -32t110 32t60 87q6 20 24 20zM856 981v-639q0 -180 -90 -273t-264 -93t-264 92q-90 94 -91 274v639q0 25 25 25h35q25 0 24 -25v-621
q0 -160 66 -234t205 -75q139 0 206 75t66 234v621q0 25 25 25h32q25 0 25 -25z" />
    <glyph glyph-name="Uring" unicode="&#x16e;" horiz-adv-x="1204" 
d="M602 1743q-40 0 -64 -26q-24 -27 -24 -65t25 -64t63 -26t64 26q25 26 24 65q0 39 -24 65t-64 25zM602 1497q-66 0 -110 45t-46 111q0 67 46 111t110 44q66 0 111 -45t45 -111t-45 -110q-45 -45 -111 -45zM1049 1335v-886q0 -231 -114 -353t-333 -121q-219 0 -333 121
t-113 353v886q0 25 24 25h39q25 0 25 -25v-866q0 -211 88 -312t270 -101t271 100q89 102 90 313v866q0 25 24 25h37q25 0 25 -25z" />
    <glyph glyph-name="uring" unicode="&#x16f;" horiz-adv-x="1003" 
d="M590 1311q0 39 -25 65t-63 25q-38 0 -64 -26q-25 -27 -25 -65t25 -64t64 -26q40 0 64 26t24 65zM502 1155q-66 0 -111 45t-45 111q0 67 45 111t111 44t110 -45t45 -111q0 -66 -45 -110q-44 -45 -110 -45zM856 981v-639q0 -180 -90 -273t-264 -93t-264 92q-90 94 -91 274
v639q0 25 25 25h35q25 0 24 -25v-621q0 -160 66 -234t205 -75q139 0 206 75t66 234v621q0 25 25 25h32q25 0 25 -25z" />
    <glyph glyph-name="Uhungarumlaut" unicode="&#x170;" horiz-adv-x="1204" 
d="M1049 1335v-886q0 -231 -114 -353t-333 -121q-219 0 -333 121t-113 353v886q0 25 24 25h39q25 0 25 -25v-866q0 -211 88 -312t270 -101t271 100q89 102 90 313v866q0 25 24 25h37q25 0 25 -25zM717 1503q-29 0 -15 27l152 256q10 16 29 16h39q36 1 16 -30l-166 -254
q-12 -14 -29 -15h-26zM440 1503q-29 0 -14 27l152 256q10 16 28 16h37q36 1 16 -30l-165 -254q-12 -14 -29 -15h-25z" />
    <glyph glyph-name="uhungarumlaut" unicode="&#x171;" horiz-adv-x="1003" 
d="M856 981v-639q0 -180 -90 -273t-264 -93t-264 92q-90 94 -91 274v639q0 25 25 25h35q25 0 24 -25v-621q0 -160 66 -234t205 -75q139 0 206 75t66 234v621q0 25 25 25h32q25 0 25 -25zM616 1161q-29 0 -14 27l152 256q10 16 28 16h39q40 1 17 -30l-166 -254
q-12 -14 -29 -15h-27zM340 1161q-29 0 -14 27l151 256q10 16 29 16h37q39 1 16 -30l-166 -254q-12 -14 -28 -15h-25z" />
    <glyph glyph-name="Uogonek" unicode="&#x172;" horiz-adv-x="1204" 
d="M987 1360h37q25 0 25 -25v-886q0 -324 -230 -437q-154 -74 -153 -207q0 -39 28 -67t74 -27q47 0 88 41q18 18 35 0l12 -14q14 -16 -2 -33q-59 -57 -137 -57t-123 40t-45 107q0 100 82 182v3q-61 -4 -76 -5q-219 0 -333 121t-113 353v886q0 25 24 25h39q25 0 25 -25v-866
q0 -211 88 -312t270 -101t271 100q89 102 90 313v866q-1 25 24 25z" />
    <glyph glyph-name="uogonek" unicode="&#x173;" horiz-adv-x="1003" 
d="M641 -289q47 0 88 41q18 18 35 0l12 -14q14 -16 -2 -33q-59 -57 -137 -57t-123 40t-45 122t80 165v2q-10 -2 -47 -2q-174 -1 -264 93t-91 274v639q0 25 25 25h35q25 0 24 -25v-621q0 -160 66 -234t205 -75q139 0 206 75t66 234v621q0 25 25 25h32q25 0 25 -25v-639
q0 -240 -166 -330q-152 -80 -151 -207q-1 -39 27 -67t75 -27z" />
    <glyph glyph-name="Wcircumflex" unicode="&#x174;" horiz-adv-x="1736" 
d="M664 1503q-14 0 -19 8q-4 8 4 19l176 256q10 16 29 16h37q18 0 29 -16l178 -256q8 -10 4 -18t-19 -9h-30q-15 1 -27 15l-152 215l-153 -215q-12 -14 -27 -15h-30zM1278 0h-47q-25 0 -31 23l-323 1163h-3l-325 -1163q-6 -23 -31 -23h-47q-25 0 -31 23l-366 1310
q-6 27 20 27h43q23 0 29 -21l330 -1196h2l331 1194q6 23 31 23h31q25 0 31 -23l333 -1194h2l328 1196q6 20 29 21h41q27 0 20 -27l-366 -1310q-6 -23 -31 -23z" />
    <glyph glyph-name="wcircumflex" unicode="&#x175;" horiz-adv-x="1384" 
d="M492 1161q-14 0 -19 8q-4 8 4 19l176 256q10 16 29 16h37q18 0 29 -16l178 -256q8 -10 4 -18t-19 -9h-30q-15 1 -27 15l-152 215l-153 -215q-12 -14 -27 -15h-30zM1030 0h-47q-23 0 -29 23l-249 823h-3l-251 -823q-6 -23 -29 -23h-47q-23 0 -29 23l-285 954q-10 29 21 29
h41q23 0 29 -21l247 -850h2l258 848q6 23 29 23h33q23 0 29 -23l258 -848h2l247 850q6 20 27 21h39q31 0 20 -29l-284 -954q-6 -23 -29 -23z" />
    <glyph glyph-name="Ycircumflex" unicode="&#x176;" horiz-adv-x="1042" 
d="M559 0h-39q-25 0 -24 25v583l-449 723q-18 29 16 29h52q18 0 28 -17l400 -649l395 649q10 16 29 17h49q35 0 16 -29l-448 -723v-583q0 -25 -25 -25zM328 1503q-14 0 -19 8q-4 8 4 19l176 256q10 16 29 16h37q18 0 29 -16l178 -256q8 -10 4 -18t-18 -9h-31q-15 1 -27 15
l-151 215l-154 -215q-12 -14 -27 -15h-30z" />
    <glyph glyph-name="ycircumflex" unicode="&#x177;" horiz-adv-x="1026" 
d="M297 1161q-14 0 -18 8t4 19l176 256q10 16 28 16h37q18 0 29 -16l178 -256q8 -10 4 -18t-18 -9h-31q-15 1 -27 15l-151 215l-154 -215q-12 -14 -26 -15h-31zM868 981v-985q0 -162 -97 -255t-281 -93t-312 121q-16 16 0 34l19 23q16 18 34 0q115 -102 261 -102t220 74
q73 74 72 216v133h-2q-78 -145 -284 -145q-172 0 -261 95t-90 278v606q0 25 25 25h35q25 0 24 -25v-586q0 -165 68 -241t209 -76q276 0 276 317v586q0 25 25 25h35q24 0 24 -25z" />
    <glyph glyph-name="Ydieresis" unicode="&#x178;" horiz-adv-x="1042" 
d="M696 1704q40 0 58 -35t1 -70q-18 -34 -59 -30q-39 -3 -56 31t-1 69t57 35zM381 1704q41 0 57 -35t-1 -69t-56 -31q-41 -3 -58 31t0 69t58 35zM559 0h-39q-25 0 -24 25v583l-449 723q-18 29 16 29h52q18 0 28 -17l400 -649l395 649q10 16 29 17h49q35 0 16 -29l-448 -723
v-583q0 -25 -25 -25z" />
    <glyph glyph-name="Zacute" unicode="&#x179;" horiz-adv-x="1052" 
d="M502 1503q-14 0 -19 8q-4 8 4 19l168 256q10 16 29 16h41q34 1 16 -30l-180 -254q-12 -14 -26 -15h-33zM944 0h-838q-25 0 -24 25v43q0 16 8 30l764 1182h-717q-25 0 -24 25v30q0 25 24 25h797q25 0 24 -25v-43q0 -16 -8 -30l-766 -1182h760q25 0 25 -25v-30
q0 -25 -25 -25z" />
    <glyph glyph-name="zacute" unicode="&#x17a;" horiz-adv-x="856" 
d="M403 1161q-14 0 -18 8t4 19l168 256q10 16 29 16h41q34 1 16 -30l-180 -254q-12 -14 -27 -15h-33zM754 0h-652q-25 0 -24 25v36q0 16 10 33l578 836h-533q-25 0 -24 24v27q0 25 24 25h610q25 0 25 -25v-39q0 -16 -10 -33l-582 -833h578q25 0 24 -25v-26q1 -25 -24 -25z
" />
    <glyph glyph-name="Zdotaccent" unicode="&#x17b;" horiz-adv-x="1052" 
d="M532 1567q-30 0 -49 18q-18 20 -18 49t18 47q47 47 95 -1t2 -95q-18 -18 -48 -18zM944 0h-838q-25 0 -24 25v43q0 16 8 30l764 1182h-717q-25 0 -24 25v30q0 25 24 25h797q25 0 24 -25v-43q0 -16 -8 -30l-766 -1182h760q25 0 25 -25v-30q0 -25 -25 -25z" />
    <glyph glyph-name="zdotaccent" unicode="&#x17c;" horiz-adv-x="856" 
d="M434 1225q-29 0 -49 18q-18 20 -18 49t18 47q47 47 95 -1t1 -95q-18 -18 -47 -18zM754 0h-652q-25 0 -24 25v36q0 16 10 33l578 836h-533q-25 0 -24 24v27q0 25 24 25h610q25 0 25 -25v-39q0 -16 -10 -33l-582 -833h578q25 0 24 -25v-26q1 -25 -24 -25z" />
    <glyph glyph-name="Zcaron" unicode="&#x17d;" horiz-adv-x="1052" 
d="M944 0h-838q-25 0 -24 25v43q0 16 8 30l764 1182h-717q-25 0 -24 25v30q0 25 24 25h797q25 0 24 -25v-43q0 -16 -8 -30l-766 -1182h760q25 0 25 -25v-30q0 -25 -25 -25zM512 1503q-18 0 -29 17l-176 256q-8 10 -4 18t19 8h30q14 0 27 -14l153 -217l152 217q12 14 27 14
h30q15 0 19 -8t-4 -18l-178 -256q-10 -16 -29 -17h-37z" />
    <glyph glyph-name="zcaron" unicode="&#x17e;" horiz-adv-x="856" 
d="M754 0h-652q-25 0 -24 25v36q0 16 10 33l578 836h-533q-25 0 -24 24v27q0 25 24 25h610q25 0 25 -25v-39q0 -16 -10 -33l-582 -833h578q25 0 24 -25v-26q1 -25 -24 -25zM414 1161q-18 0 -29 17l-176 256q-8 10 -4 18t18 8h31q14 0 27 -14l153 -217l152 217q12 14 26 14
h31q14 0 18 -8t-4 -18l-178 -256q-10 -16 -28 -17h-37z" />
    <glyph glyph-name="florin" unicode="&#x192;" horiz-adv-x="1081" 
d="M784 1227q-196 0 -233 -262l-19 -136h359q25 0 24 -24v-27q0 -25 -24 -24h-371l-123 -875q-4 -23 -26 -22h-35q-25 0 -23 26l123 871h-243q-25 0 -25 24v27q0 25 25 24h253l21 146q49 328 308 328q126 0 210 -50q18 -8 8 -32l-12 -23q-12 -25 -37 -10q-63 39 -160 39z
" />
    <glyph glyph-name="AEacute" unicode="&#x1fc;" horiz-adv-x="1812" 
d="M909 1503q-14 0 -18 8t4 19l168 256q10 16 29 16h41q34 1 16 -30l-180 -254q-12 -14 -27 -15h-33zM911 395v865h-2l-532 -865h534zM999 1280v-553h621q25 0 25 -25v-30q0 -25 -25 -25h-621v-567h711q25 0 25 -25v-30q0 -25 -25 -25h-774q-25 0 -25 25v290h-583l-185 -299
q-10 -16 -28 -16h-47q-35 0 -17 29l821 1312q12 18 31 19h807q25 0 25 -25v-30q0 -25 -25 -25h-711z" />
    <glyph glyph-name="aeacute" unicode="&#x1fd;" horiz-adv-x="1536" 
d="M735 1161q-14 0 -18 8t4 19l168 256q10 16 29 16h40q35 1 17 -30l-180 -254q-12 -14 -27 -15h-33zM436 51q150 0 218 79t69 247v110h-266q-283 0 -283 -218t262 -218zM807 563h555v68q0 168 -67 246q-67 77 -210 77t-211 -78t-67 -245v-68zM1090 1030q172 0 263 -97
t91 -284v-137q0 -25 -25 -25h-612v-108q0 -170 75 -249t225 -79t253 115q18 20 37 2l18 -18q14 -14 0 -37q-123 -137 -303 -138q-272 0 -346 211h-2q-63 -211 -334 -211q-162 0 -251 78t-89 218t93 216t263 76h277v64q0 167 -70 247q-71 80 -219 80t-244 -104q-18 -18 -32 0
l-21 22q-16 18 0 35q123 123 303 123q254 0 326 -207h2q62 207 322 207z" />
    <glyph glyph-name="Oslashacute" unicode="&#x1fe;" horiz-adv-x="1191" 
d="M567 1503q-14 0 -18 8t4 19l168 256q10 16 29 16h41q34 1 16 -30l-180 -254q-12 -14 -27 -15h-33zM979 487v385q0 150 -47 254h-2l-621 -964q94 -106 289 -106t288 106t93 325zM217 872v-385q0 -150 47 -254h2l621 965q-94 106 -289 106t-288 -106q-93 -107 -93 -326z
M1067 893v-426q0 -242 -120 -367t-343 -125t-342 113l-59 -92q-12 -18 -31 -6l-27 16q-18 12 -6 31l72 110q-82 119 -82 320v426q0 242 120 367q120 124 343 124t342 -112l59 92q12 18 31 6l27 -16q18 -13 6 -31l-72 -111q82 -119 82 -319z" />
    <glyph glyph-name="oslashacute" unicode="&#x1ff;" horiz-adv-x="966" 
d="M457 1161q-14 0 -19 8q-4 8 4 19l168 256q10 16 29 16h41q34 1 16 -30l-180 -254q-12 -14 -27 -15h-32zM770 377v254q0 104 -29 180h-2l-460 -686q69 -74 211 -74t211 79t69 247zM205 631v-254q0 -102 28 -182h3l460 686q-68 73 -211 73t-212 -78q-68 -79 -68 -245z
M854 649v-293q0 -186 -93 -283t-265 -97t-265 79l-41 -59q-12 -18 -30 -6l-23 14q-20 12 -8 31l53 78q-61 92 -61 243v293q0 381 366 381q164 0 256 -80l41 62q12 18 31 6l25 -17q18 -12 6 -30l-53 -78q61 -92 61 -244z" />
    <glyph glyph-name="uni0218" unicode="&#x218;" horiz-adv-x="1034" 
d="M616 -184q0 -109 -88 -146q-14 -6 -23 11t3 24q33 16 43 62q-45 0 -65 39q-19 40 14 70q32 30 74 10t42 -70zM537 1384q276 0 401 -180q14 -20 -4 -37l-27 -20q-20 -14 -37 8q-100 150 -331 150q-152 0 -245 -81t-93 -210t83 -196q84 -68 298 -104t308 -118t93 -250
q0 -168 -116 -269t-306 -102q-315 0 -465 211q-12 18 6 33l25 23q18 16 35 -6q131 -180 397 -181q152 0 245 81t93 210q0 128 -80 192q-79 64 -295 99t-312 121q-95 86 -95 254t114 270q120 102 308 102z" />
    <glyph glyph-name="uni0219" unicode="&#x219;" horiz-adv-x="841" 
d="M518 -184q0 -109 -88 -146q-14 -6 -24 11t4 24q33 16 43 62q-45 0 -65 39q-18 40 14 70t74 10t42 -70zM459 -25q-236 0 -363 134q-16 16 0 34l19 21q16 18 35 0q106 -113 303 -113q121 1 189 57t67 154t-63 146t-227 68q-165 22 -237 82t-72 188t94 206q93 78 262 78
t284 -96q16 -16 2 -35l-15 -20q-16 -25 -39 -2q-90 77 -226 77t-207 -56t-71 -150t59 -135q59 -42 189 -59t202 -46q72 -28 109 -84q36 -56 40 -160q-1 -133 -91 -211t-243 -78z" />
    <glyph glyph-name="uni021A" unicode="&#x21a;" horiz-adv-x="976" 
d="M555 -184q0 -109 -88 -146q-14 -6 -24 11t3 24q33 16 43 62q-45 -1 -64 39t13 70t75 10q42 -20 42 -70zM911 1280h-379v-1255q0 -25 -24 -25h-39q-25 0 -25 25v1255h-378q-25 0 -25 25v30q0 25 25 25h845q25 0 25 -25v-30q0 -25 -25 -25z" />
    <glyph glyph-name="uni021B" unicode="&#x21b;" horiz-adv-x="714" 
d="M479 -184q0 -109 -88 -146q-14 -6 -23 11t3 24q35 16 43 62q-45 0 -65 39q-19 40 13 70t75 10q42 -20 42 -70zM203 930h-140q-25 0 -24 24v27q0 25 24 25h140v254q0 25 24 24h35q25 0 25 -24v-254h336q25 0 24 -25v-27q0 -25 -24 -24h-336v-656q0 -223 198 -223
q74 0 144 45q21 15 33 -8l12 -22q8 -18 -8 -35q-80 -55 -201 -55t-192 74q-71 75 -70 214v666z" />
    <glyph glyph-name="uni0237" unicode="&#x237;" horiz-adv-x="401" 
d="M-18 -252h2q176 0 176 193v1040q0 25 24 25h35q25 0 25 -25v-1040q0 -268 -252 -269h-10q-25 0 -25 25v27q0 24 25 24z" />
    <glyph glyph-name="circumflex" unicode="&#x2c6;" horiz-adv-x="1024" 
d="M307 1161q-14 0 -18 8t4 19l176 256q10 16 29 16h37q18 0 28 -16l178 -256q8 -10 4 -18t-18 -9h-31q-14 1 -26 15l-152 215l-153 -215q-12 -14 -27 -15h-31z" />
    <glyph glyph-name="caron" unicode="&#x2c7;" horiz-adv-x="1024" 
d="M498 1161q-18 0 -29 17l-176 256q-8 10 -4 18t18 8h31q14 0 27 -14l153 -217l152 217q12 14 26 14h31q14 0 18 -8t-4 -18l-178 -256q-10 -16 -28 -17h-37z" />
    <glyph glyph-name="breve" unicode="&#x2d8;" horiz-adv-x="1024" 
d="M713 1409h22q27 0 21 -25q-18 -88 -80 -137t-158 -49q-94 0 -157 49q-62 49 -80 137q-6 25 20 25h23q18 0 24 -20q31 -119 170 -119t170 119q7 20 25 20z" />
    <glyph glyph-name="dotaccent" unicode="&#x2d9;" horiz-adv-x="1024" 
d="M512 1225q-29 0 -49 18q-18 20 -19 49q0 29 19 47q47 47 95 -1t1 -95q-18 -18 -47 -18z" />
    <glyph glyph-name="ring" unicode="&#x2da;" horiz-adv-x="1024" 
d="M600 1311q0 39 -25 65t-63 25q-38 0 -64 -26q-24 -27 -24 -65t25 -64t63 -26t64 26q24 26 24 65zM512 1155q-66 0 -111 45t-45 111q0 67 45 111t111 44t111 -45t45 -111t-45 -110q-45 -45 -111 -45z" />
    <glyph glyph-name="ogonek" unicode="&#x2db;" horiz-adv-x="1024" 
d="M553 -352q-78 0 -123 40t-45 107q0 156 184 260l43 -37q-158 -90 -157 -213q1 -39 27 -67t74 -27q48 0 89 41q19 18 35 0l12 -14q16 -16 -2 -33q-59 -57 -137 -57z" />
    <glyph glyph-name="tilde" unicode="&#x2dc;" horiz-adv-x="1024" 
d="M289 1196h-25q-25 0 -20 23q20 123 104 159t191 -57q53 -53 92 -53q74 0 92 100q2 18 20 18h25q25 0 20 -22q-20 -123 -104 -160t-190 58q-53 53 -93 53q-74 0 -92 -101q-2 -18 -20 -18z" />
    <glyph glyph-name="hungarumlaut" unicode="&#x2dd;" horiz-adv-x="1024" 
d="M641 1161q-29 0 -14 27l151 256q10 16 29 16h39q39 1 16 -30l-166 -254q-12 -14 -28 -15h-27zM365 1161q-29 0 -15 27l152 256q10 16 28 16h37q40 1 17 -30l-166 -254q-12 -14 -29 -15h-24z" />
    <glyph glyph-name="uni0394" unicode="&#x394;" horiz-adv-x="1179" 
d="M600 1247l-416 -1167h830l-412 1167h-2zM1106 0h-1010q-31 0 -20 29l473 1308q6 23 29 23h47q23 0 28 -23l473 -1308q11 -29 -20 -29z" />
    <glyph glyph-name="uni03A9" unicode="&#x3a9;" horiz-adv-x="1191" 
d="M1065 893v-361q0 -328 -236 -446v-2h211q25 0 25 -25v-34q0 -25 -25 -25h-313q-25 0 -25 25v45q0 20 21 26q254 92 254 441v335q0 220 -93 326t-288 106t-288 -106t-93 -326v-335q0 -348 254 -441q20 -6 20 -26v-45q0 -25 -24 -25h-313q-25 0 -25 25v34q0 25 25 25h210v2
q-236 119 -235 446v361q0 242 120 367q120 124 349 124t349 -124t120 -367z" />
    <glyph glyph-name="uni03BC" unicode="&#x3bc;" horiz-adv-x="1026" 
d="M879 981v-633q0 -182 -89 -277t-262 -96q-205 0 -282 146h-2v-424q0 -25 -25 -25h-35q-25 0 -24 25v1284q0 25 24 25h35q25 0 25 -25v-612q0 -317 274 -318q141 0 209 77t68 241v612q0 25 24 25h35q25 0 25 -25z" />
    <glyph glyph-name="pi" unicode="&#x3c0;" horiz-adv-x="1067" 
d="M780 930h-493v-905q0 -25 -25 -25h-35q-25 0 -24 25v905h-140q-25 0 -24 24v27q0 25 24 25h941q25 0 24 -25v-27q0 -25 -24 -24h-140v-905q0 -25 -24 -25h-35q-25 0 -25 25v905z" />
    <glyph glyph-name="uni1E02" unicode="&#x1e02;" horiz-adv-x="1148" 
d="M563 1567q-29 0 -49 18q-18 20 -18 49t18 47q47 47 95 -1t1 -95q-18 -18 -47 -18zM268 651v-571h342q186 0 274 68q87 69 87 218q0 150 -87 218t-274 67h-342zM268 1280v-549h305q188 0 275 66q86 66 86 209q0 142 -86 208t-275 66h-305zM610 0h-405q-25 0 -25 25v1310
q0 25 25 25h368q231 0 340 -84t109 -264q-1 -259 -234 -316v-2q270 -51 271 -336q0 -184 -109 -271t-340 -87z" />
    <glyph glyph-name="uni1E03" unicode="&#x1e03;" horiz-adv-x="997" 
d="M123 1698q0 29 18 47q47 47 95 -1t2 -95q-18 -19 -48 -19t-49 19q-18 20 -18 49zM797 377v254q0 166 -69 245t-214 78q-283 0 -283 -323v-254q0 -168 69 -247t214 -79t214 79t69 247zM522 1030q358 0 359 -381v-291q1 -188 -93 -285t-274 -97t-273 96q-93 98 -94 286
v1051q0 25 25 25h35q25 0 24 -25v-530h2q78 151 289 151z" />
    <glyph glyph-name="uni1E0A" unicode="&#x1e0a;" horiz-adv-x="1208" 
d="M576 1567q-30 0 -50 18q-18 20 -18 49t18 47q48 47 96 -1t1 -95q-17 -18 -47 -18zM991 485v389q0 206 -94 306t-289 100h-340v-1200h340q195 0 289 99t94 306zM205 1360h405q469 0 469 -463v-434q0 -463 -469 -463h-405q-25 0 -25 25v1310q0 25 25 25z" />
    <glyph glyph-name="uni1E0B" unicode="&#x1e0b;" horiz-adv-x="997" 
d="M854 1649q-18 -19 -47 -19t-49 19q-18 20 -19 49q0 29 19 47q47 47 95 -1t1 -95zM766 377v254q0 324 -283 323q-145 0 -214 -78t-68 -245v-254q1 -168 69 -247t213 -79t214 79t69 247zM850 1409v-1051q0 -188 -93 -285t-273 -97t-274 96q-93 98 -93 286v291
q0 381 358 381q209 0 289 -149h2v528q0 25 25 25h34q25 0 25 -25z" />
    <glyph glyph-name="uni1E1E" unicode="&#x1e1e;" horiz-adv-x="1024" 
d="M555 1567q-29 0 -49 18q-18 20 -19 49q0 29 19 47q47 47 95 -1t1 -95q-18 -18 -47 -18zM268 1280v-559h600q25 0 25 -25v-30q0 -25 -25 -25h-600v-616q0 -25 -24 -25h-39q-25 0 -25 25v1310q0 25 25 25h753q25 0 25 -25v-30q0 -25 -25 -25h-690z" />
    <glyph glyph-name="uni1E1F" unicode="&#x1e1f;" horiz-adv-x="647" 
d="M461 1649q-18 -19 -47 -19t-49 19q-18 20 -19 49q0 29 19 47q47 47 95 -1t1 -95zM504 1382q-217 0 -217 -262v-114h336q25 0 24 -25v-27q0 -25 -24 -24h-336v-905q0 -25 -25 -25h-35q-25 0 -24 25v905h-140q-25 0 -24 24v27q0 25 24 25h140v124q0 158 77 243t206 85
t210 -49q23 -12 9 -33l-15 -24q-12 -20 -31 -9q-59 39 -155 39z" />
    <glyph glyph-name="uni1E40" unicode="&#x1e40;" horiz-adv-x="1654" 
d="M827 1567q-29 0 -49 18q-18 20 -18 49t18 47q47 47 95 -1t1 -95q-18 -18 -47 -18zM1450 0h-39q-25 0 -25 25v1212h-2l-514 -1219q-10 -18 -28 -18h-31q-20 0 -29 18l-514 1219h-2v-1212q0 -25 -24 -25h-37q-25 0 -25 25v1310q0 25 25 25h86q20 0 28 -19l508 -1212
l506 1212q10 18 29 19h88q25 0 25 -25v-1310q0 -25 -25 -25z" />
    <glyph glyph-name="uni1E41" unicode="&#x1e41;" horiz-adv-x="1562" 
d="M780 1225q-29 0 -49 18q-18 20 -18 49t18 47q47 47 95 -1t1 -95q-18 -18 -47 -18zM1077 1030q166 0 252 -94t86 -274v-637q0 -25 -24 -25h-35q-25 0 -25 25v618q0 160 -62 236q-61 75 -193 75t-192 -76t-61 -235v-618q0 -25 -24 -25h-35q-25 0 -25 25v618q0 160 -62 236
q-63 75 -193 75t-191 -76t-62 -235v-618q0 -25 -24 -25h-35q-25 0 -25 25v637q0 180 84 274t248 94q229 0 301 -176h2q66 176 295 176z" />
    <glyph glyph-name="uni1E56" unicode="&#x1e56;" horiz-adv-x="1101" 
d="M571 1567q-29 0 -49 18q-18 20 -18 49t18 47q47 47 95 -1t1 -95q-18 -18 -47 -18zM268 1280v-629h314q194 0 284 77t90 239q0 161 -91 237t-283 76h-314zM205 1360h377q238 0 350 -95t112 -299t-112 -299t-350 -96h-314v-546q0 -25 -24 -25h-39q-25 0 -25 25v1310
q0 25 25 25z" />
    <glyph glyph-name="uni1E57" unicode="&#x1e57;" horiz-adv-x="997" 
d="M514 1225q-29 0 -49 18q-18 20 -19 49q0 29 19 47q47 47 95 -1t1 -95q-18 -18 -47 -18zM797 377v252q0 168 -69 247q-69 78 -214 78t-214 -78t-69 -247v-252q0 -326 283 -326q145 0 214 79t69 247zM881 647v-291q0 -381 -359 -381q-211 0 -289 152h-2v-430q0 -25 -24 -25
h-35q-25 0 -25 25v950q-1 187 93 285t274 98t274 -98t93 -285z" />
    <glyph glyph-name="uni1E60" unicode="&#x1e60;" horiz-adv-x="1034" 
d="M537 1567q-29 0 -50 18q-18 20 -18 49t18 47q47 47 95 -1t2 -95q-18 -18 -47 -18zM537 1384q276 0 401 -180q14 -20 -4 -37l-27 -20q-20 -14 -37 8q-100 150 -331 150q-152 0 -245 -81t-93 -210t83 -196q84 -68 298 -104t308 -118t93 -250q0 -168 -116 -269t-306 -102
q-315 0 -465 211q-12 18 6 33l25 23q18 16 35 -6q131 -180 397 -181q152 0 245 81t93 210q0 128 -80 192q-79 64 -295 99t-312 121q-95 86 -95 254t114 270q120 102 308 102z" />
    <glyph glyph-name="uni1E61" unicode="&#x1e61;" horiz-adv-x="841" 
d="M438 1225q-29 0 -49 18q-18 20 -18 49t18 47q47 47 95 -1t1 -95q-18 -18 -47 -18zM459 -25q-236 0 -363 134q-16 16 0 34l19 21q16 18 35 0q106 -113 303 -113q121 1 189 57t67 154t-63 146t-227 68q-165 22 -237 82t-72 188t94 206q93 78 262 78t284 -96q16 -16 2 -35
l-15 -20q-16 -25 -39 -2q-90 77 -226 77t-207 -56t-71 -150t59 -135q59 -42 189 -59t202 -46q72 -28 109 -84q36 -56 40 -160q-1 -133 -91 -211t-243 -78z" />
    <glyph glyph-name="uni1E6A" unicode="&#x1e6a;" horiz-adv-x="976" 
d="M488 1567q-30 0 -50 18q-18 20 -18 49t18 47q48 47 96 -1t1 -95q-17 -18 -47 -18zM911 1280h-379v-1255q0 -25 -24 -25h-39q-25 0 -25 25v1255h-378q-25 0 -25 25v30q0 25 25 25h845q25 0 25 -25v-30q0 -25 -25 -25z" />
    <glyph glyph-name="uni1E6B" unicode="&#x1e6b;" horiz-adv-x="714" 
d="M244 1491q-29 0 -49 18q-19 19 -19 49t19 48q47 46 95 -2t1 -95q-18 -18 -47 -18zM203 930h-140q-25 0 -24 24v27q0 25 24 25h140v254q0 25 24 24h35q25 0 25 -24v-254h336q25 0 24 -25v-27q0 -25 -24 -24h-336v-656q0 -223 198 -223q74 0 144 45q21 15 33 -8l12 -22
q8 -18 -8 -35q-80 -55 -201 -55t-192 74q-71 75 -70 214v666z" />
    <glyph glyph-name="Wgrave" unicode="&#x1e80;" horiz-adv-x="1736" 
d="M905 1503h-33q-14 0 -26 15l-180 254q-18 31 16 30h41q18 0 29 -16l168 -256q8 -10 4 -19q-5 -8 -19 -8zM1278 0h-47q-25 0 -31 23l-323 1163h-3l-325 -1163q-6 -23 -31 -23h-47q-25 0 -31 23l-366 1310q-6 27 20 27h43q23 0 29 -21l330 -1196h2l331 1194q6 23 31 23h31
q25 0 31 -23l333 -1194h2l328 1196q6 20 29 21h41q27 0 20 -27l-366 -1310q-6 -23 -31 -23z" />
    <glyph glyph-name="wgrave" unicode="&#x1e81;" horiz-adv-x="1384" 
d="M733 1161h-33q-14 0 -26 15l-180 254q-18 31 16 30h41q18 0 29 -16l168 -256q8 -10 4 -19q-5 -8 -19 -8zM1030 0h-47q-23 0 -29 23l-249 823h-3l-251 -823q-6 -23 -29 -23h-47q-23 0 -29 23l-285 954q-10 29 21 29h41q23 0 29 -21l247 -850h2l258 848q6 23 29 23h33
q23 0 29 -23l258 -848h2l247 850q6 20 27 21h39q31 0 20 -29l-284 -954q-6 -23 -29 -23z" />
    <glyph glyph-name="Wacute" unicode="&#x1e82;" horiz-adv-x="1736" 
d="M844 1503q-14 0 -19 8q-4 8 4 19l168 256q10 16 29 16h41q34 1 16 -30l-180 -254q-12 -14 -26 -15h-33zM1278 0h-47q-25 0 -31 23l-323 1163h-3l-325 -1163q-6 -23 -31 -23h-47q-25 0 -31 23l-366 1310q-6 27 20 27h43q23 0 29 -21l330 -1196h2l331 1194q6 23 31 23h31
q25 0 31 -23l333 -1194h2l328 1196q6 20 29 21h41q27 0 20 -27l-366 -1310q-6 -23 -31 -23z" />
    <glyph glyph-name="wacute" unicode="&#x1e83;" horiz-adv-x="1384" 
d="M672 1161q-14 0 -19 8q-4 8 4 19l168 256q10 16 29 16h41q34 1 16 -30l-180 -254q-12 -14 -26 -15h-33zM1030 0h-47q-23 0 -29 23l-249 823h-3l-251 -823q-6 -23 -29 -23h-47q-23 0 -29 23l-285 954q-10 29 21 29h41q23 0 29 -21l247 -850h2l258 848q6 23 29 23h33
q23 0 29 -23l258 -848h2l247 850q6 20 27 21h39q31 0 20 -29l-284 -954q-6 -23 -29 -23z" />
    <glyph glyph-name="Wdieresis" unicode="&#x1e84;" horiz-adv-x="1736" 
d="M1032 1704q40 0 58 -35t1 -70q-18 -34 -59 -30q-39 -3 -56 31t-1 69t57 35zM716 1704q42 0 58 -35t-1 -69t-56 -31q-41 -4 -59 30q-17 35 0 70q16 35 58 35zM1278 0h-47q-25 0 -31 23l-323 1163h-3l-325 -1163q-6 -23 -31 -23h-47q-25 0 -31 23l-366 1310q-6 27 20 27h43
q23 0 29 -21l330 -1196h2l331 1194q6 23 31 23h31q25 0 31 -23l333 -1194h2l328 1196q6 20 29 21h41q27 0 20 -27l-366 -1310q-6 -23 -31 -23z" />
    <glyph glyph-name="wdieresis" unicode="&#x1e85;" horiz-adv-x="1384" 
d="M868 1227q-73 0 -73 73q0 36 41 54t71 -15q33 -31 15 -71t-54 -41zM610 1300q0 -74 -74 -73q-36 0 -54 41q-17 40 15 72q33 32 73 14t40 -54zM1030 0h-47q-23 0 -29 23l-249 823h-3l-251 -823q-6 -23 -29 -23h-47q-23 0 -29 23l-285 954q-10 29 21 29h41q23 0 29 -21
l247 -850h2l258 848q6 23 29 23h33q23 0 29 -23l258 -848h2l247 850q6 20 27 21h39q31 0 20 -29l-284 -954q-6 -23 -29 -23z" />
    <glyph glyph-name="Ygrave" unicode="&#x1ef2;" horiz-adv-x="1042" 
d="M569 1503h-32q-14 0 -27 15l-180 254q-18 31 16 30h41q18 0 29 -16l168 -256q8 -10 4 -19q-5 -8 -19 -8zM559 0h-39q-25 0 -24 25v583l-449 723q-18 29 16 29h52q18 0 28 -17l400 -649l395 649q10 16 29 17h49q35 0 16 -29l-448 -723v-583q0 -25 -25 -25z" />
    <glyph glyph-name="ygrave" unicode="&#x1ef3;" horiz-adv-x="1026" 
d="M539 1161h-33q-14 0 -27 15l-180 254q-18 31 16 30h41q18 0 29 -16l168 -256q8 -10 4 -18t-18 -9zM868 981v-985q0 -162 -97 -255t-281 -93t-312 121q-16 16 0 34l19 23q16 18 34 0q115 -102 261 -102t220 74q73 74 72 216v133h-2q-78 -145 -284 -145q-172 0 -261 95
t-90 278v606q0 25 25 25h35q25 0 24 -25v-586q0 -165 68 -241t209 -76q276 0 276 317v586q0 25 25 25h35q24 0 24 -25z" />
    <glyph glyph-name="uni2007" unicode="&#x2007;" horiz-adv-x="1081" 
 />
    <glyph glyph-name="figuredash" unicode="&#x2012;" horiz-adv-x="1081" 
d="M995 604h-909q-25 0 -25 25v20q0 25 25 25h909q25 0 25 -25v-20q0 -25 -25 -25z" />
    <glyph glyph-name="endash" unicode="&#x2013;" horiz-adv-x="1024" 
d="M938 520h-852q-25 0 -25 25v20q0 25 25 25h852q25 0 25 -25v-20q0 -25 -25 -25z" />
    <glyph glyph-name="emdash" unicode="&#x2014;" horiz-adv-x="1843" 
d="M1757 520h-1671q-25 0 -25 25v20q0 25 25 25h1671q25 0 25 -25v-20q0 -25 -25 -25z" />
    <glyph glyph-name="quoteleft" unicode="&#x2018;" horiz-adv-x="430" 
d="M145 1157q0 135 109 221q14 8 27 -7t2 -28q-55 -51 -66 -135q45 0 65 -41t-16 -73q-35 -32 -78 -12t-43 75z" />
    <glyph glyph-name="quoteright" unicode="&#x2019;" horiz-adv-x="430" 
d="M291 1305q0 -135 -109 -222q-14 -8 -26 8t-2 27q55 51 65 135q-45 -6 -63 39t16 76q34 30 76 10q43 -20 43 -73z" />
    <glyph glyph-name="quotesinglbase" unicode="&#x201a;" horiz-adv-x="430" 
d="M291 37q0 -135 -109 -221q-14 -8 -26 8t-2 26q55 51 65 136q-45 -6 -63 39t16 75t76 10q43 -20 43 -73z" />
    <glyph glyph-name="quotedblleft" unicode="&#x201c;" horiz-adv-x="745" 
d="M463 1157q0 135 108 221q14 8 27 -8t2 -27q-55 -51 -65 -135q45 0 64 -41t-15 -73q-35 -32 -78 -12t-43 75zM145 1157q0 135 109 221q14 8 27 -7t2 -28q-55 -51 -66 -135q45 0 65 -41t-16 -73q-35 -32 -78 -12t-43 75z" />
    <glyph glyph-name="quotedblright" unicode="&#x201d;" horiz-adv-x="745" 
d="M608 1305q0 -135 -108 -222q-14 -8 -23 2q-16 23 -6 33q55 51 66 135q-45 -6 -64 39q-17 45 15 76q32 30 76 10t44 -73zM291 1305q0 -135 -109 -222q-14 -8 -26 8t-2 27q55 51 65 135q-45 -6 -63 39t16 76q34 30 76 10q43 -20 43 -73z" />
    <glyph glyph-name="quotedblbase" unicode="&#x201e;" horiz-adv-x="745" 
d="M291 37q0 -135 -109 -221q-14 -8 -26 8t-2 26q55 51 65 136q-45 -6 -63 39t16 75t76 10q43 -20 43 -73zM608 37q0 -135 -108 -221q-14 -8 -27 8t-2 26q55 51 66 136q-45 -6 -64 39q-18 45 14 73q33 32 77 12t44 -73z" />
    <glyph glyph-name="dagger" unicode="&#x2020;" horiz-adv-x="884" 
d="M772 1024h-293v-821q0 -23 -22 -23h-29q-23 0 -22 23v821h-293q-23 0 -23 23v24q0 23 23 23h293v317q0 23 22 23h29q23 0 22 -23v-317h293q23 0 23 -23v-24q0 -23 -23 -23z" />
    <glyph glyph-name="daggerdbl" unicode="&#x2021;" horiz-adv-x="886" 
d="M479 1024v-434h295q23 0 23 -23v-24q0 -23 -23 -23h-295v-317q0 -23 -22 -23h-29q-23 0 -22 23v317h-293q-23 0 -23 23v24q0 23 23 23h293v434h-293q-23 0 -23 23v24q0 23 23 23h293v317q0 23 22 23h29q23 0 22 -23v-317h295q23 0 23 -23v-24q0 -23 -23 -23h-295z" />
    <glyph glyph-name="bullet" unicode="&#x2022;" horiz-adv-x="1024" 
d="M740 598q0 -98 -67 -164t-160 -66t-163 66q-66 66 -65 162q0 96 65 162q70 66 163 66t160 -65q67 -63 67 -161z" />
    <glyph glyph-name="ellipsis" unicode="&#x2026;" horiz-adv-x="1843" 
d="M283 47q0 31 20 50t51 19t49 -20q20 -18 20 -49t-19 -51t-50 -20t-51 20t-20 51zM850 47q0 31 20 50t52 19t49 -20q20 -18 20 -49t-19 -51t-50 -20q-32 0 -52 20t-20 51zM1560 47q0 -31 -19 -51t-50 -20t-51 20t-21 51q1 31 21 50t51 19t49 -20q20 -18 20 -49z" />
    <glyph glyph-name="perthousand" unicode="&#x2030;" horiz-adv-x="1847" 
d="M801 375v-142q0 -100 38 -145t125 -45t125 45t37 145v142q0 98 -37 143q-38 45 -124 45t-125 -45t-39 -143zM727 225v156q0 121 61 185q60 64 176 65q116 0 176 -65t60 -185v-156q0 -250 -235 -250q-115 -1 -177 63t-61 187zM143 1047v-142q0 -100 38 -145t125 -45
t125 45t38 145v142q0 98 -38 143t-124 45t-125 -45t-39 -143zM1030 1278h33q14 0 18 -8t-4 -19l-809 -1237q-8 -14 -28 -14h-35q-14 0 -19 8q-4 9 4 19l811 1237q8 14 29 14zM70 897v156q0 121 61 185t176 65q115 0 175 -65t61 -185v-156q0 -250 -236 -250q-115 -1 -176 63
t-61 187zM1378 375v-142q0 -100 38 -145t125 -45t125 45t38 145v142q0 98 -38 143t-124 45t-125 -45t-39 -143zM1305 225v156q0 121 61 185t176 65q115 0 175 -65t61 -185v-156q0 -250 -236 -250q-115 -1 -176 63t-61 187z" />
    <glyph glyph-name="guilsinglleft" unicode="&#x2039;" horiz-adv-x="464" 
d="M362 121h-28q-18 0 -29 16l-225 350q-10 16 0 33l225 348q10 16 29 17h28q35 0 17 -29l-227 -352l227 -354q18 -29 -17 -29z" />
    <glyph glyph-name="guilsinglright" unicode="&#x203a;" horiz-adv-x="464" 
d="M131 885h29q18 0 28 -17l226 -350q10 -16 0 -33l-226 -348q-10 -16 -28 -16h-29q-34 0 -16 29l227 352l-227 354q-18 29 16 29z" />
    <glyph glyph-name="fraction" unicode="&#x2044;" horiz-adv-x="266" 
d="M535 1278h30q15 0 19 -8t-4 -19l-811 -1237q-8 -14 -29 -14h-31q-14 0 -18 8t4 19l811 1237q8 14 29 14z" />
    <glyph glyph-name="zerosuperior" unicode="&#x2070;" 
d="M152 1268v-256q0 -217 186 -217t186 217v256q0 215 -186 215t-186 -215zM80 1004v272q0 272 258 272t258 -272v-272q0 -274 -258 -275q-258 1 -258 275z" />
    <glyph glyph-name="foursuperior" unicode="&#x2074;" 
d="M469 997v428h-2l-322 -428h324zM614 932h-73v-166q0 -23 -23 -23h-26q-23 0 -23 23v166h-381q-23 0 -22 22v31q0 14 10 29l381 506q12 14 26 14h35q23 0 23 -23v-514h73q23 0 23 -22v-21q0 -22 -23 -22z" />
    <glyph glyph-name="fivesuperior" unicode="&#x2075;" 
d="M378 1245q108 1 178 -69t69 -188q0 -118 -73 -188t-198 -71q-166 0 -252 109q-12 14 4 30l15 15q16 16 33 -2q74 -86 183 -86t163 51q53 51 53 141t-52 141q-52 52 -153 52t-166 -66q-11 -11 -41 -6q-18 2 -18 25l22 378q0 23 25 23h387q23 0 23 -23v-20q0 -23 -23 -23
h-348l-16 -278h2q75 55 183 55z" />
    <glyph glyph-name="sixsuperior" unicode="&#x2076;" 
d="M350 795q84 0 136 52t52 141t-52 141q-52 53 -135 53t-134 -54t-51 -141q0 -88 50 -140t134 -52zM355 1247q123 -1 189 -71t66 -187t-72 -189t-187 -71q-117 0 -187 71t-70 189v295q0 125 69 195q69 69 197 69t207 -84q16 -18 0 -34l-16 -17q-14 -14 -31 2
q-61 68 -162 68q-193 0 -192 -209v-119h2q64 92 187 92z" />
    <glyph glyph-name="sevensuperior" unicode="&#x2077;" 
d="M629 1511v-32q0 -14 -6 -27l-344 -692q-10 -16 -27 -17h-31q-29 0 -16 27l350 698h-399v-116q0 -23 -23 -23h-22q-23 0 -23 23v159q0 23 23 23h495q23 0 23 -23z" />
    <glyph glyph-name="eightsuperior" unicode="&#x2078;" 
d="M338 795q96 0 150 44t55 122q-1 79 -55 121t-150 42t-150 -43t-55 -121q0 -78 54 -121q55 -44 151 -44zM156 1335q0 -69 48 -107t134 -38t134 38t48 108t-48 108q-48 39 -134 39t-134 -39t-48 -109zM61 961q0 152 150 196v2q-127 47 -127 176q0 101 68 157t186 56
t186 -56t68 -157q0 -127 -127 -174v-2q150 -49 149 -198q0 -111 -74 -171t-202 -60q-129 0 -203 60t-74 171z" />
    <glyph glyph-name="ninesuperior" unicode="&#x2079;" 
d="M510 1290q0 88 -50 140t-134 53q-84 0 -136 -52q-52 -53 -53 -143q0 -90 51 -141q52 -51 136 -51t135 53t51 141zM325 1548q117 0 187 -70t70 -190v-295q0 -125 -69 -195t-199 -69q-130 0 -205 86q-16 16 0 33l16 16q16 16 31 -2q61 -68 161 -67q193 0 193 209v118h-2
q-58 -92 -184 -92t-192 71t-66 187t71 189q72 71 188 71z" />
    <glyph glyph-name="zeroinferior" unicode="&#x2080;" 
d="M152 197v-256q0 -217 186 -217t186 217v256q0 215 -186 215t-186 -215zM80 -68v273q0 272 258 272t258 -272v-273q0 -274 -258 -274t-258 274z" />
    <glyph glyph-name="oneinferior" unicode="&#x2081;" 
d="M504 440v-745q0 -23 -23 -23h-26q-23 0 -23 23v672l-186 -140q-18 -14 -31 4l-12 17q-12 18 6 33l227 172q14 10 29 10h16q23 0 23 -23z" />
    <glyph glyph-name="twoinferior" unicode="&#x2082;" 
d="M598 -285v-20q0 -23 -23 -23h-448q-23 0 -23 23v22q0 16 13 29l307 313q100 100 100 197q0 156 -174 156q-121 0 -184 -107q-8 -20 -31 -8l-18 12q-18 12 -8 31q80 137 243 137q116 0 180 -58t64 -163q0 -68 -25 -120t-92 -120l-274 -278h370q23 0 23 -23z" />
    <glyph glyph-name="threeinferior" unicode="&#x2083;" 
d="M367 -342q-170 0 -258 111q-12 16 2 30l16 17q16 16 33 -4q70 -88 202 -88q94 0 146 44q51 44 51 123q0 162 -211 162h-59q-23 0 -23 23v20q0 23 23 23h53q199 0 199 143q0 72 -48 111t-137 39q-121 0 -188 -86q-16 -18 -33 -2l-14 12q-16 16 -4 31q88 111 243 110
q117 0 185 -56t67 -157q0 -133 -129 -174v-2q147 -43 148 -199q0 -111 -70 -171t-194 -60z" />
    <glyph glyph-name="fourinferior" unicode="&#x2084;" 
d="M469 -74v428h-2l-322 -428h324zM614 -139h-73v-166q0 -23 -23 -23h-26q-23 0 -23 23v166h-381q-23 0 -22 22v31q0 14 10 29l381 506q12 14 26 14h35q23 0 23 -23v-514h73q23 0 23 -22v-21q0 -22 -23 -22z" />
    <glyph glyph-name="fiveinferior" unicode="&#x2085;" 
d="M378 174q108 0 178 -70t69 -188q0 -118 -73 -188t-198 -70q-166 0 -252 109q-12 14 4 30l15 15q16 16 33 -2q74 -86 183 -86t163 51q53 51 53 141t-52 141t-153 51t-166 -65q-11 -11 -41 -6q-18 4 -18 24l22 379q0 23 25 23h387q23 0 23 -23v-20q0 -23 -23 -23h-348
l-16 -278h2q75 55 183 55z" />
    <glyph glyph-name="sixinferior" unicode="&#x2086;" 
d="M350 -276q84 0 136 52t52 141t-52 141t-135 52t-134 -52q-51 -54 -51 -142t50 -140t134 -52zM356 176q122 0 188 -71t66 -189t-72 -188t-187 -70q-117 0 -187 71t-70 189v295q0 125 69 195t197 70t207 -85q16 -18 0 -35l-16 -16q-14 -14 -31 2q-61 68 -162 68
q-193 0 -192 -209v-119h2q66 92 188 92z" />
    <glyph glyph-name="seveninferior" unicode="&#x2087;" 
d="M629 440v-32q0 -14 -6 -27l-344 -692q-10 -16 -27 -17h-31q-29 0 -16 27l350 698h-399v-116q0 -23 -23 -23h-22q-23 0 -23 23v159q0 23 23 23h495q23 0 23 -23z" />
    <glyph glyph-name="eightinferior" unicode="&#x2088;" 
d="M338 53q-96 0 -150 -43t-55 -121q0 -77 54 -121q55 -44 151 -44t150 44t55 121q-1 78 -55 121t-150 43zM156 264q0 -70 48 -108t134 -37q86 0 134 38q48 37 48 107t-48 109t-134 39t-134 -39t-48 -109zM338 -342q-129 0 -203 60t-74 171q0 152 150 197v2
q-127 47 -127 176q0 100 68 156t186 57q118 0 186 -56t68 -157q0 -127 -127 -174v-2q150 -49 149 -199q0 -111 -74 -171t-202 -60z" />
    <glyph glyph-name="nineinferior" unicode="&#x2089;" 
d="M510 219q0 88 -50 140q-50 53 -134 53t-136 -52t-53 -143q0 -90 51 -141q52 -51 136 -51t135 53t51 141zM325 477q117 -1 187 -71t70 -189v-295q0 -124 -69 -194t-199 -70t-205 86q-16 16 0 33l16 16q16 16 31 -2q61 -68 161 -67q193 0 193 208v119h-2q-58 -92 -184 -92
t-192 71q-66 70 -66 188t71 189q72 70 188 70z" />
    <glyph glyph-name="Euro" unicode="&#x20ac;" horiz-adv-x="1081" 
d="M598 53q223 0 315 178q12 23 35 11l31 -17q16 -8 8 -32q-117 -217 -391 -218q-200 0 -308 114t-108 329v43h-82q-25 0 -24 24v27q0 25 24 25h82v221h-82q-25 0 -24 24v27q0 25 24 25h82v26q0 215 108 329t308 114q279 0 391 -218q8 -25 -8 -32l-31 -17q-23 -12 -35 13
q-92 176 -315 176q-332 0 -332 -381v-10h496q27 0 20 -27l-6 -27q-4 -23 -26 -22h-484v-221h436q27 0 21 -27l-6 -27q-4 -23 -27 -22h-424v-27q0 -381 332 -381z" />
    <glyph glyph-name="uni20B9" unicode="&#x20b9;" horiz-adv-x="1081" 
d="M995 870h-86q-10 -170 -128 -250t-359 -81h-150v-2l607 -506q14 -11 10 -21t-21 -10h-59q-12 0 -29 10l-633 535q-14 8 -10 30l4 21q6 20 29 20h252q199 0 293 60t104 194h-669q-23 0 -21 25l6 29q2 20 25 20h659q-10 132 -104 194t-293 62h-272q-27 0 -21 27l6 28
q4 23 27 23h842q27 0 20 -25l-8 -28q-2 -20 -25 -21h-237v-2q141 -76 153 -258h101q25 0 18 -24l-6 -29q-2 -21 -25 -21z" />
    <glyph glyph-name="uni2113" unicode="&#x2113;" horiz-adv-x="829" 
d="M332 1020v-522h2q295 256 295 540q0 186 -142 187q-155 0 -155 -205zM517 -25q-128 0 -200 80t-71 226v49q-6 -4 -39 -27t-59 -38t-37 5l-15 27q-12 18 8 33q92 57 142 96v602q0 133 62 204t174 71t170 -69q60 -70 60 -214t-98 -310t-282 -315v-102q0 -240 192 -240
q82 0 154 62q21 19 37 -4l18 -25q12 -16 -6 -35q-82 -76 -210 -76z" />
    <glyph glyph-name="uni2117" unicode="&#x2117;" horiz-adv-x="1589" 
d="M666 993v-319h155q188 0 189 160q0 160 -189 159h-155zM616 1057h205q260 0 260 -221q0 -117 -63 -171t-197 -55h-155v-284q0 -23 -23 -23h-27q-23 0 -22 23v708q-1 23 22 23zM160 680q0 -271 182 -456t452 -185t453 185q183 186 183 456t-182 456t-453 185
q-270 0 -453 -184q-182 -186 -182 -457zM1499 681q0 -302 -202 -504q-201 -202 -501 -202t-505 201q-201 205 -201 505t202 502q202 201 504 201t500 -202q203 -199 203 -501z" />
    <glyph glyph-name="trademark" unicode="&#x2122;" horiz-adv-x="1552" 
d="M1360 1360h47q23 0 23 -23v-680q0 -23 -23 -22h-27q-23 0 -22 22v609h-2l-266 -615q-6 -16 -27 -16h-21q-20 0 -26 16l-264 611h-2v-605q0 -23 -23 -22h-22q-23 0 -23 22v680q0 23 23 23h45q35 0 43 -27l262 -598l262 598q8 27 43 27zM539 1337v-18q0 -23 -23 -23h-197
v-639q0 -23 -22 -22h-27q-23 0 -22 22v639h-195q-23 0 -22 23v18q0 23 22 23h463q23 0 23 -23z" />
    <glyph glyph-name="uni2126" unicode="&#x2126;" horiz-adv-x="1179" 
d="M1059 893v-361q0 -328 -236 -446v-2h211q25 0 25 -25v-34q0 -25 -25 -25h-313q-25 0 -25 25v45q0 20 21 26q254 92 254 441v335q0 220 -93 326t-288 106t-288 -106t-93 -326v-335q0 -348 254 -441q20 -6 20 -26v-45q0 -25 -24 -25h-314q-25 0 -24 25v34q0 25 24 25h211v2
q-236 119 -235 446v361q0 242 120 367q120 124 349 124t349 -124t120 -367z" />
    <glyph glyph-name="estimated" unicode="&#x212e;" horiz-adv-x="1679" 
d="M379 700h921q12 0 13 13v387q0 25 -21 45q-186 199 -450 199t-455 -207q-16 -27 -16 -45v-379q0 -13 8 -13zM848 16q281 0 473 236h111q-106 -131 -262 -204t-330 -73q-307 0 -525 205q-217 205 -217 499t218 500q218 205 524 205t523 -206q218 -206 218 -498v-16h-1202
q-8 0 -8 -9v-387q0 -14 16 -41q180 -211 461 -211z" />
    <glyph glyph-name="onethird" unicode="&#x2153;" horiz-adv-x="1617" 
d="M1219 1278h30q15 0 19 -8t-4 -19l-811 -1237q-8 -14 -29 -14h-31q-14 0 -18 8t4 19l811 1237q8 14 29 14zM504 1255v-745q0 -23 -23 -23h-26q-23 0 -23 23v672l-186 -140q-18 -14 -31 5l-12 16q-12 18 6 33l227 172q14 10 29 10h16q23 0 23 -23zM1309 -14
q-170 0 -258 110q-12 16 2 31l16 16q16 16 33 -4q70 -88 203 -88q94 0 145 44t51 124q0 162 -211 162h-59q-23 0 -23 22v21q0 23 23 22h53q199 0 199 144q0 72 -48 110t-137 39q-121 0 -188 -86q-16 -18 -33 -2l-14 13q-16 16 -4 30q88 111 244 111q117 0 185 -56t66 -157
q0 -133 -129 -174v-2q147 -43 148 -199q0 -111 -70 -171t-194 -60z" />
    <glyph glyph-name="twothirds" unicode="&#x2154;" horiz-adv-x="1617" 
d="M1268 1278h30q14 0 18 -8t-3 -19l-811 -1237q-8 -14 -29 -14h-31q-14 0 -18 8t4 19l811 1237q8 14 29 14zM598 530v-20q0 -23 -23 -23h-448q-23 0 -23 23v22q0 16 13 29l307 313q100 100 100 197q0 156 -174 156q-121 0 -184 -107q-8 -20 -31 -8l-18 12q-18 12 -8 31
q80 137 243 137q116 0 180 -58t64 -163q0 -68 -25 -120t-92 -120l-274 -278h370q23 0 23 -23zM1303 -14q-168 0 -259 110q-12 16 3 31l16 16q18 16 33 -4q70 -88 202 -88q94 0 146 44q51 44 51 124q0 162 -211 162h-59q-23 0 -23 22v21q0 23 23 22h53q199 0 199 144
q-1 72 -49 110t-136 39q-121 0 -188 -86q-16 -18 -33 -2l-14 13q-16 16 -4 30q90 111 243 111q117 0 185 -56t67 -157q0 -133 -129 -174v-2q147 -43 148 -199q0 -111 -70 -171t-194 -60z" />
    <glyph glyph-name="oneeighth" unicode="&#x215b;" horiz-adv-x="1617" 
d="M1219 1278h30q15 0 19 -8t-4 -19l-811 -1237q-8 -14 -29 -14h-31q-14 0 -18 8t4 19l811 1237q8 14 29 14zM504 1255v-745q0 -23 -23 -23h-26q-23 0 -23 23v672l-186 -140q-18 -14 -31 5l-12 16q-12 18 6 33l227 172q14 10 29 10h16q23 0 23 -23zM1497 217q0 78 -54 121
q-55 43 -151 43t-150 -43t-54 -121t54 -122t150 -44t151 44q54 44 54 122zM1292 739q-86 -1 -134 -39t-48 -108t48 -108t134 -38t134 38t48 108t-48 108t-134 39zM1569 217q0 -111 -74 -171t-203 -60q-128 0 -202 60t-74 171q0 152 149 197v2q-127 47 -127 176q0 100 68 156
t186 57q118 0 187 -56q68 -56 67 -157q0 -127 -127 -174v-2q150 -49 150 -199z" />
    <glyph glyph-name="threeeighths" unicode="&#x215c;" horiz-adv-x="1617" 
d="M1229 1278h31q14 0 18 -8t-4 -19l-811 -1237q-8 -14 -29 -14h-31q-14 0 -18 8t4 19l811 1237q8 14 29 14zM362 539q94 0 146 44q51 44 51 124q0 162 -211 161h-59q-23 0 -23 23v20q0 23 23 23h53q199 0 199 143q0 72 -48 111t-137 39q-121 0 -188 -86q-16 -18 -33 -2
l-14 12q-16 16 -4 31q88 111 243 110q117 0 185 -56t67 -157q0 -133 -129 -174v-2q147 -43 148 -198q0 -111 -70 -171t-194 -61q-170 0 -258 111q-12 16 2 30l16 17q16 16 33 -4q70 -88 202 -88zM1497 217q0 78 -54 121q-55 43 -151 43t-150 -43t-54 -121t54 -122t150 -44
t151 44q54 44 54 122zM1292 739q-86 -1 -134 -39t-48 -108t48 -108t134 -38t134 38t48 108t-48 108t-134 39zM1569 217q0 -111 -74 -171t-203 -60q-128 0 -202 60t-74 171q0 152 149 197v2q-127 47 -127 176q0 100 68 156t186 57q118 0 187 -56q68 -56 67 -157
q0 -127 -127 -174v-2q150 -49 150 -199z" />
    <glyph glyph-name="fiveeighths" unicode="&#x215d;" horiz-adv-x="1617" 
d="M1229 1278h31q14 0 18 -8t-4 -19l-811 -1237q-8 -14 -29 -14h-31q-14 0 -18 8t4 19l811 1237q8 14 29 14zM378 989q108 1 178 -69t69 -188q0 -118 -73 -188t-198 -71q-166 0 -252 109q-12 14 4 30l15 15q16 16 33 -2q74 -86 183 -86t163 51q53 51 53 141t-52 141
q-52 52 -153 52t-166 -66q-11 -11 -41 -6q-18 4 -18 25l22 378q0 23 25 23h387q23 0 23 -23v-20q0 -23 -23 -23h-348l-16 -278h2q75 55 183 55zM1497 217q0 78 -54 121q-55 43 -151 43t-150 -43t-54 -121t54 -122t150 -44t151 44q54 44 54 122zM1292 739q-86 -1 -134 -39
t-48 -108t48 -108t134 -38t134 38t48 108t-48 108t-134 39zM1569 217q0 -111 -74 -171t-203 -60q-128 0 -202 60t-74 171q0 152 149 197v2q-127 47 -127 176q0 100 68 156t186 57q118 0 187 -56q68 -56 67 -157q0 -127 -127 -174v-2q150 -49 150 -199z" />
    <glyph glyph-name="seveneighths" unicode="&#x215e;" horiz-adv-x="1617" 
d="M1126 1278h31q15 0 19 -8t-5 -19l-811 -1237q-8 -14 -28 -14h-31q-14 0 -18 8t4 19l811 1237q8 14 28 14zM629 1255v-32q0 -14 -6 -27l-344 -692q-10 -16 -27 -17h-31q-29 0 -16 27l350 698h-399v-116q0 -23 -23 -23h-22q-23 0 -23 23v159q0 23 23 23h495q23 0 23 -23z
M1485 217q0 78 -54 121q-55 43 -151 43t-150 -43t-55 -121q0 -78 54 -122q55 -44 151 -44t151 44q54 44 54 122zM1280 739q-86 -1 -134 -39t-48 -108t48 -108t134 -38t134 38t48 108t-48 108t-134 39zM1280 -14q-129 0 -203 60t-73 171q0 152 149 197v2q-127 47 -127 176
q0 100 68 156t186 57q118 0 186 -56t68 -157q0 -127 -127 -174v-2q150 -49 149 -199q0 -111 -74 -171t-202 -60z" />
    <glyph glyph-name="partialdiff" unicode="&#x2202;" horiz-adv-x="1101" 
d="M486 53q144 0 246 119q103 119 147 340q-4 129 -84 206t-215 77q-170 0 -281 -118t-111 -285t77 -253t221 -86zM576 1384q202 0 310 -140t107 -408q0 -408 -137 -634t-385 -227q-166 0 -267 108t-102 282q0 227 131 367t338 140q115 0 201 -49t127 -135h2q6 74 6 156
q0 463 -344 463q-152 0 -268 -111q-20 -20 -35 2l-18 27q-12 20 2 35q130 124 332 124z" />
    <glyph glyph-name="uni2206" unicode="&#x2206;" horiz-adv-x="1167" 
d="M594 1247l-416 -1167h830l-412 1167h-2zM1100 0h-1010q-31 0 -20 29l473 1308q6 23 28 23h47q23 0 29 -23l473 -1308q11 -29 -20 -29z" />
    <glyph glyph-name="product" unicode="&#x220f;" horiz-adv-x="1241" 
d="M1100 1335v-1474q0 -25 -25 -25h-39q-25 0 -24 25v1419h-783v-1419q0 -25 -24 -25h-39q-25 0 -25 25v1474q0 25 25 25h909q25 0 25 -25z" />
    <glyph glyph-name="summation" unicode="&#x2211;" horiz-adv-x="974" 
d="M928 1280h-778l466 -666q12 -16 0 -32l-466 -666h778q25 0 24 -25v-30q0 -25 -24 -25h-858q-25 0 -25 25v43q0 16 10 30l469 664l-469 664q-10 14 -10 30v43q0 25 25 25h858q25 0 24 -25v-30q1 -25 -24 -25z" />
    <glyph glyph-name="minus" unicode="&#x2212;" horiz-adv-x="1081" 
d="M1014 532h-946q-25 0 -25 25v29q0 25 25 24h946q25 0 24 -24v-29q1 -25 -24 -25z" />
    <glyph glyph-name="uni2219" unicode="&#x2219;" horiz-adv-x="430" 
d="M284 639q0 -31 -19 -51t-50 -20t-51 20t-21 51q1 31 21 50t51 19t49 -20q20 -18 20 -49z" />
    <glyph glyph-name="radical" unicode="&#x221a;" horiz-adv-x="1028" 
d="M956 1360h31q27 0 21 -27l-390 -1476q-6 -20 -28 -21h-55q-20 0 -29 21l-225 604l-179 -49q-25 -6 -30 18l-4 23q-6 23 16 28l225 62q20 6 31 -17l217 -598h2l369 1411q5 21 28 21z" />
    <glyph glyph-name="infinity" unicode="&#x221e;" horiz-adv-x="1310" 
d="M973 424q80 0 130 58t50 156t-55 158q-54 58 -136 58t-140 -48t-126 -161q76 -123 136 -172t141 -49zM158 640q0 -98 55 -158q55 -58 136 -58t139 48t126 161q-74 123 -134 172t-141 49t-131 -58t-50 -156zM980 924q104 0 176 -78t73 -207q0 -129 -75 -207t-196 -78
q-178 0 -307 219q-135 -219 -303 -219q-122 0 -194 78t-72 207t75 207t180 78t176 -50t146 -169q72 117 144 168q73 51 177 51z" />
    <glyph glyph-name="integral" unicode="&#x222b;" horiz-adv-x="638" 
d="M307 29q-1 141 -31 494t-30 543t80 286q80 98 223 106q25 0 24 -24v-27q0 -25 -24 -25q-217 -23 -217 -305q0 -139 30 -512q31 -335 31 -525t-80 -287t-223 -105q-25 0 -24 24v27q0 25 24 25q217 23 217 305z" />
    <glyph glyph-name="approxequal" unicode="&#x2248;" horiz-adv-x="1081" 
d="M334 383q-119 0 -209 -141q-12 -23 -33 -11l-26 17q-20 14 -9 33q113 180 273 180q114 0 234 -80t197 -80t125 32t97 109q14 20 33 9l24 -15q20 -14 9 -35q-115 -178 -273 -178q-118 0 -236 80t-206 80zM334 838q-119 0 -209 -142q-12 -23 -33 -10l-26 16q-20 14 -9 33
q113 180 273 180q114 0 234 -80q194 -130 322 -48q48 32 97 110q14 20 33 8l24 -14q20 -14 9 -35q-115 -178 -273 -178q-118 0 -236 80t-206 80z" />
    <glyph glyph-name="notequal" unicode="&#x2260;" horiz-adv-x="1081" 
d="M977 383q25 0 24 -25v-28q0 -25 -24 -25h-563l-152 -254q-10 -16 -29 -16h-28q-35 0 -17 28l144 242h-226q-25 0 -24 25v28q0 25 24 25h273l223 377h-496q-25 0 -24 24v29q0 25 24 25h543l152 254q10 16 28 16h31q35 0 17 -29l-144 -241h244q25 0 24 -25v-29
q0 -25 -24 -24h-291l-225 -377h516z" />
    <glyph glyph-name="lessequal" unicode="&#x2264;" horiz-adv-x="1081" 
d="M111 78h860q25 0 24 -25v-28q0 -25 -24 -25h-860q-25 0 -25 25v28q0 25 25 25zM995 285v-35q0 -35 -28 -19l-863 394q-18 10 -18 28v31q0 20 18 29l863 391q29 16 28 -19v-32q0 -21 -18 -29l-793 -356l793 -355q18 -10 18 -28z" />
    <glyph glyph-name="greaterequal" unicode="&#x2265;" horiz-adv-x="1081" 
d="M111 78h860q25 0 24 -25v-28q0 -25 -24 -25h-860q-25 0 -25 25v28q0 25 25 25zM995 684v-31q0 -18 -18 -28l-862 -394q-29 -16 -29 19v35q0 18 18 28l791 355l-791 356q-18 8 -18 29v32q0 35 29 19l862 -391q18 -9 18 -29z" />
    <glyph glyph-name="lozenge" unicode="&#x25ca;" horiz-adv-x="1056" 
d="M535 1286l-351 -606l353 -606h2l348 606l-350 606h-2zM549 -20h-27q-20 0 -33 20l-385 664q-10 16 0 32l385 664q12 20 33 20h27q20 0 33 -20l387 -664q10 -16 0 -32l-387 -664q-12 -20 -33 -20z" />
    <glyph glyph-name="uniE069" unicode="&#xe069;" horiz-adv-x="401" 
d="M219 0h-35q-25 0 -24 25v956q0 25 24 25h35q25 0 25 -25v-956q0 -25 -25 -25zM201 1225q-29 0 -49 18q-18 20 -19 49q0 29 19 47q47 47 95 -1t1 -95q-18 -18 -47 -18z" />
    <glyph glyph-name="uniEF01" unicode="&#xef01;" horiz-adv-x="1024" 
d="M580 -184q0 -109 -88 -146q-14 -6 -24 11t3 24q33 16 43 62q-45 -1 -64 39q-18 40 14 70t74 10t42 -70z" />
    <glyph glyph-name="uniEF02" unicode="&#xef02;" horiz-adv-x="1024" 
d="M496 1057h-19q-27 0 -22 24l43 330q4 23 24 23h29q24 0 22 -27l-53 -330q-2 -20 -24 -20z" />
    <glyph glyph-name="uniF8FF" unicode="&#xf8ff;" horiz-adv-x="2048" 
d="M1903 682h47v-10h-19v-51h-12v51h-16v10zM2021 682v-61h-12v51h-2l-14 -41h-8l-15 41h-2v-51h-10v61h20l11 -33h2l10 33h20zM588 596h-15q-8 0 -12 -10l-26 -117h36l25 115q2 12 -8 12zM1155 596h-14q-8 0 -13 -10l-26 -117h37l24 115q4 12 -8 12zM764 596h-25l-28 -127
h26q11 0 13 8l22 107q2 12 -8 12zM1673 596h-24l-29 -127h27q10 0 12 8l22 107q2 12 -8 12zM231 596h-26l-41 -180h26q8 0 13 10l35 158q3 12 -7 12zM1411 596h-37l-49 -219h-49l49 219h-39l8 39h125zM1794 496h51l-8 -39h-53l-8 -41h67l-10 -39h-115l58 258h116l-10 -39
h-65zM1462 469h15q10 0 12 8l35 158h49l-35 -160q-8 -45 -49 -45l-29 -53h-49l29 53q-37 0 -37 31q0 14 2 20l35 154h49l-35 -154q-4 -12 8 -12zM428 635h49l-57 -258h-49l12 53h-37l-12 -53h-49l57 258h49l-37 -166h37zM1657 430h-45l-13 -53h-49l58 258h88q37 0 37 -31
q0 -12 -2 -20l-25 -109q-8 -45 -49 -45zM786 635q37 0 37 -31q0 -12 -2 -20l-22 -107q-10 -35 -27 -41l12 -59h-47l-8 53h-27l-12 -53h-49l57 258h88zM1133 635h45q37 0 36 -31q0 -12 -2 -20l-45 -207h-49l12 53h-34l-15 -53h-49l47 211q10 47 54 47zM565 635h45
q37 0 37 -31q0 -12 -2 -20l-45 -207h-49l12 53h-35l-14 -53h-49l47 211q10 47 53 47zM201 377h-95l58 258h88q37 0 37 -31q0 -12 -2 -20l-35 -158q-14 -49 -51 -49zM899 430v107h-2l-35 -160h-47l57 258h56v-135h2l57 135h64l-58 -258h-49l35 160h-2l-45 -107h-33z" />
    <glyph glyph-name="NULL" horiz-adv-x="0" 
 />
    <glyph glyph-name="CR" horiz-adv-x="681" 
 />
    <glyph glyph-name="zero.numr" 
d="M152 1012v-256q0 -217 186 -217t186 217v256q0 215 -186 215t-186 -215zM80 748v272q0 272 258 272t258 -272v-272q0 -274 -258 -275q-258 1 -258 275z" />
    <glyph glyph-name="one.numr" 
d="M504 1255v-745q0 -23 -23 -23h-26q-23 0 -23 23v672l-186 -140q-18 -14 -31 5l-12 16q-12 18 6 33l227 172q14 10 29 10h16q23 0 23 -23z" />
    <glyph glyph-name="two.numr" 
d="M598 530v-20q0 -23 -23 -23h-448q-23 0 -23 23v22q0 16 13 29l307 313q100 100 100 197q0 156 -174 156q-121 0 -184 -107q-8 -20 -31 -8l-18 12q-18 12 -8 31q80 137 243 137q116 0 180 -58t64 -163q0 -68 -25 -120t-92 -120l-274 -278h370q23 0 23 -23z" />
    <glyph glyph-name="three.numr" 
d="M362 539q94 0 146 44q51 44 51 124q0 162 -211 161h-59q-23 0 -23 23v20q0 23 23 23h53q199 0 199 143q0 72 -48 111t-137 39q-121 0 -188 -86q-16 -18 -33 -2l-14 12q-16 16 -4 31q88 111 243 110q117 0 185 -56t67 -157q0 -133 -129 -174v-2q147 -43 148 -198
q0 -111 -70 -171t-194 -61q-170 0 -258 111q-12 16 2 30l16 17q16 16 33 -4q70 -88 202 -88z" />
    <glyph glyph-name="four.numr" 
d="M469 741v428h-2l-322 -428h324zM614 676h-73v-166q0 -23 -23 -23h-26q-23 0 -23 23v166h-381q-23 0 -22 22v31q0 14 10 29l381 506q12 14 26 14h35q23 0 23 -23v-514h73q23 0 23 -22v-21q0 -22 -23 -22z" />
    <glyph glyph-name="five.numr" 
d="M378 989q108 1 178 -69t69 -188q0 -118 -73 -188t-198 -71q-166 0 -252 109q-12 14 4 30l15 15q16 16 33 -2q74 -86 183 -86t163 51q53 51 53 141t-52 141q-52 52 -153 52t-166 -66q-11 -11 -41 -6q-18 4 -18 25l22 378q0 23 25 23h387q23 0 23 -23v-20q0 -23 -23 -23
h-348l-16 -278h2q75 55 183 55z" />
    <glyph glyph-name="six.numr" 
d="M350 539q84 0 136 52t52 141t-52 141q-52 53 -135 53t-134 -54t-51 -141q0 -88 50 -140t134 -52zM355 991q123 -1 189 -71t66 -188t-72 -188t-187 -71q-117 0 -187 71t-70 189v295q0 125 69 195q69 69 197 69t207 -84q16 -18 0 -34l-16 -17q-14 -14 -31 2q-61 68 -162 68
q-193 0 -192 -209v-119h2q64 92 187 92z" />
    <glyph glyph-name="seven.numr" 
d="M629 1255v-32q0 -14 -6 -27l-344 -692q-10 -16 -27 -17h-31q-29 0 -16 27l350 698h-399v-116q0 -23 -23 -23h-22q-23 0 -23 23v159q0 23 23 23h495q23 0 23 -23z" />
    <glyph glyph-name="eight.numr" 
d="M338 539q96 0 150 44t55 122q-1 79 -55 121t-150 42t-150 -43t-55 -121q0 -78 54 -121q55 -44 151 -44zM156 1079q0 -69 48 -107t134 -38t134 38t48 108t-48 108q-48 39 -134 39t-134 -39t-48 -109zM61 705q0 152 150 196v2q-127 47 -127 176q0 101 68 157t186 56
t186 -56t68 -157q0 -127 -127 -174v-2q150 -49 149 -198q0 -111 -74 -171t-202 -60q-129 0 -203 60t-74 171z" />
    <glyph glyph-name="nine.numr" 
d="M510 1034q0 88 -50 140t-134 53q-84 0 -136 -52q-52 -53 -53 -143q0 -90 51 -141q52 -51 136 -51t135 53t51 141zM325 1292q117 0 187 -70t70 -190v-295q0 -125 -69 -195t-199 -69q-130 0 -205 86q-16 16 0 33l16 16q16 16 31 -2q61 -68 161 -67q193 0 193 209v118h-2
q-58 -92 -184 -92t-192 71t-66 189t71 188q72 70 188 70z" />
    <glyph glyph-name="zero.dnom" 
d="M152 524v-256q0 -217 186 -217t186 217v256q0 215 -186 215t-186 -215zM80 260v272q0 272 258 273q258 0 258 -273v-272q0 -274 -258 -274t-258 274z" />
    <glyph glyph-name="one.dnom" 
d="M504 768v-745q0 -23 -23 -23h-26q-23 0 -23 23v671l-186 -139q-18 -14 -31 4l-12 16q-12 18 6 33l227 172q14 10 29 11h16q23 0 23 -23z" />
    <glyph glyph-name="two.dnom" 
d="M598 43v-20q0 -23 -23 -23h-448q-23 0 -23 23v22q0 16 13 29l307 313q100 100 100 197q0 156 -174 155q-121 0 -184 -106q-8 -20 -31 -8l-18 12q-18 12 -8 31q80 137 243 137q116 -1 180 -59t64 -162q0 -68 -25 -120t-92 -120l-274 -278h370q23 0 23 -23z" />
    <glyph glyph-name="three.dnom" 
d="M367 -14q-170 0 -258 110q-12 16 2 31l16 16q16 16 33 -4q70 -88 202 -88q94 0 146 44q51 44 51 124q0 162 -211 162h-59q-23 0 -23 22v21q0 23 23 22h53q199 0 199 144q0 72 -48 110t-137 39q-121 0 -188 -86q-16 -18 -33 -2l-14 13q-16 16 -4 30q88 111 243 111
q117 0 185 -56t67 -157q0 -133 -129 -174v-2q147 -43 148 -199q0 -111 -70 -171t-194 -60z" />
    <glyph glyph-name="four.dnom" 
d="M469 254v428h-2l-322 -428h324zM614 188h-73v-165q0 -23 -23 -23h-26q-23 0 -23 23v165h-381q-23 0 -22 23v31q0 14 10 28l381 506q12 14 26 15h35q23 0 23 -23v-514h73q23 0 23 -23v-20q0 -23 -23 -23z" />
    <glyph glyph-name="five.dnom" 
d="M378 502q108 0 178 -70t69 -188q0 -118 -73 -188q-73 -71 -198 -70q-166 0 -252 108q-12 14 4 31l15 14q16 16 33 -2q74 -86 183 -86t163 51q53 52 53 142t-52 141t-153 51t-166 -65q-14 -14 -36 -8q-23 6 -23 26l22 379q0 23 25 23h387q23 0 23 -23v-20q0 -23 -23 -23
h-348l-16 -279h2q75 56 183 56z" />
    <glyph glyph-name="six.dnom" 
d="M166 244q0 -88 50 -140t134 -53q84 0 136 52q52 51 52 141t-52 142t-135 52t-134 -53t-51 -141zM356 504q122 0 188 -71t66 -189t-72 -188t-187 -70q-117 0 -187 70t-70 190v295q0 125 69 195t197 69q128 0 207 -84q16 -18 0 -35l-16 -16q-14 -14 -31 2q-61 68 -162 67
q-193 0 -192 -209v-118h2q66 92 188 92z" />
    <glyph glyph-name="seven.dnom" 
d="M629 768v-33q0 -14 -6 -26l-344 -693q-10 -16 -27 -16h-31q-29 0 -16 27l350 698h-399v-117q0 -23 -23 -22h-22q-23 0 -23 22v160q0 23 23 23h495q23 0 23 -23z" />
    <glyph glyph-name="eight.dnom" 
d="M338 51q96 0 150 44t55 122q-1 78 -55 121t-150 43t-150 -43t-55 -121q0 -78 54 -122q55 -44 151 -44zM338 739q-86 -1 -134 -39t-48 -108t48 -108t134 -38t134 38t48 108t-48 108t-134 39zM338 -14q-129 0 -203 60t-74 171q0 152 150 197v2q-127 47 -127 176
q0 100 68 156t186 57q118 0 186 -56t68 -157q0 -127 -127 -174v-2q150 -49 149 -199q0 -111 -74 -171t-202 -60z" />
    <glyph glyph-name="nine.dnom" 
d="M137 545q0 -89 51 -141q52 -52 136 -52t135 54t51 141q0 88 -50 140t-134 52t-136 -52t-53 -142zM324 287q-126 1 -192 71t-66 188t72 188t187 71q117 0 187 -71t70 -189v-295q0 -125 -69 -195q-69 -69 -199 -69t-205 86q-16 16 0 32l16 17q16 16 31 -2q61 -68 161 -68
q193 0 193 209v119h-2q-58 -92 -184 -92z" />
    </font>
</defs>
</svg>
