<?xml version="1.0" encoding="UTF-8" standalone="no"?>
<svg width="34px" height="34px" viewBox="0 0 34 34" version="1.1" xmlns="http://www.w3.org/2000/svg" xmlns:xlink="http://www.w3.org/1999/xlink" xmlns:sketch="http://www.bohemiancoding.com/sketch/ns">
    <!-- Generator: Sketch 3.1.1 (8761) - http://www.bohemiancoding.com/sketch -->
    <title>hidden-hungary-social-instagram-header 3</title>
    <desc>Created with Sketch.</desc>
    <defs></defs>
    <g id="kit" stroke="none" stroke-width="1" fill="none" fill-rule="evenodd" sketch:type="MSPage">
        <g id="hidden-hungary-social-instagram-header-3" sketch:type="MSArtboardGroup" fill="#FFFFFF">
            <path d="M23.7362187,8 L10.1232969,8 C8.950625,8 8,8.94823438 8,10.1180938 L8,23.7411406 C8,24.911 8.950625,25.8592344 10.1232969,25.8592344 L23.7362187,25.8592344 C24.9088906,25.8592344 25.859375,24.911 25.859375,23.7411406 L25.859375,10.1180938 C25.859375,8.94823438 24.9088906,8 23.7362187,8 L23.7362187,8 Z M20.4059375,10.5335 C20.4059375,10.2582969 20.6295312,10.035125 20.9052969,10.035125 L23.3199688,10.035125 C23.595875,10.035125 23.8194687,10.2582969 23.8194687,10.5335 L23.8194687,12.9424063 C23.8194687,13.21775 23.595875,13.4407813 23.3199688,13.4407813 L20.9052969,13.4407813 C20.6295312,13.4407813 20.4059375,13.21775 20.4059375,12.9424063 L20.4059375,10.5335 L20.4059375,10.5335 Z M16.9506406,13.5238906 C18.8473906,13.5238906 20.3849844,15.0581094 20.3849844,16.9503594 C20.3849844,18.84275 18.8473906,20.3766875 16.9506406,20.3766875 C15.05375,20.3766875 13.5161563,18.84275 13.5161563,16.9503594 C13.5161563,15.0581094 15.05375,13.5238906 16.9506406,13.5238906 L16.9506406,13.5238906 Z M23.8610938,23.2841094 C23.8610938,23.5593125 23.6375,23.7824844 23.3615938,23.7824844 L10.5395469,23.7824844 C10.2636406,23.7824844 10.0399063,23.5593125 10.0399063,23.2841094 L10.0399063,15.5175313 L11.7109531,15.5175313 C11.5852344,15.9741406 11.517875,16.4545156 11.517875,16.9503594 C11.517875,19.9389219 13.9549063,22.3703281 16.9506406,22.3703281 C19.9460938,22.3703281 22.3832656,19.9389219 22.3832656,16.9503594 C22.3832656,16.4545156 22.3159063,15.9741406 22.1901875,15.5175313 L23.8610938,15.5175313 L23.8610938,23.2841094 L23.8610938,23.2841094 Z" id="Imported-Layers-2" sketch:type="MSShapeGroup"></path>
        </g>
    </g>
</svg>