<?xml version="1.0" encoding="UTF-8" standalone="no"?>
<svg width="34px" height="34px" viewBox="0 0 34 34" version="1.1" xmlns="http://www.w3.org/2000/svg" xmlns:xlink="http://www.w3.org/1999/xlink" xmlns:sketch="http://www.bohemiancoding.com/sketch/ns">
    <!-- Generator: Sketch 3.1.1 (8761) - http://www.bohemiancoding.com/sketch -->
    <title>hidden-hungary-social-twitter-header 2</title>
    <desc>Created with Sketch.</desc>
    <defs></defs>
    <g id="kit" stroke="none" stroke-width="1" fill="none" fill-rule="evenodd" sketch:type="MSPage">
        <g id="hidden-hungary-social-twitter-header-2" sketch:type="MSArtboardGroup" fill="#FFFFFF">
            <path d="M27,11.7598476 C26.30099,12.0582927 25.549635,12.260061 24.76123,12.3507927 C25.56588,11.88625 26.184045,11.1507927 26.475125,10.2743902 C25.72187,10.7045427 24.887675,11.0168902 23.99971,11.1850915 C23.28873,10.4557622 22.27565,10 21.15446,10 C19.00176,10 17.256325,11.6802744 17.256325,13.7529268 C17.256325,14.0469817 17.29081,14.3334451 17.35731,14.6082012 C14.11762,14.4516159 11.245295,12.957561 9.32278,10.6869817 C8.98724,11.24125 8.79496,11.8858841 8.79496,12.573689 C8.79496,13.8757622 9.48314,15.0244512 10.52909,15.697439 C9.89012,15.6779573 9.289055,15.5091159 8.763515,15.2280488 C8.763135,15.2437805 8.763135,15.2594207 8.763135,15.2752439 C8.763135,17.093628 10.106815,18.6103659 11.89006,18.9552744 C11.562975,19.0409756 11.2186,19.0868902 10.86311,19.0868902 C10.61193,19.0868902 10.367685,19.0632927 10.12971,19.0195732 C10.625705,20.5105183 12.065335,21.5956402 13.77106,21.6258232 C12.436975,22.6324695 10.756235,23.232378 8.92986,23.232378 C8.61522,23.232378 8.30495,23.2146341 8,23.179878 C9.725105,24.2447866 11.774065,24.866189 13.975405,24.866189 C21.14534,24.866189 25.066275,19.147439 25.066275,14.1881098 C25.066275,14.0253963 25.062475,13.8635061 25.054875,13.7025305 C25.816585,13.1734146 26.477405,12.5124085 27,11.7598476" id="Imported-Layers-2" sketch:type="MSShapeGroup"></path>
        </g>
    </g>
</svg>