<?xml version="1.0" encoding="UTF-8" standalone="no"?>
<svg width="34px" height="34px" viewBox="0 0 34 34" version="1.1" xmlns="http://www.w3.org/2000/svg" xmlns:xlink="http://www.w3.org/1999/xlink" xmlns:sketch="http://www.bohemiancoding.com/sketch/ns">
    <!-- Generator: Sketch 3.2.2 (9983) - http://www.bohemiancoding.com/sketch -->
    <title>hidden-hungary-social-mailOver</title>
    <desc>Created with Sketch.</desc>
    <defs></defs>
    <g id="kit" stroke="none" stroke-width="1" fill="none" fill-rule="evenodd" sketch:type="MSPage">
        <g id="hidden-hungary-social-mailOver" sketch:type="MSArtboardGroup" fill="#FFFFFF">
            <g id="Oval-5-+-Imported-Layers-2" sketch:type="MSLayerGroup" transform="translate(7.000000, 11.000000)">
                <g id="Imported-Layers-2" sketch:type="MSShapeGroup">
                    <path d="M-0.0172062937,1.44943316 C0.968335664,2.26581818 1.8823951,3.02220321 2.79565734,3.77948663 C4.72701399,5.38100535 6.65823776,6.98265241 8.5887972,8.58500535 C9.13534615,9.03869519 9.73656993,9.03445989 10.2907587,8.57486631 C13.0784441,6.26297326 15.8670594,3.95210695 18.6554755,1.64098396 C18.7055664,1.59952941 18.7575175,1.56006417 18.8395629,1.49518717 C18.8575664,1.5835508 18.8822133,1.64804278 18.8822797,1.71247059 C18.8841399,4.93058824 18.8848706,8.14864171 18.8826783,11.3667594 C18.8824126,11.7809198 18.7175909,11.9444278 18.2884965,11.9817112 C18.2115664,11.988385 18.1336399,11.9849198 18.0561783,11.9849198 C12.3117343,11.984984 6.56735664,11.984984 0.822912587,11.9849198 C0.745451049,11.9849198 0.667590909,11.9884492 0.590594406,11.9824813 C0.149475524,11.9481497 -0.014548951,11.7800856 -0.0161433566,11.3464171 C-0.0193321678,10.4590588 -0.0172062937,9.57170053 -0.0172062937,8.68434225 L-0.0172062937,1.88464171 L-0.0172062937,1.44943316" id="Fill-1"></path>
                    <path d="M9.43403147,7.38802139 C6.47508042,4.93527273 3.53665734,2.49946524 0.551797203,0.0252192513 L18.3139406,0.0252192513 C15.3417692,2.48958289 12.4040105,4.92545455 9.43403147,7.38802139" id="Fill-2"></path>
                </g>
            </g>
        </g>
    </g>
</svg>