<?xml version="1.0" encoding="UTF-8" standalone="no"?>
<svg width="101px" height="65px" viewBox="0 0 101 65" version="1.1" xmlns="http://www.w3.org/2000/svg" xmlns:xlink="http://www.w3.org/1999/xlink" xmlns:sketch="http://www.bohemiancoding.com/sketch/ns">
    <!-- Generator: Sketch 3.2.2 (9983) - http://www.bohemiancoding.com/sketch -->
    <title>hidden-hungary-brand-header</title>
    <desc>Created with Sketch.</desc>
    <defs></defs>
    <g id="kit" stroke="none" stroke-width="1" fill="none" fill-rule="evenodd" sketch:type="MSPage">
        <g id="hidden-hungary-brand-header" sketch:type="MSArtboardGroup">
            <g id="icon-2" sketch:type="MSLayerGroup" transform="translate(-1.000000, 0.000000)" fill="#FFFFFF">
                <path d="M102.161412,23.1646193 L101.578518,22.6150638 L100.768733,21.7456176 C99.9576953,20.8742786 80.8362523,0.711078226 52.6166426,0.135653788 C52.2637722,0.119880091 51.9096482,0.10852303 51.5530171,0.10852303 C51.5285731,0.10852303 51.5041292,0.110415874 51.4790584,0.110415874 C51.4596286,0.110415874 51.4408256,0.109784926 51.4213958,0.109153978 L51.4213958,0.112308717 C51.377522,0.111677769 51.3336482,0.10852303 51.2897744,0.10852303 C38.6397127,0.10852303 28.3488063,10.4686867 28.3488063,23.2031072 C28.3488063,29.7523458 31.0752478,35.6687438 35.440688,39.8759041 C20.6652554,35.5999705 10.0503098,26.605178 6.41818834,23.2012143 C9.62786809,20.1878074 18.2891773,12.8050866 30.4829518,8.18150076 L28.4114831,4.54219357 C12.5498613,10.6888875 2.65256524,21.1247649 2.07405822,21.7456176 L1.26427376,22.6150638 L0.681379373,23.1652503 L0.717105158,23.2031072 L0.681379373,23.240964 L1.26427376,23.7905196 L2.07405822,24.6599657 C2.88509622,25.5313047 22.0065392,45.6945051 50.2261489,46.2699296 C50.5790194,46.2857033 50.9331434,46.2970603 51.2897744,46.2970603 C51.3142184,46.2970603 51.3386624,46.2951675 51.3637331,46.2951675 C51.3831629,46.2951675 51.4019659,46.2957984 51.4213958,46.2964294 L51.4213958,46.2932746 C51.4658963,46.2939056 51.5091433,46.2970603 51.5530171,46.2970603 C54.2098873,46.2970603 56.7608337,45.8345756 59.136285,44.994784 L70.4688801,65.4103635 L76.1511603,62.2139817 L64.9094466,41.9618177 C70.7076788,37.7660145 74.494612,30.923385 74.494612,23.2024762 C74.494612,16.6532375 71.7675438,10.7368396 67.4021035,6.52967929 C82.1775361,10.8056129 92.7924817,19.8004054 96.4246032,23.2043691 C93.2149234,26.217776 84.5536142,33.6004968 72.3598397,38.2240826 L74.4313085,41.8633898 C90.2929303,35.7166959 100.190226,25.2808184 100.768733,24.6599657 L101.578518,23.7905196 L102.161412,23.2403331 L102.125686,23.2024762 L102.161412,23.1646193 Z M70.4218725,23.2024762 C70.4218725,33.6762105 61.9573685,42.1971612 51.5530171,42.1971612 C51.5091433,42.1971612 51.4652695,42.1946374 51.4213958,42.1940065 C51.4007124,42.1940065 51.3800291,42.1952684 51.3587189,42.1958993 C51.1625405,42.1952684 50.9694959,42.1864351 50.774571,42.1845423 C40.6077647,41.9075561 32.420919,33.5026998 32.420919,23.2031072 C32.420919,12.7293729 40.885423,4.20842215 51.2897744,4.20842215 C51.3336482,4.20842215 51.377522,4.21094595 51.4213958,4.21157689 C51.4427059,4.21157689 51.4633892,4.210315 51.4840726,4.20968405 C51.680251,4.210315 51.8732956,4.21914827 52.0682205,4.22104111 C62.2350268,4.49802722 70.4218725,12.9028835 70.4218725,23.2024762 Z" id="Fill-9" sketch:type="MSShapeGroup"></path>
            </g>
            <path d="M46.5209623,21.6408803 C46.5209623,23.0901675 45.35392,24.2649924 43.9142336,24.2649924 C42.4745471,24.2649924 41.3075048,23.0901675 41.3075048,21.6408803 C41.3075048,20.192224 42.4745471,19.0173991 43.9142336,19.0173991 C45.35392,19.0173991 46.5209623,20.192224 46.5209623,21.6408803" id="Fill-1" fill="#C51066" sketch:type="MSShapeGroup"></path>
            <path d="M53.1333664,21.6408803 C53.1333664,23.0901675 51.9663241,24.2649924 50.5266376,24.2649924 C49.0869512,24.2649924 47.9199089,23.0901675 47.9199089,21.6408803 C47.9199089,20.192224 49.0869512,19.0173991 50.5266376,19.0173991 C51.9663241,19.0173991 53.1333664,20.192224 53.1333664,21.6408803" id="Fill-2" fill="#C51066" sketch:type="MSShapeGroup"></path>
            <path d="M59.6924952,21.6408803 C59.6924952,23.0901675 58.5254529,24.2649924 57.0857664,24.2649924 C55.6467067,24.2649924 54.4796644,23.0901675 54.4796644,21.6408803 C54.4796644,20.192224 55.6467067,19.0173991 57.0857664,19.0173991 C58.5254529,19.0173991 59.6924952,20.192224 59.6924952,21.6408803" id="Fill-3" fill="#C51066" sketch:type="MSShapeGroup"></path>
            <path d="M49.7814103,27.3812438 C49.7814103,28.830531 48.614368,30.0053559 47.1746815,30.0053559 C45.7349951,30.0053559 44.5679528,28.830531 44.5679528,27.3812438 C44.5679528,25.9319566 45.7349951,24.7571317 47.1746815,24.7571317 C48.614368,24.7571317 49.7814103,25.9319566 49.7814103,27.3812438" id="Fill-4" fill="#C51066" sketch:type="MSShapeGroup"></path>
            <path d="M53.1333664,33.1430596 C53.1333664,34.5923468 51.9663241,35.7671717 50.5266376,35.7671717 C49.0869512,35.7671717 47.9199089,34.5923468 47.9199089,33.1430596 C47.9199089,31.6944033 49.0869512,30.5195784 50.5266376,30.5195784 C51.9663241,30.5195784 53.1333664,31.6944033 53.1333664,33.1430596" id="Fill-6" fill="#C51066" sketch:type="MSShapeGroup"></path>
            <path d="M51.6567006,12.413268 C51.6667289,12.6404092 51.6648486,12.8707052 51.6353905,13.1041559 C51.4216626,14.7944652 50.1286399,16.0778131 49.3420458,16.7150704 C50.228296,16.949783 51.9117953,17.2311858 53.2486918,16.4708936 C55.1528134,15.388818 55.6266502,12.6044452 55.6266502,12.6044452 C55.6266502,12.6044452 53.4774621,11.7627608 51.6567006,12.413268" id="Fill-8" fill="#7ED321" sketch:type="MSShapeGroup"></path>
            <path d="M49.4611318,8.80803198 C49.4611318,8.80803198 51.3953383,10.8548268 51.1189336,13.0379064 C50.8431556,15.2216169 48.4608098,16.7150704 48.4608098,16.7150704 C48.4614366,16.7150704 46.5266032,14.6682756 46.803008,12.485196 C47.0794128,10.3014855 49.4611318,8.80803198 49.4611318,8.80803198" id="Fill-7" fill="#7ED321" sketch:type="MSShapeGroup"></path>
            <path d="M56.4132442,27.3812438 C56.4132442,28.830531 55.2462019,30.0053559 53.8065154,30.0053559 C52.366829,30.0053559 51.1997867,28.830531 51.1997867,27.3812438 C51.1997867,25.9319566 52.366829,24.7571317 53.8065154,24.7571317 C55.2462019,24.7571317 56.4132442,25.9319566 56.4132442,27.3812438" id="Fill-5" fill="#C51066" sketch:type="MSShapeGroup"></path>
        </g>
    </g>
</svg>