<?xml version="1.0" encoding="UTF-8" standalone="no"?>
<svg width="34px" height="34px" viewBox="0 0 34 34" version="1.1" xmlns="http://www.w3.org/2000/svg" xmlns:xlink="http://www.w3.org/1999/xlink" xmlns:sketch="http://www.bohemiancoding.com/sketch/ns">
    <!-- Generator: Sketch 3.2.2 (9983) - http://www.bohemiancoding.com/sketch -->
    <title>hidden-hungary-social-mail</title>
    <desc>Created with Sketch.</desc>
    <defs></defs>
    <g id="kit" stroke="none" stroke-width="1" fill="none" fill-rule="evenodd" sketch:type="MSPage">
        <g id="hidden-hungary-social-mail" sketch:type="MSArtboardGroup" fill="#C5B7B9">
            <g id="Oval-5-+-Imported-Layers-2" sketch:type="MSLayerGroup" transform="translate(6.000000, 11.000000)">
                <g id="Imported-Layers-2" sketch:type="MSShapeGroup">
                    <path d="M0.982793706,1.44943316 C1.96833566,2.26581818 2.8823951,3.02220321 3.79565734,3.77948663 C5.72701399,5.38100535 7.65823776,6.98265241 9.5887972,8.58500535 C10.1353462,9.03869519 10.7365699,9.03445989 11.2907587,8.57486631 C14.0784441,6.26297326 16.8670594,3.95210695 19.6554755,1.64098396 C19.7055664,1.59952941 19.7575175,1.56006417 19.8395629,1.49518717 C19.8575664,1.5835508 19.8822133,1.64804278 19.8822797,1.71247059 C19.8841399,4.93058824 19.8848706,8.14864171 19.8826783,11.3667594 C19.8824126,11.7809198 19.7175909,11.9444278 19.2884965,11.9817112 C19.2115664,11.988385 19.1336399,11.9849198 19.0561783,11.9849198 C13.3117343,11.984984 7.56735664,11.984984 1.82291259,11.9849198 C1.74545105,11.9849198 1.66759091,11.9884492 1.59059441,11.9824813 C1.14947552,11.9481497 0.985451049,11.7800856 0.983856643,11.3464171 C0.980667832,10.4590588 0.982793706,9.57170053 0.982793706,8.68434225 L0.982793706,1.88464171 L0.982793706,1.44943316" id="Fill-1"></path>
                    <path d="M10.4340315,7.38802139 C7.47508042,4.93527273 4.53665734,2.49946524 1.5517972,0.0252192513 L19.3139406,0.0252192513 C16.3417692,2.48958289 13.4040105,4.92545455 10.4340315,7.38802139" id="Fill-2"></path>
                </g>
            </g>
        </g>
    </g>
</svg>