<?xml version="1.0" encoding="UTF-8" standalone="no"?>
<svg width="69px" height="44px" viewBox="0 0 69 44" version="1.1" xmlns="http://www.w3.org/2000/svg" xmlns:xlink="http://www.w3.org/1999/xlink" xmlns:sketch="http://www.bohemiancoding.com/sketch/ns">
    <!-- Generator: Sketch 3.2.2 (9983) - http://www.bohemiancoding.com/sketch -->
    <title>hidden-hungary-brand-footer</title>
    <desc>Created with Sketch.</desc>
    <defs></defs>
    <g id="kit" stroke="none" stroke-width="1" fill="none" fill-rule="evenodd" sketch:type="MSPage">
        <g id="hidden-hungary-brand-footer" sketch:type="MSArtboardGroup" fill="#FFFFFF">
            <g id="footer-icon" sketch:type="MSLayerGroup">
                <path d="M32.3884278,14.6492113 C32.3884278,15.6302672 31.5911415,16.4255333 30.6075933,16.4255333 C29.6240451,16.4255333 28.8267588,15.6302672 28.8267588,14.6492113 C28.8267588,13.6685824 29.6240451,12.8733163 30.6075933,12.8733163 C31.5911415,12.8733163 32.3884278,13.6685824 32.3884278,14.6492113" id="Fill-1" sketch:type="MSShapeGroup"></path>
                <path d="M36.9058128,14.6492113 C36.9058128,15.6302672 36.1085265,16.4255333 35.1249783,16.4255333 C34.1414301,16.4255333 33.3441438,15.6302672 33.3441438,14.6492113 C33.3441438,13.6685824 34.1414301,12.8733163 35.1249783,12.8733163 C36.1085265,12.8733163 36.9058128,13.6685824 36.9058128,14.6492113" id="Fill-2" sketch:type="MSShapeGroup"></path>
                <path d="M41.3868018,14.6492113 C41.3868018,15.6302672 40.5895154,16.4255333 39.6059673,16.4255333 C38.6228473,16.4255333 37.8255609,15.6302672 37.8255609,14.6492113 C37.8255609,13.6685824 38.6228473,12.8733163 39.6059673,12.8733163 C40.5895154,12.8733163 41.3868018,13.6685824 41.3868018,14.6492113" id="Fill-3" sketch:type="MSShapeGroup"></path>
                <path d="M34.6158626,18.5349958 C34.6158626,19.5160518 33.8185762,20.3113179 32.8350281,20.3113179 C31.8514799,20.3113179 31.0541936,19.5160518 31.0541936,18.5349958 C31.0541936,17.5539399 31.8514799,16.7586738 32.8350281,16.7586738 C33.8185762,16.7586738 34.6158626,17.5539399 34.6158626,18.5349958" id="Fill-4" sketch:type="MSShapeGroup"></path>
                <path d="M36.9058128,22.4353019 C36.9058128,23.4163578 36.1085265,24.2116239 35.1249783,24.2116239 C34.1414301,24.2116239 33.3441438,23.4163578 33.3441438,22.4353019 C33.3441438,21.454673 34.1414301,20.6594069 35.1249783,20.6594069 C36.1085265,20.6594069 36.9058128,21.454673 36.9058128,22.4353019" id="Fill-6" sketch:type="MSShapeGroup"></path>
                <path d="M35.8970015,8.40282756 C35.9038525,8.5565847 35.902568,8.71247735 35.8824431,8.87050552 C35.736431,10.0147149 34.8530788,10.8834427 34.3157027,11.3148169 C34.9211607,11.4736993 36.0712741,11.6641873 36.9845994,11.149528 C38.285435,10.4170461 38.6091453,8.53223982 38.6091453,8.53223982 C38.6091453,8.53223982 37.1408881,7.9624842 35.8970015,8.40282756" id="Fill-8" sketch:type="MSShapeGroup"></path>
                <path d="M34.3970584,5.96236011 C34.3970584,5.96236011 35.7184471,7.34788276 35.5296161,8.82565969 C35.3412133,10.3038637 33.7136702,11.3148169 33.7136702,11.3148169 C33.7140983,11.3148169 32.3922815,9.92929425 32.5811125,8.45151732 C32.7699435,6.97331329 34.3970584,5.96236011 34.3970584,5.96236011" id="Fill-7" sketch:type="MSShapeGroup"></path>
                <path d="M39.1465214,18.5349958 C39.1465214,19.5160518 38.3492351,20.3113179 37.3656869,20.3113179 C36.3821387,20.3113179 35.5848524,19.5160518 35.5848524,18.5349958 C35.5848524,17.5539399 36.3821387,16.7586738 37.3656869,16.7586738 C38.3492351,16.7586738 39.1465214,17.5539399 39.1465214,18.5349958" id="Fill-5" sketch:type="MSShapeGroup"></path>
                <path d="M69.1102717,15.6806654 L68.7120567,15.3086585 L68.1588376,14.7201104 C67.6047621,14.1302809 54.5415981,0.481345261 35.2628549,0.0918271793 C35.0217849,0.0811496003 34.7798586,0.0734617434 34.5362196,0.0734617434 C34.5195202,0.0734617434 34.5028209,0.0747430529 34.4856934,0.0747430529 C34.4724196,0.0747430529 34.4595739,0.0743159498 34.4463001,0.0738888466 L34.4463001,0.0760243624 C34.4163269,0.0755972592 34.3863537,0.0734617434 34.3563806,0.0734617434 C25.7142592,0.0734617434 18.6838379,7.08649562 18.6838379,15.7067187 C18.6838379,20.1400495 20.5464564,24.1449958 23.5287868,26.9929197 C13.4346794,24.0984416 6.18288493,18.0096589 3.70153461,15.7054374 C5.89428612,13.6655927 11.8114181,8.66805862 20.1418186,5.53824667 L18.7266568,3.07471565 C7.89049927,7.23555463 1.12898021,14.2998409 0.733762549,14.7201104 L0.180543461,15.3086585 L-0.217671517,15.6810925 L-0.193264793,15.7067187 L-0.217671517,15.7323449 L0.180543461,16.1043517 L0.733762549,16.6928999 C1.28783801,17.2827293 14.3510021,30.931665 33.6297453,31.3211831 C33.8708152,31.3318607 34.1127415,31.3395485 34.3563806,31.3395485 C34.3730799,31.3395485 34.3897792,31.3382672 34.4069068,31.3382672 C34.4201806,31.3382672 34.4330262,31.3386943 34.4463001,31.3391214 L34.4463001,31.3369859 C34.4767014,31.337413 34.5062464,31.3395485 34.5362196,31.3395485 C36.3513091,31.3395485 38.0940349,31.0264819 39.716868,30.4580076 L47.4589379,44.2777845 L51.3408917,42.1140799 L43.660909,28.4049227 C47.6220776,25.5646867 50.2091904,20.932753 50.2091904,15.7062916 C50.2091904,11.2729608 48.3461438,7.26801447 45.3638133,4.4200906 C55.4579207,7.31456871 62.7097152,13.4033514 65.1910655,15.7075729 C62.998314,17.7474176 57.081182,22.7449517 48.7507816,25.8747636 L50.1659434,28.3382946 C61.0021009,24.1774557 67.7636199,17.1131694 68.1588376,16.6928999 L68.7120567,16.1043517 L69.1102717,15.7319178 L69.0858649,15.7062916 L69.1102717,15.6806654 Z M47.4268238,15.7062916 C47.4268238,22.796204 41.6441429,28.5642322 34.5362196,28.5642322 C34.5062464,28.5642322 34.4762732,28.5625238 34.4463001,28.5620967 C34.4321699,28.5620967 34.4180397,28.5629509 34.4034813,28.563378 C34.2694584,28.5629509 34.1375764,28.5569715 34.0044099,28.5556901 C27.0587699,28.3681919 21.4657763,22.6787507 21.4657763,15.7067187 C21.4657763,8.61680624 27.2484573,2.84877807 34.3563806,2.84877807 C34.3863537,2.84877807 34.4163269,2.85048649 34.4463001,2.85091359 C34.4608585,2.85091359 34.4749887,2.85005938 34.4891189,2.84963228 C34.6231418,2.85005938 34.7550237,2.85603883 34.8881902,2.85732014 C41.8338302,3.04481842 47.4268238,8.73425961 47.4268238,15.7062916 Z" id="Fill-9" sketch:type="MSShapeGroup"></path>
            </g>
        </g>
    </g>
</svg>