<?xml version="1.0" encoding="UTF-8" standalone="no"?>
<svg width="42px" height="42px" viewBox="0 0 42 42" version="1.1" xmlns="http://www.w3.org/2000/svg" xmlns:xlink="http://www.w3.org/1999/xlink" xmlns:sketch="http://www.bohemiancoding.com/sketch/ns">
    <!-- Generator: Sketch 3.1.1 (8761) - http://www.bohemiancoding.com/sketch -->
    <title>hidden-hungary-blog-icon-opening</title>
    <desc>Created with Sketch.</desc>
    <defs></defs>
    <g id="kit" stroke="none" stroke-width="1" fill="none" fill-rule="evenodd" sketch:type="MSPage">
        <g id="hidden-hungary-blog-icon-opening" sketch:type="MSArtboardGroup" fill="#FFFFFF">
            <path d="M11.9744433,25.9885808 L15.9753677,29.9902121 L10,32 L11.9744433,25.9885808 L11.9744433,25.9885808 L11.9744433,25.9885808 L11.9744433,25.9885808 Z M13.5888094,24.5350734 L24.6064544,13.5171289 L28.4470787,17.3572594 L17.4288355,28.3752039 L13.5888094,24.5350734 L13.5888094,24.5350734 L13.5888094,24.5350734 L13.5888094,24.5350734 Z M26.1496425,11.9738989 L27.8363829,10.233279 C28.0164215,10.0777597 28.213806,10 28.4285365,10 C28.643865,10 28.8412496,10.0777597 29.0212882,10.233279 L31.7661293,12.9787928 C31.9216443,13.1462751 32,13.3466558 32,13.5799347 C32,13.8132137 31.9216443,14.008211 31.7661293,14.1631321 L29.9896686,15.8140294 L26.1496425,11.9738989 L26.1496425,11.9738989 Z" id="Fill-9" sketch:type="MSShapeGroup"></path>
        </g>
    </g>
</svg>