<?xml version="1.0" encoding="UTF-8" standalone="no"?>
<svg width="101px" height="65px" viewBox="0 0 101 65" version="1.1" xmlns="http://www.w3.org/2000/svg" xmlns:xlink="http://www.w3.org/1999/xlink" xmlns:sketch="http://www.bohemiancoding.com/sketch/ns">
    <!-- Generator: Sketch 3.1.1 (8761) - http://www.bohemiancoding.com/sketch -->
    <title>hidden-hungary-brand-header</title>
    <desc>Created with Sketch.</desc>
    <defs></defs>
    <g id="kit" stroke="none" stroke-width="1" fill="none" fill-rule="evenodd" sketch:type="MSPage">
        <g id="hidden-hungary-brand-header" sketch:type="MSArtboardGroup" fill="#FFFFFF">
            <g id="icon-2" sketch:type="MSLayerGroup">
                <path d="M47.409148,21.6408803 C47.409148,23.0901675 46.2421057,24.2649924 44.8024192,24.2649924 C43.3627327,24.2649924 42.1956904,23.0901675 42.1956904,21.6408803 C42.1956904,20.192224 43.3627327,19.0173991 44.8024192,19.0173991 C46.2421057,19.0173991 47.409148,20.192224 47.409148,21.6408803" id="Fill-1" sketch:type="MSShapeGroup"></path>
                <path d="M54.0215521,21.6408803 C54.0215521,23.0901675 52.8545098,24.2649924 51.4148233,24.2649924 C49.9751368,24.2649924 48.8080945,23.0901675 48.8080945,21.6408803 C48.8080945,20.192224 49.9751368,19.0173991 51.4148233,19.0173991 C52.8545098,19.0173991 54.0215521,20.192224 54.0215521,21.6408803" id="Fill-2" sketch:type="MSShapeGroup"></path>
                <path d="M60.5806809,21.6408803 C60.5806809,23.0901675 59.4136386,24.2649924 57.9739521,24.2649924 C56.5348924,24.2649924 55.3678501,23.0901675 55.3678501,21.6408803 C55.3678501,20.192224 56.5348924,19.0173991 57.9739521,19.0173991 C59.4136386,19.0173991 60.5806809,20.192224 60.5806809,21.6408803" id="Fill-3" sketch:type="MSShapeGroup"></path>
                <path d="M50.669596,27.3812438 C50.669596,28.830531 49.5025536,30.0053559 48.0628672,30.0053559 C46.6231807,30.0053559 45.4561384,28.830531 45.4561384,27.3812438 C45.4561384,25.9319566 46.6231807,24.7571317 48.0628672,24.7571317 C49.5025536,24.7571317 50.669596,25.9319566 50.669596,27.3812438" id="Fill-4" sketch:type="MSShapeGroup"></path>
                <path d="M54.0215521,33.1430596 C54.0215521,34.5923468 52.8545098,35.7671717 51.4148233,35.7671717 C49.9751368,35.7671717 48.8080945,34.5923468 48.8080945,33.1430596 C48.8080945,31.6944033 49.9751368,30.5195784 51.4148233,30.5195784 C52.8545098,30.5195784 54.0215521,31.6944033 54.0215521,33.1430596" id="Fill-6" sketch:type="MSShapeGroup"></path>
                <path d="M52.5448863,12.413268 C52.5549146,12.6404092 52.5530343,12.8707052 52.5235762,13.1041559 C52.3098482,14.7944652 51.0168255,16.0778131 50.2302315,16.7150704 C51.1164817,16.949783 52.7999809,17.2311858 54.1368774,16.4708936 C56.0409991,15.388818 56.5148358,12.6044452 56.5148358,12.6044452 C56.5148358,12.6044452 54.3656478,11.7627608 52.5448863,12.413268" id="Fill-8" sketch:type="MSShapeGroup"></path>
                <path d="M50.3493174,8.80803198 C50.3493174,8.80803198 52.283524,10.8548268 52.0071192,13.0379064 C51.7313412,15.2216169 49.3489954,16.7150704 49.3489954,16.7150704 C49.3496222,16.7150704 47.4147889,14.6682756 47.6911937,12.485196 C47.9675984,10.3014855 50.3493174,8.80803198 50.3493174,8.80803198" id="Fill-7" sketch:type="MSShapeGroup"></path>
                <path d="M57.3014299,27.3812438 C57.3014299,28.830531 56.1343875,30.0053559 54.6947011,30.0053559 C53.2550146,30.0053559 52.0879723,28.830531 52.0879723,27.3812438 C52.0879723,25.9319566 53.2550146,24.7571317 54.6947011,24.7571317 C56.1343875,24.7571317 57.3014299,25.9319566 57.3014299,27.3812438" id="Fill-5" sketch:type="MSShapeGroup"></path>
                <path d="M101.161412,23.1646193 L100.578518,22.6150638 L99.7687333,21.7456176 C98.9576953,20.8742786 79.8362523,0.711078226 51.6166426,0.135653788 C51.2637722,0.119880091 50.9096482,0.10852303 50.5530171,0.10852303 C50.5285731,0.10852303 50.5041292,0.110415874 50.4790584,0.110415874 C50.4596286,0.110415874 50.4408256,0.109784926 50.4213958,0.109153978 L50.4213958,0.112308717 C50.377522,0.111677769 50.3336482,0.10852303 50.2897744,0.10852303 C37.6397127,0.10852303 27.3488063,10.4686867 27.3488063,23.2031072 C27.3488063,29.7523458 30.0752478,35.6687438 34.440688,39.8759041 C19.6652554,35.5999705 9.05030983,26.605178 5.41818834,23.2012143 C8.62786809,20.1878074 17.2891773,12.8050866 29.4829518,8.18150076 L27.4114831,4.54219357 C11.5498613,10.6888875 1.65256524,21.1247649 1.07405822,21.7456176 L0.264273762,22.6150638 L-0.318620627,23.1652503 L-0.282894842,23.2031072 L-0.318620627,23.240964 L0.264273762,23.7905196 L1.07405822,24.6599657 C1.88509622,25.5313047 21.0065392,45.6945051 49.2261489,46.2699296 C49.5790194,46.2857033 49.9331434,46.2970603 50.2897744,46.2970603 C50.3142184,46.2970603 50.3386624,46.2951675 50.3637331,46.2951675 C50.3831629,46.2951675 50.4019659,46.2957984 50.4213958,46.2964294 L50.4213958,46.2932746 C50.4658963,46.2939056 50.5091433,46.2970603 50.5530171,46.2970603 C53.2098873,46.2970603 55.7608337,45.8345756 58.136285,44.994784 L69.4688801,65.4103635 L75.1511603,62.2139817 L63.9094466,41.9618177 C69.7076788,37.7660145 73.494612,30.923385 73.494612,23.2024762 C73.494612,16.6532375 70.7675438,10.7368396 66.4021035,6.52967929 C81.1775361,10.8056129 91.7924817,19.8004054 95.4246032,23.2043691 C92.2149234,26.217776 83.5536142,33.6004968 71.3598397,38.2240826 L73.4313085,41.8633898 C89.2929303,35.7166959 99.1902263,25.2808184 99.7687333,24.6599657 L100.578518,23.7905196 L101.161412,23.2403331 L101.125686,23.2024762 L101.161412,23.1646193 Z M69.4218725,23.2024762 C69.4218725,33.6762105 60.9573685,42.1971612 50.5530171,42.1971612 C50.5091433,42.1971612 50.4652695,42.1946374 50.4213958,42.1940065 C50.4007124,42.1940065 50.3800291,42.1952684 50.3587189,42.1958993 C50.1625405,42.1952684 49.9694959,42.1864351 49.774571,42.1845423 C39.6077647,41.9075561 31.420919,33.5026998 31.420919,23.2031072 C31.420919,12.7293729 39.885423,4.20842215 50.2897744,4.20842215 C50.3336482,4.20842215 50.377522,4.21094595 50.4213958,4.21157689 C50.4427059,4.21157689 50.4633892,4.210315 50.4840726,4.20968405 C50.680251,4.210315 50.8732956,4.21914827 51.0682205,4.22104111 C61.2350268,4.49802722 69.4218725,12.9028835 69.4218725,23.2024762 Z" id="Fill-9" sketch:type="MSShapeGroup"></path>
            </g>
        </g>
    </g>
</svg>