<?xml version="1.0" encoding="UTF-8" standalone="no"?>
<svg width="42px" height="42px" viewBox="0 0 42 42" version="1.1" xmlns="http://www.w3.org/2000/svg" xmlns:xlink="http://www.w3.org/1999/xlink" xmlns:sketch="http://www.bohemiancoding.com/sketch/ns">
    <!-- Generator: Sketch 3.1.1 (8761) - http://www.bohemiancoding.com/sketch -->
    <title>hidden-hungary-place-icon-opening</title>
    <desc>Created with Sketch.</desc>
    <defs></defs>
    <g id="kit" stroke="none" stroke-width="1" fill="none" fill-rule="evenodd" sketch:type="MSPage">
        <g id="hidden-hungary-place-icon-opening" sketch:type="MSArtboardGroup" fill="#FFFFFF">
            <path d="M20.7194654,11 C22.1198993,11 23.4121697,11.3586477 24.5968458,12.0759432 C25.7803833,12.7932386 26.7168523,13.7581718 27.4056837,14.9707427 C28.094515,16.1833136 28.4395,17.489816 28.4395,18.89025 C28.4395,20.290684 28.0233548,21.8391313 27.1922029,23.535592 C26.361051,24.8335552 25.412627,26.1827538 24.3486388,27.5831878 C23.2840812,28.9836217 22.4273117,30.0595649 21.7783301,30.8110173 L20.805427,31.9381959 C20.6910013,31.8357251 20.5372951,31.6877117 20.3437392,31.4941558 C20.1501833,31.3005999 19.7716107,30.899256 19.2085906,30.2901242 C18.6450014,29.6809923 18.0979213,29.0604748 17.5684889,28.4285717 C17.0390565,27.7966685 16.4464339,27.0252913 15.792898,26.1144399 C15.1382236,25.2035885 14.5655258,24.3212013 14.0759432,23.4672781 C13.359217,21.8852432 13,20.3931548 13,18.9927208 C13,17.5814704 13.3444157,16.2630131 14.033247,15.0390565 C14.7220784,13.8151 15.6619631,12.8359348 16.8511934,12.1015609 C18.040993,11.367187 19.330417,11 20.7194654,11 C20.7194654,11 19.330417,11 20.7194654,11 L20.7194654,11 L20.7194654,11 Z M20.7029562,22.9378458 C21.9206506,22.9378458 22.9595904,22.5080378 23.8197757,21.6484218 C24.6788224,20.7888058 25.1086304,19.7504353 25.1086304,18.5316023 C25.1086304,17.3133386 24.6788224,16.2772451 23.8197757,15.423322 C22.9595904,14.5693988 21.9206506,14.1424372 20.7029562,14.1424372 C19.4841232,14.1424372 18.4480298,14.5722452 17.5941066,15.4318612 C16.7401834,16.2914772 16.3132219,17.3247242 16.3132219,18.5316023 C16.3132219,19.7504353 16.7430298,20.7888058 17.6032151,21.6484218 C18.4622618,22.5080378 19.4955088,22.9378458 20.7029562,22.9378458 L20.7029562,22.9378458 Z" id="Fill-65" sketch:type="MSShapeGroup"></path>
        </g>
    </g>
</svg>